<svg width="55" height="36" viewBox="0 0 55 36" fill="none" xmlns="http://www.w3.org/2000/svg">
<path d="M10.291 9.90148C10.291 9.34172 10.7448 8.88794 11.3046 8.88794H42.7244C43.2842 8.88794 43.7379 9.34172 43.7379 9.90148C43.7379 10.4612 43.2842 10.915 42.7244 10.915H11.3046C10.7448 10.915 10.291 10.4612 10.291 9.90148Z" fill="#0057FF"/>
<path d="M10.291 26.1182C10.291 25.5584 10.7448 25.1046 11.3046 25.1046H42.7244C43.2842 25.1046 43.7379 25.5584 43.7379 26.1182C43.7379 26.6779 43.2842 27.1317 42.7244 27.1317H11.3046C10.7448 27.1317 10.291 26.6779 10.291 26.1182Z" fill="#0057FF"/>
<path d="M10.291 13.9557C10.291 13.3959 10.7448 12.9421 11.3046 12.9421H38.2648C38.8246 12.9421 39.2783 13.3959 39.2783 13.9557C39.2783 14.5154 38.8246 14.9692 38.2648 14.9692H11.3046C10.7448 14.9692 10.291 14.5154 10.291 13.9557Z" fill="#0057FF"/>
<path d="M10.291 18.0098C10.291 17.45 10.7448 16.9962 11.3046 16.9962H41.2379C41.7976 16.9962 42.2514 17.45 42.2514 18.0098C42.2514 18.5695 41.7976 19.0233 41.2379 19.0233H11.3046C10.7448 19.0233 10.291 18.5695 10.291 18.0098Z" fill="#0057FF"/>
<path d="M10.291 22.064C10.291 21.5042 10.7448 21.0504 11.3046 21.0504H34.5485C35.1082 21.0504 35.562 21.5042 35.562 22.064C35.562 22.6237 35.1082 23.0775 34.5485 23.0775H11.3046C10.7448 23.0775 10.291 22.6237 10.291 22.064Z" fill="#0057FF"/>
<path fill-rule="evenodd" clip-rule="evenodd" d="M49.5619 1H5C2.79086 1 1 2.79086 1 5V30.931C1 33.1402 2.79086 34.931 5 34.931H49.5619C51.7711 34.931 53.5619 33.1402 53.5619 30.931V5C53.5619 2.79086 51.7711 1 49.5619 1ZM5 0C2.23858 0 0 2.23858 0 5V30.931C0 33.6925 2.23858 35.931 5 35.931H49.5619C52.3234 35.931 54.5619 33.6925 54.5619 30.931V5C54.5619 2.23858 52.3234 0 49.5619 0H5Z" fill="black"/>
</svg>
