<svg width="60" height="38" viewBox="0 0 60 38" fill="none" xmlns="http://www.w3.org/2000/svg">
<path fill-rule="evenodd" clip-rule="evenodd" d="M17.5862 9.3103H5.17241C2.31577 9.3103 0 11.6261 0 14.4827V32.0689C0 34.9256 2.31577 37.2413 5.17241 37.2413H37.2414C40.098 37.2413 42.4138 34.9256 42.4138 32.0689V27.931H41.3793V32.0689C41.3793 34.3542 39.5267 36.2069 37.2414 36.2069H5.17241C2.8871 36.2069 1.03448 34.3542 1.03448 32.0689V14.4827C1.03448 12.1974 2.8871 10.3448 5.17241 10.3448H17.5862V9.3103Z" fill="black"/>
<path fill-rule="evenodd" clip-rule="evenodd" d="M54.9997 1H22.5859C20.3768 1 18.5859 2.79086 18.5859 5V22.931C18.5859 25.1402 20.3768 26.931 22.5859 26.931H54.9997C57.2089 26.931 58.9997 25.1402 58.9997 22.931V5C58.9997 2.79086 57.2089 1 54.9997 1ZM22.5859 0C19.8245 0 17.5859 2.23858 17.5859 5V22.931C17.5859 25.6925 19.8245 27.931 22.5859 27.931H54.9997C57.7612 27.931 59.9997 25.6925 59.9997 22.931V5C59.9997 2.23858 57.7612 0 54.9997 0H22.5859Z" fill="#0057FF"/>
</svg>
