<svg width="44" height="35" viewBox="0 0 44 35" fill="none" xmlns="http://www.w3.org/2000/svg">
<g clip-path="url(#clip0)">
<path d="M42.2581 7.51505L22.2804 0.0495919C22.1033 -0.0165306 21.8971 -0.0165306 21.72 0.0495919L1.74222 7.51505C1.51947 7.59827 1.37793 7.77289 1.37793 7.96434V26.0947C1.37793 26.2862 1.51947 26.4608 1.74222 26.544L21.7199 34.0095C21.8084 34.0425 21.9044 34.0591 22.0002 34.0591C22.096 34.0591 22.1918 34.0425 22.2804 34.0095L42.2581 26.544C42.4809 26.4608 42.6224 26.2862 42.6224 26.0947V7.9644C42.6224 7.77282 42.4808 7.59834 42.2581 7.51505ZM22.0002 1.05294L40.4954 7.96434L35.134 9.96784C35.1001 9.94781 35.0642 9.92932 35.0249 9.91462L16.6553 3.05025L22.0002 1.05294ZM15.1997 3.61435L33.668 10.5157L29.8855 11.9292L11.4248 5.03067L15.1997 3.61435ZM34.1001 11.4622V16.6872L30.5669 18.0075V12.7825L34.1001 11.4622ZM41.3334 25.7817L22.6447 32.7653V15.7429L27.1025 14.0771C27.4231 13.9573 27.5575 13.6591 27.4027 13.4109C27.2479 13.1628 26.8627 13.0586 26.5421 13.1785L22.0002 14.8758L20.213 14.2079C19.8924 14.088 19.5071 14.1922 19.3524 14.4403C19.1976 14.6884 19.332 14.9867 19.6525 15.1065L21.3556 15.7429V32.7653L2.66699 25.7816V8.7592L16.8982 14.0773C16.9886 14.1111 17.084 14.127 17.178 14.127C17.4176 14.127 17.6477 14.0231 17.7588 13.8449C17.9136 13.5968 17.7792 13.2985 17.4586 13.1787L3.50497 7.96434L9.90774 5.57169L29.2689 12.8068C29.2718 12.8098 29.275 12.8126 29.2779 12.8156V18.8024C29.2779 18.9741 29.3919 19.1337 29.5798 19.2251C29.6841 19.2757 29.8031 19.3014 29.9225 19.3014C30.0181 19.3014 30.1139 19.2849 30.2027 19.2517L35.0249 17.4497C35.2476 17.3665 35.3891 17.192 35.3891 17.0004V10.9806L41.3334 8.75927V25.7817Z" fill="#2864FF"/>
<path d="M7.98559 23.8465L5.05383 22.751C4.73311 22.631 4.34794 22.7352 4.19317 22.9833C4.03839 23.2315 4.1728 23.5297 4.49334 23.6495L7.4251 24.7451C7.51542 24.7789 7.6109 24.7948 7.70483 24.7948C7.94442 24.7948 8.17456 24.6909 8.28568 24.5127C8.44054 24.2645 8.30613 23.9664 7.98559 23.8465Z" fill="white"/>
<path d="M10.6841 22.4871L5.05817 20.3847C4.73754 20.2649 4.35228 20.3689 4.19751 20.6171C4.04282 20.8653 4.17722 21.1635 4.49777 21.2833L10.1237 23.3857C10.214 23.4194 10.3095 23.4355 10.4034 23.4355C10.643 23.4355 10.8731 23.3315 10.9842 23.1533C11.139 22.9051 11.0046 22.6068 10.6841 22.4871Z" fill="white"/>
</g>
<defs>
<clipPath id="clip0">
<rect width="44" height="34.0591" fill="white"/>
</clipPath>
</defs>
</svg>
