<svg width="30" height="42" viewBox="0 0 30 42" fill="none" xmlns="http://www.w3.org/2000/svg">
<path d="M15 0C6.72896 0 0 6.78872 0 15.1331C0 25.4888 13.4235 40.6916 13.9951 41.3337C14.5319 41.9369 15.4691 41.9359 16.005 41.3337C16.5765 40.6916 30 25.4888 30 15.1331C29.9998 6.78872 23.271 0 15 0ZM15 22.747C10.8386 22.747 7.4532 19.3315 7.4532 15.1331C7.4532 10.9348 10.8387 7.51932 15 7.51932C19.1613 7.51932 22.5467 10.9349 22.5467 15.1332C22.5467 19.3315 19.1613 22.747 15 22.747Z" fill="#0057FF"/>
</svg>
