<svg width="55" height="36" fill="none" xmlns="http://www.w3.org/2000/svg"><path d="M10.291 9.901c0-.56.454-1.013 1.014-1.013h31.42a1.013 1.013 0 110 2.027h-31.42c-.56 0-1.014-.454-1.014-1.014zm0 16.217c0-.56.454-1.013 1.014-1.013h31.42a1.014 1.014 0 010 2.027h-31.42c-.56 0-1.014-.454-1.014-1.014zm0-12.162c0-.56.454-1.014 1.014-1.014h26.96a1.014 1.014 0 010 2.027h-26.96c-.56 0-1.014-.454-1.014-1.013zm0 4.054c0-.56.454-1.014 1.014-1.014h29.933a1.014 1.014 0 010 2.027H11.305c-.56 0-1.014-.453-1.014-1.013zm0 4.054c0-.56.454-1.014 1.014-1.014h23.243a1.014 1.014 0 010 2.027H11.305c-.56 0-1.014-.453-1.014-1.013z" fill="#0057FF"/><path fill-rule="evenodd" clip-rule="evenodd" d="M49.562 1H5a4 4 0 00-4 4v25.931a4 4 0 004 4h44.562a4 4 0 004-4V5a4 4 0 00-4-4zM5 0a5 5 0 00-5 5v25.931a5 5 0 005 5h44.562a5 5 0 005-5V5a5 5 0 00-5-5H5z" fill="#000"/></svg>