<svg width="60" height="38" fill="none" xmlns="http://www.w3.org/2000/svg"><path fill-rule="evenodd" clip-rule="evenodd" d="M17.586 9.31H5.172A5.172 5.172 0 000 14.483v17.586a5.172 5.172 0 005.172 5.172h32.07a5.172 5.172 0 005.172-5.172V27.93h-1.035v4.138a4.138 4.138 0 01-4.138 4.138H5.172a4.138 4.138 0 01-4.138-4.138V14.483a4.138 4.138 0 014.138-4.138h12.414V9.31z" fill="#000"/><path fill-rule="evenodd" clip-rule="evenodd" d="M55 1H22.586a4 4 0 00-4 4v17.931a4 4 0 004 4H55a4 4 0 004-4V5a4 4 0 00-4-4zM22.586 0a5 5 0 00-5 5v17.931a5 5 0 005 5H55a5 5 0 005-5V5a5 5 0 00-5-5H22.586z" fill="#0057FF"/></svg>