<svg width="45" height="45" fill="none" xmlns="http://www.w3.org/2000/svg"><path d="M17.755 31.535a.74.74 0 01-.481-.177l-4.808-4.094a.743.743 0 010-1.131l4.808-4.094a.743.743 0 11.963 1.131l-4.143 3.528 4.143 3.528a.743.743 0 01-.482 1.31zm9.49 0a.743.743 0 01-.482-1.309l4.143-3.528-4.143-3.528a.743.743 0 01.963-1.13l4.808 4.093a.743.743 0 010 1.131l-4.808 4.094a.74.74 0 01-.48.177zm-6.447 3.071a.743.743 0 01-.728-.896l2.997-14.226a.743.743 0 011.453.306l-2.996 14.226a.743.743 0 01-.726.59z" fill="#fff"/><path d="M40.012 42.356H4.988A4.994 4.994 0 010 37.368V7.642a4.994 4.994 0 014.988-4.989h35.024A4.994 4.994 0 0145 7.642v29.726a4.994 4.994 0 01-4.988 4.988zM4.988 4.139a3.506 3.506 0 00-3.502 3.503v29.726a3.506 3.506 0 003.502 3.502h35.024a3.507 3.507 0 003.502-3.502V7.642a3.506 3.506 0 00-3.502-3.503H4.988z" fill="#2864FF"/><path d="M44.257 14.55H.743a.743.743 0 110-1.486h43.514a.743.743 0 010 1.486z" fill="#2864FF"/><path d="M12.693 10.995a2.354 2.354 0 01-2.35-2.351 2.354 2.354 0 012.35-2.352 2.354 2.354 0 012.351 2.352 2.354 2.354 0 01-2.35 2.35zm0-3.217a.866.866 0 000 1.73.866.866 0 000-1.73zM5.47 10.972A2.354 2.354 0 013.119 8.62a2.354 2.354 0 012.35-2.351 2.354 2.354 0 012.352 2.35 2.354 2.354 0 01-2.351 2.352zm0-3.217a.866.866 0 10.865.865.866.866 0 00-.865-.865zm14.447 3.262a2.354 2.354 0 01-2.35-2.35 2.354 2.354 0 012.35-2.352 2.354 2.354 0 012.351 2.351 2.354 2.354 0 01-2.35 2.351zm0-3.216a.866.866 0 10.002 1.732.866.866 0 00-.002-1.732z" fill="#fff"/></svg>