<svg width="45" height="45" fill="none" xmlns="http://www.w3.org/2000/svg"><path d="M43.059 30.593c.922-1.176 1.364-2.437 1.308-3.736-.056-1.43-.696-2.55-1.223-3.237.611-1.525.846-3.924-1.195-5.788-1.497-1.364-4.038-1.976-7.557-1.806a29.513 29.513 0 00-4.63.593h-.01c-.47.084-.968.188-1.477.3-.037-.602.066-2.098 1.177-5.467 1.317-4.008 1.242-7.076-.245-9.128C27.645.17 25.151 0 24.417 0c-.706 0-1.355.292-1.816.828-1.045 1.214-.922 3.454-.79 4.489-1.243 3.331-4.724 11.5-7.67 13.767-.056.038-.103.085-.15.132-.866.913-1.45 1.9-1.845 2.766a3.884 3.884 0 00-1.863-.47h-5.74a3.918 3.918 0 00-3.915 3.915v15.291a3.918 3.918 0 003.915 3.915h5.74a3.91 3.91 0 002.258-.715l2.212.263c.338.047 6.361.81 12.544.687 1.12.085 2.174.132 3.152.132 1.685 0 3.153-.132 4.376-.395 2.88-.612 4.846-1.835 5.844-3.633.762-1.373.762-2.738.64-3.604 1.872-1.694 2.202-3.566 2.136-4.884a6.356 6.356 0 00-.386-1.891zm-38.516 11.5a1.376 1.376 0 01-1.374-1.375v-15.3c0-.763.62-1.375 1.374-1.375h5.74c.762 0 1.374.621 1.374 1.374V40.71c0 .762-.621 1.374-1.374 1.374h-5.74v.01zM40.65 29.491a1.265 1.265 0 00-.17 1.534c0 .01.386.668.433 1.571.066 1.233-.527 2.325-1.769 3.256a1.282 1.282 0 00-.433 1.45c0 .009.405 1.251-.254 2.427-.63 1.13-2.032 1.939-4.16 2.39-1.702.367-4.017.433-6.86.208h-.13c-6.052.131-12.168-.66-12.234-.669h-.01l-.95-.113a4.01 4.01 0 00.085-.828v-15.3c0-.405-.066-.8-.18-1.168.17-.63.64-2.032 1.751-3.227 4.225-3.35 8.356-14.652 8.535-15.142.076-.197.094-.414.057-.63-.16-1.054-.104-2.343.122-2.729.499.01 1.844.15 2.654 1.27.96 1.327.922 3.699-.113 6.842-1.581 4.79-1.713 7.311-.461 8.422.62.555 1.449.583 2.051.367.574-.132 1.12-.245 1.637-.33.038-.009.085-.018.123-.028 2.889-.63 8.064-1.016 9.862.621 1.524 1.393.442 3.238.32 3.435a1.258 1.258 0 00.226 1.638c.009.009.997.94 1.044 2.192.038.838-.357 1.694-1.176 2.54z" fill="#0057FF"/></svg>