<svg width="50" height="32" fill="none" xmlns="http://www.w3.org/2000/svg"><g clip-path="url(#clip0)"><rect width="50" height="32" rx="3" fill="#F9F9F9"/><path d="M29.363 23.864h-8.749V8.141h8.75v15.723z" fill="#FF5F00"/><path d="M21.175 16.001c0-3.19 1.493-6.03 3.819-7.862a9.956 9.956 0 00-6.18-2.138c-5.522 0-9.999 4.477-9.999 10s4.477 10 10 10c2.332 0 4.478-.8 6.179-2.138A9.983 9.983 0 0121.174 16z" fill="#EB001B"/><path d="M41.163 16.001c0 5.523-4.476 10-9.998 10a9.96 9.96 0 01-6.18-2.138A9.982 9.982 0 0028.804 16c0-3.19-1.494-6.03-3.82-7.862A9.96 9.96 0 0131.164 6c5.522 0 9.998 4.477 9.998 10z" fill="#F79E1B"/><path d="M16.34 16.064c0-.437.286-.796.753-.796.447 0 .749.344.749.796 0 .452-.302.796-.749.796-.467 0-.754-.36-.754-.796zm2.011 0v-1.242h-.54v.301c-.171-.223-.431-.364-.785-.364-.697 0-1.243.546-1.243 1.305 0 .76.546 1.305 1.243 1.305.354 0 .614-.14.785-.364v.302h.54v-1.243zm18.26 0c0-.437.286-.796.754-.796.448 0 .749.344.749.796 0 .452-.301.796-.749.796-.468 0-.754-.36-.754-.796zm2.013 0v-2.24h-.541v1.3c-.172-.225-.432-.365-.785-.365-.697 0-1.243.546-1.243 1.305 0 .76.546 1.305 1.243 1.305.353 0 .613-.14.785-.364v.302h.54v-1.243zm-13.565-.821c.348 0 .572.218.629.603h-1.29c.058-.36.276-.603.66-.603zm.01-.484c-.728 0-1.238.53-1.238 1.305 0 .79.53 1.305 1.275 1.305.374 0 .717-.093 1.018-.348l-.264-.4a1.19 1.19 0 01-.723.26c-.349 0-.666-.162-.744-.61h1.846c.005-.067.01-.134.01-.207-.005-.775-.483-1.305-1.18-1.305zm6.525 1.305c0-.437.286-.796.754-.796.447 0 .748.344.748.796 0 .452-.301.796-.748.796-.468 0-.754-.36-.754-.796zm2.012 0v-1.242h-.54v.301c-.172-.223-.432-.364-.785-.364-.697 0-1.243.546-1.243 1.305 0 .76.546 1.305 1.243 1.305.353 0 .613-.14.785-.364v.302h.54v-1.243zm-5.064 0c0 .754.525 1.305 1.326 1.305.375 0 .624-.083.894-.296l-.26-.437a1.092 1.092 0 01-.65.224c-.431-.006-.748-.317-.748-.796 0-.478.317-.79.748-.796.235 0 .448.078.65.224l.26-.437c-.27-.213-.52-.296-.894-.296-.8 0-1.326.551-1.326 1.305zm6.967-1.305a.734.734 0 00-.655.364v-.301h-.536v2.485h.541v-1.393c0-.412.177-.64.53-.64.11 0 .224.015.338.062l.167-.51a1.15 1.15 0 00-.385-.067zm-14.485.26c-.26-.171-.618-.26-1.014-.26-.63 0-1.034.302-1.034.796 0 .405.301.655.857.733l.255.036c.297.042.437.12.437.26 0 .192-.198.302-.567.302-.374 0-.644-.12-.826-.26l-.255.42c.296.219.67.323 1.076.323.717 0 1.133-.338 1.133-.811 0-.437-.327-.665-.868-.743l-.255-.037c-.233-.031-.42-.078-.42-.244 0-.182.176-.291.472-.291.317 0 .625.12.775.213l.234-.437zm6.972-.26a.732.732 0 00-.655.364v-.301h-.535v2.485h.54v-1.393c0-.412.177-.64.53-.64.11 0 .224.015.338.062l.167-.51a1.15 1.15 0 00-.385-.067zm-4.611.063H22.5v-.754h-.546v.754h-.504v.494h.504v1.133c0 .577.223.92.863.92.234 0 .504-.072.675-.192l-.155-.463a1 1 0 01-.479.14c-.27 0-.358-.166-.358-.416v-1.122h.884v-.494zm-8.08 2.485v-1.56c0-.587-.374-.983-.978-.988-.317-.005-.644.093-.873.442-.172-.275-.442-.442-.822-.442-.265 0-.524.078-.727.369v-.306h-.541v2.485h.545v-1.378c0-.431.24-.66.61-.66.358 0 .54.233.54.655v1.383h.546v-1.378c0-.431.25-.66.608-.66.369 0 .546.233.546.655v1.383h.546z" fill="#fff"/></g><defs><clipPath id="clip0"><path fill="#fff" d="M0 0h50v32H0z"/></clipPath></defs></svg>