<svg width="45" height="45" fill="none" xmlns="http://www.w3.org/2000/svg"><g clip-path="url(#clip0)" fill="#0057FF"><path d="M29.897 45a2.394 2.394 0 01-2.226-1.534l-7.826-20.543a2.166 2.166 0 01-.159-.853 2.387 2.387 0 012.383-2.384c.34 0 .654.065.94.195l20.456 7.79A2.394 2.394 0 0145 29.898a2.38 2.38 0 01-1.648 2.267l-8.426 2.76-2.762 8.432A2.382 2.382 0 0129.897 45zm-7.084-22.185L29.87 41.33l2.606-7.955c.139-.426.475-.76.898-.898l7.956-2.606-18.516-7.056zm19.656 7.488h.019-.02zm-20.545-7.828a.073.073 0 00.025.01l-.025-.01zm.524-.622l.028.071c-.01-.022-.017-.047-.028-.071z"/><path d="M20.625 41.25C9.253 41.25 0 31.997 0 20.625S9.253 0 20.625 0 41.25 9.253 41.25 20.625c0 .397-.019.816-.04 1.211a1.396 1.396 0 01-1.473 1.335 1.406 1.406 0 01-1.335-1.473c.017-.35.035-.72.035-1.073 0-9.821-7.99-17.813-17.812-17.813-9.821 0-17.813 7.992-17.813 17.813 0 9.821 7.992 17.812 17.813 17.812a20.2 20.2 0 001.073-.035c.72-.02 1.436.555 1.475 1.331a1.407 1.407 0 01-1.333 1.478c-.397.02-.816.039-1.215.039z"/><path d="M18.094 31.575c-.118 0-.24-.015-.36-.047a11.286 11.286 0 01-8.378-10.903c0-6.213 5.056-11.269 11.27-11.269 5.131 0 9.616 3.447 10.902 8.382a1.407 1.407 0 01-1.005 1.715 1.41 1.41 0 01-1.715-1.005c-.964-3.697-4.33-6.28-8.183-6.28-4.661 0-8.456 3.794-8.456 8.457a8.472 8.472 0 006.287 8.184 1.408 1.408 0 01-.362 2.766z"/></g><defs><clipPath id="clip0"><path fill="#fff" d="M0 0h45v45H0z"/></clipPath></defs></svg>