<svg width="200" height="70" fill="none" xmlns="http://www.w3.org/2000/svg"><path d="M130.854 59.704l-.009-.008-.558.559.558-.56h-.001l-.004-.004-.014-.014-.056-.057-.222-.221-.859-.857-3.205-3.197L115.511 44.4a115880.81 115880.81 0 00-29.13-29.042l-.543-.542-.557.528a40.669 40.669 0 00-2.69 2.806h-.001a38.902 38.902 0 00-2.266 2.87l-.39.545.474.474 44.44 44.44.134.134.18.059c.008.002.02.007.035.017a4.532 4.532 0 005.663-.589h0c1.486-1.486 1.733-3.931.582-5.678a.283.283 0 01-.028-.053l-.06-.16-.121-.122-.351-.352-.019-.021-.009-.01z" fill="#C4C4C4" stroke="#C4C4C4" stroke-width="1.579"/><path d="M85.947 12.894a37.18 37.18 0 00-1.313 1.127l-.248.218c-.126.11-.252.219-.38.339a41.805 41.805 0 00-2.92 3.032 40.596 40.596 0 00-2.862 3.711c-3.665 5.363-5.684 11.204-5.684 16.445 0 2.269.374 4.36 1.112 6.234-6.477 1.3-14.176-1.455-19.955-7.233-4.79-4.792-7.538-10.883-7.538-16.71 0-.582.028-1.16.086-1.726 4.633-.55 11.506-4.396 18.662-10.479a94.471 94.471 0 005.475-5.05 56 56 0 001.066-1.104l.374-.391c.417-.436.825-.872 1.228-1.308l12.897 12.895z" fill="#C4C4C4"/><path d="M69.832 59.704l.008-.008.558.559-.557-.56h0l.004-.004.014-.014.057-.057.222-.221.858-.857 3.205-3.197a188893.9 188893.9 0 0140.103-39.987l.543-.542.557.528a40.575 40.575 0 012.691 2.806h.001a38.901 38.901 0 012.265 2.87l.39.545-.473.474-44.44 44.44-.134.134-.18.059a.156.156 0 00-.036.017 4.532 4.532 0 01-5.662-.589h0c-1.486-1.486-1.733-3.931-.582-5.678a.286.286 0 00.028-.053l.06-.16.12-.122.351-.352a1.08 1.08 0 01.02-.021l.009-.01z" fill="#C4C4C4" stroke="#C4C4C4" stroke-width="1.579"/><path d="M114.739 12.894c.472.388.901.756 1.313 1.127l.248.218c.126.11.252.219.379.339a41.57 41.57 0 012.919 3.032 40.524 40.524 0 012.863 3.711c3.665 5.363 5.684 11.204 5.684 16.445 0 2.269-.373 4.36-1.111 6.234 6.477 1.3 14.175-1.455 19.954-7.233 4.791-4.792 7.538-10.883 7.538-16.71 0-.582-.028-1.16-.085-1.726-4.633-.55-11.507-4.396-18.663-10.479a94.288 94.288 0 01-5.475-5.05 54.838 54.838 0 01-1.065-1.104l-.374-.391c-.417-.436-.826-.872-1.229-1.308l-12.896 12.895z" fill="#C4C4C4"/><path fill-rule="evenodd" clip-rule="evenodd" d="M32.16 11.443v.013l.046-.012L46.85 66.09l-13.922 3.73-1.866-6.966H15.788l-1.866 6.966L0 66.091l14.628-54.592v-.056H32.16zM19.65 48.442h7.55l-3.775-14.086-3.774 14.086z" fill="#C4C4C4"/><path fill="#C4C4C4" d="M161.363 11.45h14.383v58.378h-14.383zm14.383 14.383V11.45H200l-8.392 14.383h-15.862zm0 29.611v14.383H200l-8.392-14.383h-15.862zm0-7.754V33.305h11.422V47.69z"/></svg>