<svg width="50" height="32" fill="none" xmlns="http://www.w3.org/2000/svg"><rect width="50" height="32" rx="3" fill="#F9F9F9"/><g clip-path="url(#clip0)"><path d="M7 24.996h17.44V7H7v17.997zM42.478 7.003H25.561V25H43V7.003h-.522z" fill="#0055A5"/><path d="M26.607 23.921h15.345V8.081H26.607v15.84zm-18.01-7.059v3.753h.6v-1.09a.58.58 0 00.384.168c.198 0 .361-.107.489-.323.143-.239.215-.593.215-1.055 0-.323-.058-.614-.17-.86l-.02-.041-.019-.034-.013-.034-.02-.026-.02-.034-.025-.034-.02-.026-.02-.027-.025-.027-.02-.027-.026-.027-.026-.02-.026-.027-.026-.02-.026-.02-.026-.02-.033-.014-.026-.02-.026-.014-.033-.013-.032-.014-.033-.013-.032-.014-.033-.006-.032-.007-.033-.007-.039-.013h-.032l-.04-.007h-.032l-.039-.006h-.665zm.567.532h.059c.15 0 .268.09.351.262.084.172.124.438.124.807 0 .199-.023.356-.078.464-.052.107-.12.161-.195.161-.073 0-.133-.05-.183-.148a.894.894 0 01-.078-.41v-1.136zM22.7 16.68l-.05.052s-1.253 1.35-1.346 1.452v-1.323h-.587v3.76h.587v-1.544c.015-.019.768-.842.854-.936.006.137.086 2.48.086 2.48h.6l-.144-3.94zm-2.859.052l-.003.005-.005.003-.005.008-.008.008-.01.01-.01.012-.014.013-.013.014-.015.016-.016.019-.018.018-.019.02-.018.02-.02.022-.024.024-.047.052-.05.053-.052.057-.054.059-.058.062-.06.062-.06.064-.06.067-.122.132-.06.065-.06.062-.057.061-.054.062-.055.057-.05.054-.047.05-.023.025-.02.024-.022.022-.018.021-.018.02-.016.018-.015.016-.016.016-.013.014-.01.01-.01.011-.009.011-.008.006-.005.008V16.86h-.59v3.76h.59v-1.543c.015-.019.769-.842.855-.936l.086 2.48h.597l-.144-3.941-.047.05zm-3.409 2.956l-.037-.046-.03-.045-.032-.052-.026-.05-.026-.054-.024-.054-.023-.056-.019-.057-.015-.062-.016-.059-.013-.064-.01-.065-.008-.067-.005-.068-.003-.07-.003-.07c0-.395.094-.71.276-.941.201-.253.493-.38.873-.38h.03v-.655h-.03c-.594 0-1.05.188-1.36.567-.281.342-.425.818-.425 1.415 0 .575.157 1.051.462 1.41.323.376.768.57 1.331.57h.029v-.66h-.029c-.37 0-.661-.129-.867-.387zm-4.714-2.919c-.315 0-.567.184-.75.544-.177.356-.266.828-.266 1.406 0 .597.084 1.08.254 1.432.172.36.428.545.762.545.342 0 .611-.195.802-.572.177-.352.267-.828.267-1.412 0-.576-.092-1.047-.274-1.399l-.02-.033-.02-.034-.012-.034-.027-.026-.013-.027-.026-.027-.02-.027-.019-.027-.02-.027-.026-.027-.02-.02-.025-.02-.02-.02-.026-.02-.02-.02-.025-.021-.027-.014-.026-.013-.026-.013-.026-.014-.026-.013-.026-.014-.026-.006-.032-.014-.027-.007-.032-.006-.026-.007h-.026l-.033-.007-.032-.006h-.065zm0 .605c.167 0 .29.122.365.37.073.223.104.549.104.968 0 .406-.036.744-.117 1.002l-.013.027-.007.02-.006.02-.007.02-.006.02-.013.021-.006.02-.014.014-.006.02-.013.014-.006.02-.007.013-.013.014-.013.013-.006.013-.013.007-.007.013-.013.014-.013.006-.013.014-.013.007-.013.006-.007.007-.013.007h-.013l-.013.006-.013.007h-.013l-.013.006h-.047c-.143 0-.25-.126-.332-.376-.083-.261-.123-.596-.123-.989 0-.4.04-.731.123-.981.076-.24.187-.363.333-.363zm2.454 2.314l-.015-.021-.019-.025-.034-.045-.028-.052-.029-.05-.026-.054-.023-.054-.021-.056-.021-.057-.016-.062-.015-.059-.01-.064-.011-.065-.008-.067-.005-.068-.005-.07v-.07c0-.395.09-.71.276-.941.198-.253.49-.38.87-.38h.032v-.655h-.031c-.592 0-1.051.188-1.358.567-.285.342-.425.818-.425 1.415 0 .575.154 1.051.461 1.41.32.376.769.57 1.332.57h.029v-.66h-.029c-.373 0-.665-.129-.87-.387zm-5.569-8.341v3.779h.675v-3.153h.834v3.153h.672v-3.78H8.603zm4.248-.099c-.357 0-.644.186-.847.552-.2.358-.3.831-.3 1.412 0 .6.094 1.09.287 1.446.196.363.485.544.86.544.383 0 .686-.19.9-.571.2-.355.306-.835.306-1.42 0-.58-.11-1.056-.313-1.411l-.02-.034-.02-.033-.019-.034-.026-.027-.02-.033-.026-.027-.02-.027-.025-.027-.026-.027-.02-.02-.026-.027-.026-.02-.026-.02-.026-.02-.033-.021-.026-.014-.026-.02-.026-.013-.032-.014-.027-.013-.032-.014-.032-.013-.027-.007-.032-.014-.033-.006-.032-.007-.033-.007-.032-.006h-.072l-.033-.007h-.039zm.007.64c.182 0 .311.12.397.362.079.22.118.542.118.962 0 .4-.046.736-.137.989-.089.247-.211.363-.378.363h-.059l-.013-.007-.013-.007h-.013l-.013-.006-.013-.007-.013-.007-.014-.006-.013-.007-.013-.014-.013-.006-.013-.014-.013-.006-.006-.014-.014-.013-.013-.014-.006-.013-.013-.014-.014-.02-.006-.014-.013-.013-.007-.02-.013-.02-.006-.014-.006-.027-.014-.02-.006-.02-.006-.02-.014-.021c-.09-.261-.136-.592-.136-.982 0-.4.045-.727.136-.975.088-.239.209-.356.373-.356zm4.869-.541v.626h.56v3.153h.675v-3.153h.569v-.626h-1.804zm-1.477 1.315h-.368c-.15 0-.265-.035-.336-.105-.052-.048-.076-.116-.076-.202v-1.008h-.675v1.078c0 .248.097.46.284.627a.992.992 0 00.678.248h.493v1.826h.675v-3.78h-.675v1.316zm4.16-1.312l-.124 3.778h.67l.066-1.849h.84l.196 1.85h.677l-.312-2.764v-.101l-.007-.034v-.033l-.006-.027v-.034l-.007-.027-.006-.033-.007-.027-.006-.027-.007-.027-.006-.027-.013-.027-.007-.027-.006-.027-.013-.027-.014-.02-.013-.027-.006-.02-.013-.027-.013-.02-.02-.02-.013-.027-.013-.014-.02-.027-.013-.013-.02-.02-.02-.02-.019-.014-.013-.02-.026-.02c-.17-.138-.399-.202-.69-.202h-.996zm.645.624h.24c.175 0 .292.058.365.168.06.092.1.267.124.511h-.749v-.106l.006-.021v-.269l.007-.027v-.195l.006-.014v-.047z" fill="#fff"/><path d="M30.844 12.817l.024.057.028.054.029.056.034.06.018.026.021.03.018.03.021.029.024.03.023.03.023.029.026.03.029.031.029.03.028.032.032.033.034.032.033.032.037.033.04.035.038.032.042.035.041.034.045.038.05.035.046.038.052.035.053.037c.127.092.273.283.164.55-.11.268-.313.645-.19.793.122.147.555.223.91.078 0 0 .075.23.205.379 0 0-.062.126-.266.062 0 0 .076.19-.029.395 0 0-.236-.043-.341-.269 0 0-.094.178-.284.24 0 0-.156-.084-.122-.407 0 0-.115.288-.47.337 0 0-.203-.267.063-.624 0 0-.193.174-.537.091 0 0-.057-.183.258-.436 0 0-.354-.016-.49-.322 0 0 .149-.191.516-.149 0 0-.341-.078-.417-.497 0 0 .245-.162.636.096 0 0-.067-.134-.232-.268-.164-.129-.362-.503-.292-1.052zm1.423 4.237l-.01-.013-.008-.013-.01-.014L32.23 17l-.008-.013-.008-.013-.008-.01-.007-.014-.008-.014-.008-.013-.005-.014-.008-.013-.005-.01-.008-.014-.005-.014-.005-.013c.062.51.083.855.349 1.186 0 0 .164-.22.057-.758a.532.532 0 01-.143-.07s.062.218.023.438c0 0-.096-.073-.167-.587zm-.463-.053l-.003-.003-.002-.005-.003-.005-.005-.003-.002-.005-.006-.006-.002-.005-.006-.006-.002-.005-.006-.008-.007-.01-.008-.014-.01-.014-.008-.013-.008-.013-.01-.014-.008-.013-.008-.011-.008-.013-.003-.008-.002-.006-.005-.005-.003-.005c-.023.295-.099 1.076.157 1.32 0 0 .172-.132.234-1.27-.036.065-.102.132-.133.17 0 0 .042.36-.083.616 0 0-.126-.1-.05-.646zm-.603.596l.019-.024.018-.03.018-.032.018-.035.016-.035.016-.037.013-.04.015-.041.014-.043.013-.043.01-.043.01-.046.021-.089.008-.043.01-.043.008-.043.005-.04.009-.04.005-.04.005-.038.005-.035.005-.032.003-.03.003-.03.002-.024.003-.01v-.012l.002-.01v-.016l.003-.006v-.021c.028-.019.06-.043.089-.067l.036-.033c0 .03 0 .06.002.09-.03.473-.067.962-.21 1.207-.141.24-.4.363-.4.363-.242-.447.05-1.044.295-1.46a.716.716 0 00.094-.04c-.089.319-.25.698-.183.991zm-.601-1.368v.037l.002.008v.017l.003.002v.013l.002.006v.008l.003.003v.008l.002.002v.008l.003.003.01.032c-.203.202-.354.401-.654.831-.302.433-.78.45-.78.45.048-.35.14-.627.394-.923.253-.299.582-.57.821-.75a.43.43 0 00.245.034l.024-.002a.38.38 0 00-.063.126c-.182.108-.708.385-.922.829 0 0 .333-.108.91-.742zm-.378-.434l.02-.04a.216.216 0 01.021-.032c-.198.078-.896.35-1.123.47-.224.121-.553.396-.73.955 0 0 .472.043.863-.29.388-.331.842-.796 1.035-.944a.253.253 0 01-.045-.051s-.526.481-1.084.688c0 0 .12-.22.339-.384.268-.197.469-.262.704-.372zm-.399-.33l.003-.006.002-.008.003-.008.002-.005.003-.008.003-.008.002-.003v-.003l.003-.002.002-.006c-.232.051-.808.121-1.066.202-.258.08-.722.277-.998.82 0 0 .407.13 1.17-.241.767-.372 1.006-.45 1.152-.49a.52.52 0 01-.242-.075c-.305.14-.711.306-1.118.317 0 0 .2-.145.41-.237.229-.1.479-.188.669-.24zm.018-.393l.013.008.013.005.013.006.016.008.013.003.013.005.012.005.014.003.013.005.015.003.014.003.015.003.008.003h.007l.008.002h.016l.01.003h.008l.008.003a.66.66 0 00-.148.14c-.272.08-.73.167-1.489.223-.758.06-1.162-.086-1.162-.086a3.33 3.33 0 01.97-.392c.286-.057 1.034-.049 1.36-.097a.951.951 0 00.112.078c-.279.027-.865.054-1.17.21 0-.001.56.077 1.298-.144zm-.057-.449l.008-.006.007-.003.008-.005.008-.003.008-.005.008-.003.008-.005.01-.005.008-.003.008-.006.01-.003.01-.005.008-.005.01-.003.011-.005.01-.003c-.383-.118-.91-.312-1.701-.366-.582-.04-1.004-.005-1.22.054 0 0 .529.385 1.136.522.605.134 1.097.048 1.454.05.027-.037.053-.074.094-.118-.42.003-1.12-.107-1.37-.193 0 0 .61-.134 1.467.119zm0-.465v.006l.002.002v.005l.003.006v.008l.002.008.003.008.005.01.003.01.005.013.005.01.005.011.006.014.008.013.007.014.008.013.01.014.008.016.01.013.014.014.013.016.013.014.013.016.015.013.016.014.018.013.018.016.021.011.018.014.024.013.023.01c-.54-.241-1.603-.381-2.17-.629-.772-.328-.913-.742-.913-.742.667-.019 1.207.15 1.621.283.49.153 1.23.438 1.488.559a.523.523 0 00-.292.094 8.48 8.48 0 00-.862-.301c-.258-.075-.451-.089-.613-.105 0 0 .23.156.605.28.373.122.535.144.84.203zm-.042-.608l.002.002.003.005.003.006.002.003.003.005.003.005.002.006.005.005.003.005.002.006.005.008.003.005.008.014.01.01.008.014.008.01.002.009.006.005.002.006.005.005.003.005.005.006.003.005.003.006.002.002.003.006.002.002.003.006c-.852-.148-1.79-.813-2.08-1.227-.289-.411-.206-1.027-.206-1.027.282.059.892.602 1.048.766.159.162.638.643.97.912l.101.307a33.641 33.641 0 00-.829-.659c-.161-.126-.404-.301-.64-.387 0 0 .218.296.398.44.206.17.414.316.586.412.155.086.233.137.543.29z" fill="#0055A5"/><path d="M32.145 16.013l.005-.006.006-.005.002-.003.005-.005.006-.006.005-.002.002-.006.006-.002.002-.006.006-.005.002-.003.005-.005.003-.003.005-.005.003-.003.005-.006c.04.054.17.224.235.393.05.143.101.339.127.45.026.115.102.346.152.427 0 0-.209.03-.363-.159-.15-.18-.2-.363-.227-.551a2.182 2.182 0 01.008-.49zm-.328.028l.005.005.002.006.005.003.003.005.002.005.006.003.002.002.003.006.005.002.002.003.003.003.003.005.005.003.002.003h.003l.003.002.002.003.003.003.002.002h.003v.003h.003l.002.003h.003v.002h.002v.003h.003v.003l.031.013.029-.008c.026-.01.05-.021.07-.03a.802.802 0 01.053.202c.007.097.028.25-.008.377-.044.153-.133.245-.183.307 0 0-.135-.156-.174-.283a.743.743 0 01-.005-.446.737.737 0 01.11-.21zm-.467.013l.013-.003h.013l.01-.003.013-.002.024-.006.023-.005.024-.008.023-.005.021-.008.02-.008.019-.011.018-.008.021-.011.016-.008.018-.01.016-.012.015-.01.016-.011a.364.364 0 01.026.212.539.539 0 01-.18.283c-.14.115-.326.223-.534.188 0 0-.047-.159.365-.554zm-.156-.267l.002.014v.013l.003.011.002.014.003.01.003.011.002.014.003.01.005.011.003.008.002.011.006.01.002.009.005.008.003.008.003.008.005.008.002.008.003.006.005.005.003.008.003.006.002.002.003.006.002.005.003.003.003.003.002.002.003.003v.003h.002v.003c-.049.059-.224.368-.589.317 0 0-.099-.212.144-.38.164-.116.244-.137.357-.178zm.031-.267l-.018.006-.018.006-.02.002-.022.003-.02.003-.021.003h-.024l-.023.002h-.024l-.026-.002h-.023l-.013-.003h-.013l-.016-.003h-.013l-.012-.003-.014-.002-.013-.003-.015-.003-.013-.003-.016-.005-.041-.008-.014-.043c-.185.159-.409.185-.484.328 0 0 .093.178.336.145a.8.8 0 00.555-.314.44.44 0 01.025-.105zm-.42-.22l.006-.01.007-.011.006-.01.005-.014.008-.011.005-.013.008-.014.005-.014.008-.013.007-.016.006-.008.005-.005.003-.009.005-.008.005-.008.005-.005.005-.008.006-.008.008-.008.005-.008.008-.008.005-.006a1.17 1.17 0 00-.493.005c-.224.044-.453.097-.568.447 0 0 .143.13.407.073.218-.046.411-.146.523-.31zm-.096-.381l-.01-.011-.01-.008-.011-.01-.01-.011-.009-.011-.01-.014-.01-.01-.008-.011-.01-.014-.008-.013-.01-.014-.009-.014-.008-.016-.007-.013-.008-.016-.008-.017-.018-.043c-.193-.08-.396-.123-.594-.048-.198.078-.25.167-.3.242 0 0 .219.191.472.2.252.005.484-.07.586-.148zm.06-.412l.005-.003.008-.002.005-.003h.008l.005-.003.008-.003.005-.002.008-.003h.008l.008-.003.007-.003h.005l.008-.003.008-.002h.008l.008-.003a.727.727 0 01-.211-.377.925.925 0 01-.394-.013.483.483 0 00-.42.059s.047.255.37.344c.306.085.418.063.543.02zm-.117-.503l.042-.03c.005-.002.078-.048.203-.056-.104-.083-.355-.298-.53-.398-.19-.11-.507-.261-.672-.283 0 0 .154.412.329.579.185.172.312.237.628.188zm.325-.191l-.013-.019-.013-.021-.015-.022-.013-.021-.01-.025-.014-.024-.013-.024-.01-.027-.01-.027-.014-.027-.01-.027-.008-.03-.01-.029-.01-.03-.008-.032-.008-.03c-.04-.14-.123-.478-.172-.57-.05-.089-.23-.395-.579-.492 0 0-.091.4.084.723.15.275.46.566.846.754zm1.942 1.877l.01.009.008.008.008.008.008.005.008.008.007.006.008.008.008.005.008.006.01.008.006.003.005.003.005.002.005.006.005.003.006.002.008.003.005.005.005.003.008.003.007.005.006.003s.112.22-.024.484a6.694 6.694 0 00-.302.689s-.073-.01-.154-.428c-.054-.28-.122-.352-.195-.446.078.04.14.05.149.05l.052.014.026-.053a.58.58 0 00.06-.261c0-.027 0-.052-.003-.073a.258.258 0 00.219-.094c.002-.006.005-.006.005-.008l.013.015z" fill="#0055A5"/><path d="M29.948 12.506v.127l.007.1c-.208-.273-.456-.6-.69-.905a1.855 1.855 0 00-.451-.433c.13.385.36.692.521.842.162.153.396.412.626.57l.02.076a.973.973 0 00.081.215c.057.097.125.191.209.285a2.817 2.817 0 00-.22-.105l-.072-.032c-.628-.341-1.254-1.057-1.504-1.552-.253-.498-.149-1.073-.083-1.383.286.25.7.743.878 1.01.222.328.503.796.678 1.175v.01zm8.827 2.117l-.007-.006-.006-.003-.007-.005-.008-.003-.008-.005-.01-.003-.008-.005-.008-.005-.008-.003-.01-.006-.008-.003-.01-.005-.011-.005-.01-.003-.01-.005-.011-.003c.386-.118.912-.312 1.707-.366.581-.04.998-.005 1.217.054 0 0-.532.385-1.136.522-.605.134-1.098.048-1.457.05a.663.663 0 00-.092-.118c.42.003 1.118-.107 1.371-.193 0 0-.61-.134-1.47.119zm.003-.465v.006l-.003.002v.005l-.002.006-.003.008v.008l-.005.008-.002.01-.003.01-.005.013-.006.01-.005.011-.008.014-.005.013-.008.014-.008.013-.01.014-.01.016-.01.013-.011.014-.014.016-.012.014-.016.016-.016.013-.015.014-.016.013-.02.016-.019.011-.02.014-.022.013-.023.01c.54-.241 1.6-.381 2.174-.629.768-.328.91-.742.91-.742-.668-.019-1.21.15-1.624.283a16.78 16.78 0 00-1.488.559c.099.003.206.03.294.094a8.85 8.85 0 01.86-.301c.26-.075.45-.089.613-.105 0 0-.227.156-.602.28-.376.122-.538.144-.84.203zm.042-.608v.003l-.003.005-.003.006-.002.002-.006.006-.002.005-.003.005-.002.006-.006.005-.002.006-.008.013-.008.014-.01.01-.008.014-.008.01-.003.009-.005.005-.002.006-.005.005-.003.005-.005.006-.003.005-.003.005-.002.003-.003.006-.005.002-.002.006c.852-.148 1.79-.813 2.08-1.227.291-.411.208-1.027.208-1.027-.282.059-.892.602-1.05.766-.157.162-.636.643-.967.912l-.102.307c.281-.234.618-.495.826-.66.164-.125.401-.3.644-.386 0 0-.222.296-.399.44a4.17 4.17 0 01-.589.412c-.151.086-.232.137-.54.29zm-.206-1.044v.127l-.008.1c.206-.273.453-.6.688-.905.164-.207.3-.33.45-.433a2.141 2.141 0 01-.518.842c-.162.153-.396.412-.626.57l-.02.076a1.113 1.113 0 01-.084.215 1.8 1.8 0 01-.206.285c.065-.035.14-.072.219-.105l.07-.032c.629-.341 1.254-1.057 1.504-1.552.258-.498.151-1.073.084-1.383-.287.25-.699.743-.876 1.01a9.306 9.306 0 00-.678 1.175v.01zm-7.861 3.921l-.026.027-.026.027-.029.03-.028.032-.031.033-.032.034-.031.038-.031.038-.034.04-.034.04-.031.043-.034.043-.031.046-.034.049-.031.048-.031.048-.029.052-.029.05-.028.052-.026.053-.026.054-.021.057-.021.054-.021.059-.016.056-.015.057-.01.059-.011.06-.005.058-.003.062-.002.06.005.061s.505-.164.716-.548c.209-.382.337-.627.425-.713a.575.575 0 01-.166 0l-.047-.008c-.13.242-.386.64-.615.777 0 0-.058-.323.617-.974a.684.684 0 01.042-.088.526.526 0 01-.211.032m6.955-3.608l-.026.057-.029.054-.028.056-.034.06-.018.026-.019.03-.02.03-.021.029-.021.03-.024.03-.026.029-.026.03-.026.031-.028.03-.03.032-.03.033-.035.032-.033.032-.037.033-.039.035-.039.032-.041.035-.042.034-.044.038-.047.035-.05.038-.052.035-.052.037c-.13.092-.274.283-.164.55.11.268.313.645.19.793-.122.147-.558.223-.912.078 0 0-.076.23-.204.379 0 0 .063.126.266.062 0 0-.075.19.029.395 0 0 .237-.043.339-.269 0 0 .093.178.284.24 0 0 .158-.084.122-.407 0 0 .115.288.472.337 0 0 .203-.267-.063-.624 0 0 .19.174.537.091 0 0 .055-.183-.258-.436 0 0 .355-.016.49-.322 0 0-.151-.191-.518-.149 0 0 .341-.078.417-.497 0 0-.245-.162-.634.096 0 0 .068-.134.232-.268.162-.129.36-.503.292-1.052zm-1.423 4.237l.01-.013.008-.013.008-.014.01-.014.009-.013.007-.013.008-.01.008-.014.008-.014.005-.013.008-.014.005-.013.008-.01.005-.014.005-.014.005-.013c-.06.51-.08.855-.349 1.186 0 0-.161-.22-.057-.758a.467.467 0 00.143-.07s-.06.218-.023.438c0 0 .096-.073.17-.587zm.461-.053l.006-.003.002-.005.003-.005.003-.003.005-.005.002-.006.006-.005.002-.006.005-.005.003-.008.01-.01.008-.014.008-.014.01-.013.008-.013.008-.014.008-.013.008-.011.008-.013.005-.008.002-.006.003-.005.003-.005c.023.295.099 1.076-.154 1.32 0 0-.175-.132-.235-1.27.037.065.102.132.13.17 0 0-.041.36.084.616 0 0 .128-.1.05-.646zm.605.596l-.02-.024-.019-.03-.018-.032-.015-.035-.019-.035-.013-.037-.015-.04-.013-.041-.013-.043-.013-.043-.01-.043-.014-.046-.018-.089-.01-.043-.008-.043-.008-.043-.005-.04-.008-.04-.005-.04-.005-.038-.006-.035-.005-.032-.003-.03-.002-.03-.003-.024-.002-.01v-.012l-.003-.01v-.016l-.003-.006v-.021a.787.787 0 01-.088-.067c-.013-.011-.026-.02-.037-.033 0 .03 0 .06-.005.09.034.473.07.962.214 1.207.14.24.399.363.399.363.242-.447-.05-1.044-.297-1.46a.7.7 0 01-.092-.04c.086.319.248.698.183.991zm.602-1.368v.037l-.003.008v.017l-.002.002v.011l-.003.002v.011l-.002.003v.008l-.003.003v.01l-.002.003c-.003.005-.006.019-.01.032.202.202.354.401.653.831.3.433.78.45.78.45-.047-.35-.141-.627-.397-.923a5.359 5.359 0 00-.818-.75.43.43 0 01-.245.034l-.023-.002a.38.38 0 01.062.126c.18.108.71.385.923.829 0 0-.334-.108-.91-.742zm.378-.434l-.02-.04a.216.216 0 00-.022-.032c.196.078.894.35 1.121.47.227.121.553.396.73.955 0 0-.472.043-.86-.29-.389-.331-.842-.796-1.038-.944a.207.207 0 00.047-.051s.527.481 1.085.688c0 0-.12-.22-.342-.384-.266-.197-.467-.262-.7-.372zm.399-.33l-.003-.005-.002-.008-.003-.008-.005-.005-.003-.008-.002-.008-.003-.006-.003-.008c.23.051.808.121 1.066.202.256.08.722.277.999.82 0 0-.407.13-1.173-.242-.764-.37-1.004-.449-1.15-.49a.52.52 0 00.243-.074c.305.14.711.306 1.118.317 0 0-.2-.145-.412-.237a4.97 4.97 0 00-.667-.24zm-.019-.393l-.012.008-.013.005-.016.006-.013.008-.013.003-.013.005-.013.005-.013.003-.013.005-.016.003-.013.003-.016.003-.015.003-.008.002h-.018l-.008.003H38.5l-.01.003a.63.63 0 01.15.14c.27.08.728.167 1.486.223.759.06 1.163-.086 1.163-.086a3.328 3.328 0 00-.97-.392c-.284-.057-1.032-.049-1.36-.097a.648.648 0 01-.11.078c.277.027.866.054 1.168.21 0-.001-.558.077-1.295-.144z" fill="#0055A5"/><path d="M36.414 16.013l-.008-.011-.005-.003-.006-.005-.005-.006-.002-.002-.005-.006-.003-.002-.005-.006-.003-.005-.005-.003-.003-.005-.005-.003-.003-.005-.005-.003-.002-.006a1.722 1.722 0 00-.238.393 5.19 5.19 0 00-.125.45 2.361 2.361 0 01-.151.427s.206.03.36-.159a.98.98 0 00.227-.551 2.039 2.039 0 00-.008-.49zm.328.028l-.002.005-.006.006-.002.003-.003.005-.005.005-.003.003-.002.002-.005.006-.003.002-.003.003-.002.003-.006.005-.002.003-.003.003h-.002l-.003.002-.002.003-.003.003-.003.002h-.002l-.003.003h-.002l-.003.003-.003.002h-.002v.003h-.006v.003l-.026.013-.03-.008a.766.766 0 00-.071-.03.791.791 0 00-.05.202c-.01.097-.029.25.008.377.044.153.13.245.18.307 0 0 .138-.156.174-.283a.723.723 0 00.006-.446.612.612 0 00-.11-.21zm.47.013l-.013-.003h-.013l-.013-.003-.013-.002-.024-.006-.023-.005-.024-.008-.02-.005-.021-.008-.021-.008-.021-.011-.018-.008-.018-.011-.019-.008-.015-.01-.019-.012-.015-.01-.013-.011c-.018.048-.047.118-.026.212.02.097.086.207.18.283.138.115.325.223.531.188 0 0 .05-.159-.362-.554zm.156-.267l-.003.014-.002.013-.003.011v.014l-.002.01-.003.011-.005.014-.003.01-.002.011-.003.008-.005.011-.003.01-.003.009-.005.008-.002.008-.006.008-.002.008-.003.008-.005.006-.003.005-.002.008-.003.006-.005.002-.003.006-.002.005-.003.003v.003l-.002.002-.003.003v.003h-.003v.003c.047.059.224.368.59.317 0 0 .096-.212-.147-.38-.164-.116-.242-.137-.354-.178zm-.034-.267l.018.006.021.006.02.002.022.003.02.003.021.003h.024l.023.002h.023l.026-.002h.024l.026-.003.013-.003h.016l.013-.003.013-.002.013-.003.015-.003.013-.003.014-.005.041-.008.016-.043c.185.159.409.185.485.328 0 0-.094.178-.337.145a.8.8 0 01-.555-.314.811.811 0 00-.028-.105zm.422-.22l-.002-.005-.003-.005-.008-.011-.005-.01-.005-.014-.008-.011-.005-.013-.008-.014-.008-.014-.005-.013-.008-.016-.005-.008-.005-.005-.003-.009-.005-.008-.005-.008-.005-.005-.006-.008-.005-.008-.008-.008-.005-.008-.008-.008-.005-.006a1.17 1.17 0 01.492.005c.225.044.454.097.569.447 0 0-.146.13-.407.073-.219-.046-.414-.146-.524-.31zm.094-.381l.01-.011.01-.008.011-.01.01-.011.011-.011.01-.014.009-.01.01-.011.008-.014.01-.013.008-.014.008-.014.008-.016.007-.013.008-.016.008-.017.018-.043c.195-.08.396-.123.594-.048.199.078.25.167.3.242 0 0-.219.191-.47.2-.252.005-.486-.07-.588-.148zm-.057-.412l-.013-.005-.008-.003h-.005l-.008-.003-.005-.003-.008-.002-.008-.003h-.008l-.005-.003-.008-.003h-.008l-.007-.003-.008-.002h-.008l-.008-.003a.693.693 0 00.211-.377.937.937 0 00.397-.013.482.482 0 01.42.059s-.048.255-.373.344c-.303.085-.418.063-.54.02zm.114-.503l-.041-.03c-.005-.002-.078-.048-.201-.056.104-.083.352-.298.526-.398.193-.11.511-.261.673-.283 0 0-.151.412-.328.579-.183.172-.31.237-.629.188zm-.326-.191l.016-.019.013-.021.013-.022.013-.021.013-.025.013-.024.013-.024.01-.027.011-.027.013-.027.01-.027.011-.03.008-.029.01-.03.008-.032.01-.03c.034-.14.12-.478.17-.57.05-.089.23-.395.578-.492 0 0 .092.4-.083.723-.153.275-.464.566-.85.754zm-1.938 1.877l-.01.009-.009.008-.007.008-.008.005-.008.008-.008.006-.007.008-.008.005-.01.006-.011.008-.003.003-.005.003-.005.002-.005.006-.008.003-.005.002-.006.003-.005.005-.007.003-.006.003-.008.005-.007.003s-.11.22.023.484c.136.266.25.538.305.689 0 0 .073-.01.154-.428.054-.28.125-.352.195-.446a.515.515 0 01-.148.05l-.052.014-.026-.053a.555.555 0 01-.058-.334.254.254 0 01-.219-.094c-.003-.006-.003-.006-.008-.008l-.01.015z" fill="#0055A5"/><path d="M37.809 16.427l.026.027.026.027.028.03.029.032.031.033.029.034.034.038.03.038.035.04.031.04.034.043.034.043.031.046.032.049.034.048.028.048.031.052.029.05.028.052.026.053.024.054.023.057.021.054.018.059.019.056.013.057.013.059.01.06.005.058.003.062v.06l-.003.061s-.508-.164-.716-.548c-.209-.382-.337-.627-.425-.713a.576.576 0 00.167 0l.047-.008c.13.242.383.64.612.777 0 0 .06-.323-.615-.974a.486.486 0 00-.044-.088.539.539 0 00.214.032m-3.918-5.195v-.005l.003-.005.002-.003.003-.005.005-.003.005-.005.006-.003.007-.006.008-.002.008-.006.01-.002.01-.003.011-.006.013-.002.013-.003.013-.003.013-.003.013-.002.016-.003.016-.003.015-.003.018-.002.016-.003h.018l.019-.003.018-.003h.038l.019-.002h.059c.22 0 .397.04.397.088 0 .046-.177.087-.396.087-.219 0-.396-.04-.396-.085zm-1.347.472v-.003l.002-.003v-.002l.003-.003.002-.003.006-.002h.002l.005-.003.006-.003.005-.003h.005l.008-.002.008-.003.005-.003h.01l.008-.003h.008l.01-.002.01-.003h.008l.01-.003h.024l.01-.003h.024l.013-.003h.065c.138 0 .256.022.256.049 0 .027-.118.045-.256.045-.143.002-.257-.017-.257-.044zm1.822-.282v.017l-.002.003v.005l-.003.003v.006l-.003.002v.003l-.002.003-.003.006-.003.002-.002.003-.003.003-.002.003-.003.002-.002.003-.003.003-.003.003-.002.002h-.003l-.005.003-.003.003h-.002l-.006.003h-.008l-.002.002h-.013c-.042 0-.078-.035-.078-.083a.08.08 0 01.078-.078.077.077 0 01.078.076zm-.503-.275l-.013-.033-.01-.03-.014-.026-.01-.03-.01-.026-.011-.03-.013-.027-.008-.024-.01-.027-.01-.024-.009-.025-.01-.024-.008-.024-.008-.022-.007-.021-.008-.022-.008-.021-.005-.019-.005-.019-.008-.019-.006-.016-.005-.016-.002-.016-.005-.016-.003-.014-.003-.013-.002-.014-.003-.01-.002-.011v-.027c.002-.049.057-.084.11-.1.054-.016.098-.021.135.006.067.056.132.492.153.675a.593.593 0 00-.182.065zm.242-.071l.005-.003h.018l.013-.002h.039l.027-.003a5.363 5.363 0 00-.115-.579c-.034-.115-.078-.196-.151-.217 0 0 .057.158.088.322.032.165.052.326.076.482zm-.42.582l.016-.003.013-.005.013-.006.013-.005.013-.006.015-.008.013-.005.013-.008.013-.009.01-.008.014-.008.013-.008.01-.008.013-.008.01-.008.011-.01.01-.009.008-.008.01-.008.009-.005.008-.008.007-.008.008-.006.008-.008.005-.005.005-.003.003-.005.005-.006.003-.002h.002v-.003c-.234.035-.294.197-.294.197z" fill="#0055A5"/><path d="M33.896 11.643l-.02.01-.019.009-.018.01-.021.009-.018.008-.019.008-.02.005-.019.008-.018.005-.018.003-.018.006-.019.005-.015.003-.018.002-.016.003-.016.003h-.015l-.013.003h-.013l-.013.003h-.084a.634.634 0 01.212-.253.686.686 0 01.414-.108.562.562 0 01-.196.258zm-.045.109c-.15.073-.62.08-.873.094h-.163l-.02-.007h-.025l-.02-.006h-.02l-.02-.007-.019-.007h-.02l-.019-.006h-.02l-.02-.007H32.6l-.02-.006-.012-.007h-.013l-.013-.007-.013-.006h-.02l-.006-.007h-.007l-.013-.007h-.006c.028.57.404.605.404.605-.006-.045 0-.12 0-.12.117.112.358.194.358.194a.425.425 0 00-.026-.127c.102.061.163.06.163.06a.644.644 0 00-.059-.175c.07.094.157.101.157.101.015-.046-.013-.161-.013-.161.036.045.104.166.312.215.214.045.306-.08.306-.08-.203.013-.397-.19-.397-.19.11-.042.15-.12.15-.12-.065-.057-.13-.06-.13-.06a.285.285 0 00.15-.156zm-.716.215v.02s-.326.002-.34.168c-.051-.035-.077-.099-.09-.174 0 0 .232.013.43-.014zm-.716-.164l.002.024.003.022.002.024.003.022.003.024.005.021.005.022.005.021.005.022.006.021.005.02.008.018.005.019.008.019.008.016.008.016s-.149-.113-.185-.212c-.037-.1-.047-.165.104-.119zm-.437.111a.215.215 0 00-.163.094.326.326 0 00.11.43s.239-.214.528-.007c0 0 .064-.039.215-.074v-.006h-.006v-.007l-.007-.007-.006-.006h-.007v-.007l-.006-.007-.007-.006-.006-.007-.007-.007-.006-.006h-.007l-.007-.014h-.006l-.006-.013h-.007l-.006-.007-.013-.007-.007-.007-.006-.006-.013-.007-.007-.007-.006-.006-.013-.007h-.007l-.013-.007-.007-.006c-.088-.04-.27-.097-.325-.27a.509.509 0 00-.177-.013zm.136.228c.035 0 .066.032.066.068v.013h-.007v.013h-.006v.014h-.007v.007h-.006v.007h-.013v.007h-.014l-.006.006h-.007c-.033 0-.058-.032-.058-.067s.024-.067.058-.067zm.587.254l.003.002.003.003v.003h.002l.003.005.002.003.005.005.003.008.005.006.005.005.006.008.005.008.008.006.005.008.008.008.005.01.008.009.016.016.013.016.015.019.008.008.008.008.008.008.007.008.008.005.008.009.008.005.008.008s-.391-.005-.488.344c0 0-.133-.215-.036-.352.104-.149.203-.17.341-.2z" fill="#0055A5"/><path d="M33.133 12.479l.002.003h.006l.002.002h.008l.005.003.006.003h.005l.008.003.005.002h.008l.005.003.008.003.013.003.013.005.016.002.005.003.007.003.006.003h.007l.005.003.006.002h.005l.005.003h.005l.006.003s0-.075-.003-.11c.04.008.084.021.125.027 0 0 .125.285.224.4 0 0 .005.068-.05.162 0 0-.072-.167-.197-.307a1.49 1.49 0 00-.266-.224zm-.331-.059h.002l.006.003h.007l.006.002.008.003.007.003.01.003.009.002.01.006.01.002.01.003.014.005.01.003.013.006.01.005.014.005.026.011.026.01.026.012.023.01.013.009.013.005.01.005.014.008.01.006.01.005.01.008.009.005c.122.092.206.194.193.374 0 0-.097-.142-.207-.207a1.179 1.179 0 01-.322-.312zm.002-1.307h.008l.003.003h.013l.005.003h.008l.005.003h.006l.002.002h.005l.005.003.006.003.002.003.005.003.003.002.005.003.003.003.005.003.003.002.002.003.003.006.002.002.003.006.003.002v.006l.002.003v.008l.003.003v.008c0 .062-.094.21-.12.274-.026-.064-.117-.212-.117-.274 0-.062.07-.08.106-.08h.021v-.003zm-.08.481l-.003-.01-.002-.009v-.01l-.003-.011-.003-.01-.002-.012-.003-.013v-.011l-.002-.013-.003-.014-.005-.027-.008-.027-.005-.03-.006-.026-.005-.014-.002-.013-.003-.01-.005-.014-.003-.011-.005-.011-.002-.01-.006-.011-.005-.011-.002-.008-.006-.008-.005-.009-.005-.005-.003-.005a.227.227 0 00-.159-.049.07.07 0 00-.06.092c.016.05.178.301.199.33.036-.004.028-.004.122-.01zm.14 0l.003-.01.003-.009v-.01l.002-.011.003-.01.002-.012.003-.013.002-.011.003-.013.003-.014.005-.027.005-.027.005-.03.008-.026.003-.014.002-.013.006-.01.002-.014.005-.011.003-.011.005-.01.003-.011.005-.011.002-.008.006-.008.005-.009.005-.005.003-.005a.223.223 0 01.159-.049c.036.003.073.04.06.092a3.166 3.166 0 01-.199.33c-.036-.004-.03-.004-.122-.01zm.104-.782h-.125v-.143h-.101v.143h-.125v.091h.125v.167h.101v-.167h.125v-.091zm-1.518.922v-.039l.002-.012v-.018l.002-.006v-.005a.705.705 0 00.003-.18c-.091.035-.154.059-.276.266 0 0 .198-.127.268-.006zm.171.33v-.005l.003-.008v-.019l.003-.008v-.008l.002-.01.003-.009v-.01l.002-.009.003-.01v-.011l.003-.01.002-.014.003-.011.005-.022.005-.024.008-.024.005-.024.008-.025.008-.024.008-.024.002-.011.006-.01c.052-.14.018-.345-.042-.466a.684.684 0 01-.081-.358s-.117.04-.185.084c-.01.145.07.288.11.368.044.097.036.22.026.299a.61.61 0 00.093.403zm.013-1.1v-.008h-.003v-.044l.003-.003v-.013l.003-.003v-.006l.002-.002s.185-.186.339-.218a.214.214 0 01.19.048s-.057-.005-.138.065c-.084.067-.185.153-.266.175-.075.02-.093.014-.13.01zm.548-.231l.013.014.013.014.013.013.01.013.013.014.01.014.003.005.005.008.006.005.005.008.002.008.006.006.002.008.006.005.002.006.003.008.002.005.003.008.003.006.002.008.003.005v.008l.002.005v.019a.96.96 0 01-.12.304c-.039.065-.096.15-.09.253.002.054.038.108.08.15 0 0-.227-.056-.253-.198-.026-.13.027-.22.063-.293.034-.068.14-.224.164-.288.026-.06.037-.108.029-.14zm1.323 1.625l.008.03.01.032.011.03.01.03.011.029.013.03.013.03.013.026.013.027.013.03.013.026.013.025.016.027.013.024.013.024.015.021a.81.81 0 01.105.356s.101-.234.05-.398a.637.637 0 00-.353-.399zm.253.054h.021l.005.003h.029l.008.003h.016l.01.003h.008l.01.002h.008l.01.003.01.003.008.002.011.003h.008l.01.006.008.002.01.003.008.003.008.005.008.003.008.005.007.003a.602.602 0 01.217.369s-.16-.027-.235-.108a.934.934 0 01-.21-.313zm-.803.29h-.015l-.005.003h-.008l-.005.002h-.011l-.005.003-.01.003-.01.003h-.011l-.01.003-.011.002-.01.003-.006.003h-.005l-.005.003h-.005l-.003.002h-.01l-.003.003s.133.04.198.095a.419.419 0 01.128.247c.034.175.133.363.161.42l.014-.003c-.021-.121.052-.369.072-.403 0 0-.107-.07-.153-.14-.037-.053-.097-.139-.272-.249zm.689.374l.005.008.003.008.005.011.005.011.005.008.003.011.005.014.008.01.005.011.005.014.01.024.011.024.003.014.005.013.005.016.003.014.005.013.003.014.002.016.003.013.003.017.002.016v.045l-.002.017v.013l-.003.016-.003.016-.005.016c-.047.17-.151.242-.219.385 0 0-.052-.258-.041-.457.012-.203.083-.278.169-.35zm.299.005v.003l.003.003v.002l.002.003v.003l.003.003.002.002v.006l.003.005.005.008.005.01.006.014.007.014.006.013.008.016.007.014.008.016.005.019.008.016.008.016.01.019.016.038.013.035.008.018.008.016.008.017.005.019.005.016.005.013.005.016.006.014.002.014.005.01a.31.31 0 01-.052.272c-.052.073-.14.153-.224.304 0 0-.094-.13-.107-.196a.96.96 0 01.029-.299c.02-.067.102-.289.172-.512zm.078.987l-.002.003h-.003v.003l-.002.002-.003.003-.003.006-.007.005-.006.008-.007.008-.008.011-.008.008-.008.01-.008.012-.01.013-.01.011-.008.013-.01.011-.021.027-.019.024-.01.014-.008.013-.01.014-.008.01-.008.014-.008.01-.008.011-.007.011-.008.01-.005.012-.006.008-.002.008-.003.005-.002.003v.003l-.003.002c-.023.068-.065.189-.01.275.06.086.185.223.297.282 0 0-.12-.196-.11-.358.008-.104.086-.196.102-.258a.5.5 0 00-.04-.267zm-.354-.124l.002.003.003.006.003.002.002.006.005.005.003.005.003.006.002.005.003.008.005.006.003.008.002.005.003.008.002.006.008.016.005.016.006.016.005.016.005.017.005.016v.01l.003.009.003.008v.018l.002.009a.699.699 0 01-.057.304c-.06.169-.157.36-.201.446 0 0-.086-.126-.133-.237 0 0 .133-.188.188-.32.068-.157.094-.302.12-.423zm-.06-.074v.003l-.003.003v.016l-.002.01-.003.011-.002.017-.003.016-.005.019-.003.018-.005.022-.005.024-.008.024-.005.025-.008.027-.008.029-.01.027-.008.03-.01.032-.014.03-.01.031-.013.033-.013.032-.016.032-.015.033-.019.032-.015.032-.021.035-.019.032-.02.03-.021.032-.024.032c-.169.22-.307.299-.398.299-.138 0-.277-.121-.323-.256-.047-.134-.032-.347.057-.42 0 0 .083.264.258.275.2.01.456-.22.714-.667z" fill="#0055A5"/><path d="M33.4 13.687l.003.008v.008l.003.008v.008l.005.016.003.019v.019l.002.018.003.02v.061l-.002.022-.003.021v.022l-.006.022-.002.021-.005.022a.448.448 0 01-.17.263.249.249 0 01-.362-.129s.365.03.532-.45zm.598 1.773l.005.012.005.013.008.014.005.013.008.014.008.013.01.014.008.013.018.027.018.027.021.027.018.027.019.027.01.01.008.014.008.014.008.013.007.01.008.014.005.01.006.014.005.011.005.011.003.01.002.011v.011l.003.009c-.005.274-.123.44-.148.532 0 0-.212-.175-.248-.374-.02-.103 0-.41.167-.56zm-.237.195l.003-.007.002-.009.003-.008.005-.008.003-.01.005-.009.003-.01.005-.011.005-.01.005-.014.005-.01.006-.012.01-.024.013-.024.013-.027.013-.024.008-.011.005-.01.008-.012.008-.01.008-.011.007-.01.008-.012.008-.008.008-.008.008-.008.007-.008.008-.008s.117-.35-.253-.565c0 0-.153.207-.192.406-.042.197.161.315.255.492zm-.464-.887l-.013.016-.013.013-.01.016-.014.017-.013.013-.013.016-.015.016-.013.014-.013.013-.013.016-.008.006-.008.005-.005.008-.008.006-.005.005-.008.005-.005.006-.008.003-.005.005-.008.005-.005.003-.008.003s-.023.156-.008.26c.018.154.115.313.156.431 0 0 .162-.22.18-.35.019-.129.016-.234.021-.296 0 0-.089-.15-.138-.255zm-.43.753l-.005-.007-.006-.009-.005-.01-.005-.009-.008-.013-.005-.01-.008-.014-.008-.014-.008-.016-.008-.014-.007-.016-.008-.018-.008-.017-.008-.019-.01-.016-.008-.019-.016-.037-.015-.04-.013-.04-.006-.02-.007-.018-.005-.022-.006-.019-.002-.019-.006-.021-.002-.02-.003-.018v-.019l-.002-.019s.184.103.338.027c0 0 .019.253-.01.336-.023.07-.055.111-.13.17zm.042.054l.005-.003.003-.002.002-.006.005-.002.003-.003.005-.003.003-.005.005-.003.005-.006.003-.002.01-.011.008-.008.01-.011.011-.008.008-.011.01-.008.005-.006.003-.002.005-.006.005-.005.003-.003.003-.005.005-.003.002-.005.003-.003.003-.005s.122.23.143.298c0 0-.06.014-.128-.035a.86.86 0 01-.148-.128zm.565-.137l-.002.002v.003l-.003.005v.003l-.003.006-.002.002-.003.006-.003.005-.005.011-.005.01-.008.014-.008.01-.008.014-.007.017-.01.013-.009.016-.01.014-.01.016-.021.03-.021.032-.01.013-.011.017-.008.013-.01.013-.01.014-.008.014-.008.01-.01.011-.006.01-.008.009-.002.003-.003.005-.002.003-.003.003-.003.002-.002.003-.003.003-.002.003s.015.102.088.247c.073.148.175.25.23.301 0 0 .12-.218.156-.312a.407.407 0 00.018-.26c-.042-.096-.182-.233-.245-.354zm.295.738l.002.01.005.009.005.01.006.008.007.011.006.011.008.008.005.01.008.012.007.013.016.022.013.024.016.021.016.024.015.025.013.024.005.013.008.011.005.013.006.011.005.01.005.014.003.011.002.014.005.01v.011a.439.439 0 01-.02.231c-.026.062-.105.186-.157.28 0 0-.18-.175-.219-.298a.46.46 0 01.026-.312c.042-.084.136-.173.178-.261zm-.509-.025l.006.011.005.01.005.009.005.01.006.011.005.008.013.02.013.02.013.02.016.019.012.018.014.02.013.018.012.019.006.008.005.01.005.009.005.01.006.008.005.008.002.011.006.008.002.008.003.011a.406.406 0 01-.01.302c-.047.11-.1.174-.118.241 0 0-.146-.193-.172-.274a.579.579 0 01-.002-.298 3.45 3.45 0 01.12-.275zm.717.742v.002h-.002v.003l-.003.003-.003.002-.002.003-.003.003-.002.005-.003.003-.005.005-.003.005-.005.006-.008.01-.008.014-.01.014-.01.013-.011.016-.01.016-.014.017-.01.018-.013.02-.01.018-.013.019-.01.018-.011.022-.01.019-.01.019-.011.021-.008.019-.008.019-.008.021-.005.02-.008.018-.002.016-.003.019-.003.008v.024c.008.207.141.342.16.47 0 0 .132-.152.182-.255.054-.118.099-.215.083-.346-.016-.132-.05-.216-.18-.347zm-.461-.032l.002.006.006.008.005.008.005.008.005.008.005.01.006.012.005.01.008.011.005.01.005.014.008.01.005.014.005.014.01.027.006.016.005.013.005.014.006.013.002.016.005.014.003.013.003.014.002.016.003.013v.051l-.003.014-.002.01c-.032.122-.157.29-.199.366 0 0-.098-.21-.12-.306-.02-.097-.002-.253.199-.447zm2.507-5.159v-.003l-.002-.003v-.002l-.003-.003-.003-.003-.002-.002h-.005l-.006-.003-.005-.003-.005-.003h-.005l-.008-.002-.005-.003-.008-.003h-.008l-.01-.003h-.008l-.01-.002-.008-.003h-.01l-.011-.003h-.02l-.014-.003h-.023l-.01-.003h-.066c-.14 0-.255.022-.255.049 0 .027.114.045.255.045.14.002.255-.017.255-.044zm-1.741-.81l.003-.01.002-.014.003-.014.002-.013.006-.014.005-.013.005-.016.005-.017.005-.016.006-.016.013-.032.013-.035.013-.035.013-.032.013-.035.005-.017.008-.016.005-.016.003-.016.005-.013.005-.017.002-.013.003-.014.003-.013.002-.014v-.021a.154.154 0 00-.15-.156.154.154 0 00-.152.156c0 .11.133.363.148.481h.006v.001zm.423.253l.012-.033.014-.03.01-.026.013-.03.01-.026.01-.03.011-.027.01-.024.011-.027.008-.024.01-.025.008-.024.01-.024.009-.022.007-.021.008-.022.005-.021.008-.019.006-.019.005-.019.005-.016.005-.016.005-.016.003-.016.005-.014.003-.013.002-.014v-.01l.003-.011v-.027c0-.049-.057-.084-.107-.1-.057-.016-.102-.021-.138.006-.068.056-.13.492-.157.675.068.013.11.024.186.065zm-.241-.071l-.008-.003h-.018l-.013-.002h-.039l-.013-.003h-.01c.02-.175.078-.463.112-.579.036-.115.078-.196.151-.217 0 0-.054.158-.086.322a8.777 8.777 0 00-.076.482zm.123.386h.003v.003h.003v.002h.002l.003.006.005.005.005.003.006.005.007.008.005.006.008.008.008.008.01.005.008.008.01.008.011.008.01.011.011.008.013.008.01.008.014.008.01.008.013.008.013.009.013.008.013.005.013.008.013.006.016.005.013.005.013.006.013.003s-.06-.162-.295-.197z" fill="#0055A5"/><path d="M34.467 11.385h.016l.01-.003h.031l.011.003h.026l.013.002h.013l.013.003.013.003h.016l.013.003.015.002.013.006.016.003.016.002.013.006.015.005.016.003.013.005.016.006.016.005.012.008.013.005.016.009.013.008.013.005.01.01.013.009c.128.091.17.169.214.252 0 0-.23.02-.43-.102a.55.55 0 01-.198-.258z" fill="#0055A5"/><path d="M34.711 11.752s.026.098.144.155c0 0-.064.004-.124.06 0 0 .039.078.143.121 0 0-.192.202-.397.188 0 0 .095.127.306.081.211-.048.274-.17.313-.215 0 0-.026.115-.013.161 0 0 .09-.006.162-.1 0 0-.054.093-.065.174 0 0 .059.001.163-.06 0 0-.024.057-.026.127 0 0 .245-.082.365-.195v.087l-.007.007v.027s.376-.035.404-.606c0 0-.246.095-.502.081-.25-.012-.717-.02-.866-.093zm.71.215c.199.027.437.014.437.014v.013h-.006v.014l-.007.013v.014l-.006.006v.014l-.007.006v.014h-.006v.006l-.007.007v.007l-.006.006-.007.007v.007H35.8l-.007.006v.007h-.007l-.006.007v.006h-.007l-.006.007-.007.007c-.012-.167-.338-.168-.338-.168v-.02zm.722-.164l-.002.024-.003.022-.003.024-.002.022-.006.024-.002.021-.005.022-.006.021-.005.022-.005.021-.008.02-.005.018-.008.019-.005.019-.008.016-.008.016s.149-.113.185-.212c.037-.1.045-.165-.104-.119zm.315.111l-.014.007h-.012l-.014.006h-.012c-.055.173-.242.23-.333.27-.096.048-.189.16-.189.16a.94.94 0 01.222.075.421.421 0 01.528.006c.156-.094.188-.314.11-.43l-.013-.013-.006-.014-.007-.006-.013-.007-.006-.007-.013-.007-.007-.006-.012-.007-.013-.007-.007-.006h-.013l-.013-.007h-.013l-.006-.006h-.144zm-.02.229h.019v.006h.013v.007h.007l.006.007v.006h.007v.007h.006v.027l.007.006c0 .035-.032.068-.066.068-.033 0-.058-.033-.058-.068 0-.034.025-.066.06-.066zm-.582.253h-.002v.002h-.003v.003l-.002.003-.003.005-.005.003-.003.005-.005.008-.005.006-.003.005-.007.008-.006.008-.005.006-.008.008-.005.008-.008.01-.005.009-.016.016-.015.016-.013.019-.008.008-.008.008-.008.008-.007.008-.008.005-.008.009-.008.005-.008.008s.389-.005.488.344c0 0 .133-.215.036-.352-.104-.149-.203-.17-.342-.2z" fill="#0055A5"/><path d="M35.429 12.479h-.003v.003h-.007v.002h-.011l-.002.003-.006.003h-.008l-.005.003-.005.002h-.008l-.005.003-.008.003-.013.003-.016.005-.013.002-.007.003-.005.003-.008.003h-.005l-.008.003-.005.002h-.006l-.005.003h-.005l-.003.003s-.002-.075.003-.11c-.04.008-.086.021-.128.027 0 0-.122.285-.221.4 0 0-.006.068.05.162 0 0 .07-.167.197-.307a1.48 1.48 0 01.266-.224zm.331-.059h-.006l-.005.003h-.005l-.008.002-.008.003-.007.003-.008.003-.01.002-.011.006-.01.002-.011.003-.01.005-.014.003-.01.006-.013.005-.013.005-.026.011-.026.01-.023.012-.027.01-.013.009-.01.005-.013.005-.01.008-.01.006-.011.005-.01.008-.009.005c-.122.092-.206.194-.195.374 0 0 .099-.142.209-.207.085-.048.242-.188.323-.312zm-.003-1.307h-.008l-.003.003h-.013l-.005.003h-.008l-.005.003h-.005l-.002.002h-.006l-.005.003-.005.003-.003.003-.005.003-.003.002-.005.003-.003.003-.005.003-.002.002-.003.003-.002.006-.003.002-.003.006-.002.002v.006l-.003.003v.008l-.002.003v.008c0 .062.093.21.12.274.025-.064.117-.212.117-.274 0-.062-.071-.08-.11-.08h-.018v-.003zm.081.481l.003-.01v-.009l.002-.01.003-.011v-.01l.003-.012.002-.013.003-.011.002-.013.003-.014.005-.027.005-.027.006-.03.008-.026.002-.014.005-.013.003-.01.002-.014.006-.011.002-.011.006-.01.005-.011.003-.011.005-.008.005-.008.002-.009.006-.005.005-.005a.22.22 0 01.159-.049c.037.003.073.04.06.092a3.183 3.183 0 01-.198.33c-.037-.004-.032-.004-.123-.01zm-.143 0v-.01l-.003-.009-.002-.01-.003-.011v-.01l-.003-.012-.002-.013-.003-.011-.002-.013-.003-.014-.005-.027-.005-.027-.008-.03-.005-.026-.006-.014-.002-.013-.003-.01-.005-.014-.002-.011-.006-.011-.002-.01-.006-.011-.005-.011-.002-.008-.006-.008-.005-.009-.002-.005-.006-.005a.217.217 0 00-.159-.049.07.07 0 00-.057.092c.013.05.175.301.198.33.036-.004.029-.004.12-.01zm-.102-.782h.123v-.143h.104v.143h.125v.091h-.125v.167h-.104v-.167h-.123v-.091zm-1.509-.847h.128v-.143h.099v.143h.127v.091h-.127v.167h-.1v-.167h-.127v-.091zm3.029 1.769v-.018l-.003-.011v-.032l-.003-.003v-.016a.61.61 0 01-.005-.18c.092.035.154.059.276.266 0 0-.198-.127-.265-.006z" fill="#0055A5"/><path d="M36.94 12.064l-.002-.005v-.019l-.002-.008v-.008l-.003-.008v-.01l-.003-.009v-.01l-.002-.009-.003-.01-.002-.011-.003-.01-.003-.014-.002-.011-.005-.022-.006-.024-.005-.024-.008-.024-.005-.025-.008-.024-.007-.024-.003-.011-.005-.01a.679.679 0 01.039-.466.638.638 0 00.08-.358s.12.04.185.084c.01.145-.07.288-.106.368a.524.524 0 00-.026.299.611.611 0 01-.094.403zm-.012-1.1v-.054l-.003-.003v-.014l-.003-.003v-.005s-.187-.186-.341-.218a.2.2 0 00-.185.048s.052-.005.136.065c.083.067.185.153.263.175.078.02.093.014.133.01zm-.55-.231l-.014.014-.012.014-.01.013-.014.013-.01.014-.01.014-.006.005-.005.008-.005.005-.003.008-.005.008-.005.006-.003.008-.003.005-.005.006-.003.008-.002.005-.003.008-.002.006v.008l-.003.005-.003.008v.024c0 .068.079.24.118.304.039.065.101.15.094.253a.268.268 0 01-.081.15s.226-.056.252-.198c.026-.13-.028-.22-.065-.293-.034-.068-.138-.224-.164-.288-.023-.06-.036-.108-.028-.14zm-1.322 1.625l-.01.03-.01.032-.008.03-.013.03-.01.029-.011.03-.013.03-.013.026-.013.027-.013.03-.013.026-.016.025-.013.027-.013.024-.016.024-.013.021a.722.722 0 00-.104.356s-.104-.234-.052-.398a.642.642 0 01.354-.399zm-.256.054h-.017l-.005.003h-.028l-.008.003h-.019l-.008.003h-.01l-.008.002h-.01l-.009.003-.01.003-.01.002-.008.003h-.01l-.011.006-.008.002-.008.003-.01.003-.008.005-.008.003-.008.005-.007.003a.6.6 0 00-.214.369s.156-.027.235-.108a.942.942 0 00.208-.313zm.806.29h.018l.003.003h.008l.005.002h.01l.006.003h.005l.005.003.01.003h.01l.011.003.01.002.011.003.005.003h.005l.006.003h.005l.003.002h.007l.005.003s-.132.04-.2.095a.405.405 0 00-.125.247 1.615 1.615 0 01-.164.42l-.01-.003c.017-.121-.056-.369-.074-.403 0 0 .104-.07.154-.14a.805.805 0 01.271-.249zm-.688.374l-.005.008-.002.008-.006.011-.005.011-.005.008-.005.011-.005.014-.006.01-.005.011-.005.014-.01.024-.011.024-.005.014-.005.013-.006.016-.002.014-.005.013-.003.014-.003.016-.002.013-.003.017-.002.016v.075l.002.016.005.016.003.016c.05.17.156.242.224.385 0 0 .052-.258.039-.457-.01-.203-.08-.278-.167-.35zm-.636.471v-.008l.003-.01.005-.011.002-.014.008-.01.005-.014.008-.014.008-.013.008-.017.007-.013.01-.016.011-.016.01-.016.008-.017.021-.032.021-.032.01-.016.01-.02.009-.015.01-.017.008-.016.008-.016.007-.016.006-.013.005-.016.005-.014.003-.016.002-.013v-.024c-.013-.13-.177-.221-.219-.24h-.002c-.042.019-.209.11-.22.24-.01.128.212.368.217.464h.006v.001zm.336-.466l-.002.003v.005l-.003.003-.003.003v.003l-.002.002-.003.006-.002.005-.003.008-.005.01-.008.014-.005.014-.008.013-.005.016-.008.014-.008.016-.008.019-.008.016-.007.016-.008.019-.016.038-.015.035-.008.018-.005.016-.008.017-.005.019-.008.016-.005.013-.006.016-.002.014-.005.014-.003.01a.31.31 0 00.05.272c.054.073.143.153.224.304 0 0 .096-.13.106-.196a.891.891 0 00-.028-.299c-.019-.068-.1-.289-.17-.512zm-.336 1.198l.013-.014.013-.013.013-.014.01-.013.013-.014.011-.013.013-.014.01-.016.008-.013.01-.014.003-.008.005-.005.006-.008.002-.006.003-.008.005-.005.002-.006.003-.008.003-.005.002-.006.003-.005.002-.005c.019-.057.024-.138-.023-.2-.055-.072-.125-.155-.13-.222h-.006c-.002.067-.073.15-.13.223-.047.061-.042.142-.02.199.02.053.083.148.153.212h.003zm.258-.211l.003.003.002.003.003.002.002.003.003.006.005.005.005.008.008.008.008.011.008.008.008.01.01.012.008.013.01.011.01.013.008.011.021.027.019.024.01.014.01.013.008.014.008.01.01.014.008.01.008.011.005.011.008.01.005.012.005.008.006.008.002.005v.003l.003.003v.002c.026.068.065.189.01.275a.958.958 0 01-.297.282s.123-.196.11-.358c-.008-.104-.084-.196-.1-.258a.451.451 0 01.04-.267zm.352-.124l-.003.003-.002.006-.003.002-.003.006-.002.005-.005.005-.003.006-.003.005-.002.008-.003.006-.005.008-.002.005-.003.008-.003.006-.008.016-.005.016-.005.016-.005.016-.005.017-.006.016-.002.01v.009l-.003.008v.008l-.002.01v.009a.71.71 0 00.06.304c.06.169.153.36.2.446 0 0 .084-.126.13-.237 0 0-.133-.188-.19-.32-.065-.157-.091-.302-.117-.423zm.063-.074v.006l.002.008v.008l.003.01.002.011.003.017.002.016.003.019.005.018.006.022.005.024.005.024.008.025.008.027.007.029.008.027.01.03.011.032.01.03.013.031.014.033.012.032.016.032.016.033.015.032.018.032.019.035.02.032.022.03.02.032.024.032c.17.22.307.299.399.299.138 0 .276-.121.323-.256.044-.134.031-.347-.058-.42 0 0-.083.264-.26.275-.198.01-.456-.22-.711-.667z" fill="#0055A5"/><path d="M35.16 13.687l-.002.008-.003.008v.008l-.002.008-.003.008v.008l-.003.02-.002.018-.003.019v.102l.003.022.002.021.003.022.005.021.005.022a.43.43 0 00.17.263.246.246 0 00.36-.129s-.365.03-.53-.45zm-.88 1.307l.01-.005.008-.006.01-.003.008-.005.01-.005.008-.006.005-.002.006-.006.005-.003.002-.002.006-.006.005-.003.005-.005.005-.003.006-.005.005-.005.002-.006.005-.005.006-.006.005-.008.005-.005.005-.008.006-.006.005-.008.005-.008.008-.01a.47.47 0 00.065-.304c-.032-.119-.097-.167-.133-.242-.029.03-.047.05-.086.075h-.003c-.036-.024-.057-.046-.088-.075-.04.075-.1.123-.13.242a.449.449 0 00.065.303c.057.098.101.114.154.141zm0 .74l.002-.01.005-.012.005-.013.005-.014.008-.013.008-.014.008-.013.01-.014.01-.016.011-.016.01-.014.01-.016.022-.032.023-.032.021-.033.01-.016.01-.016.011-.016.008-.013.008-.017.008-.016.007-.013.005-.016.006-.014.005-.013.003-.014v-.035c-.034-.185-.149-.148-.238-.223h-.002c-.089.075-.206.037-.237.223-.023.12.211.345.237.46zm.281-.274l-.002.012-.008.013-.006.014-.007.013-.008.014-.008.013-.008.014-.008.013-.018.027-.02.027-.019.027-.02.027-.019.027-.007.01-.01.014-.009.014-.008.013-.007.01-.005.014-.008.01-.005.014-.006.011-.002.011-.003.01-.003.011-.002.011v.009c.005.274.12.44.146.532 0 0 .214-.175.25-.374.02-.103-.003-.41-.17-.56zm.239.195l-.002-.007-.002-.009-.003-.008-.005-.008-.003-.01-.005-.009-.003-.01-.005-.011-.005-.01-.005-.014-.006-.01-.005-.012-.01-.024-.013-.024-.013-.027-.013-.024-.008-.011-.008-.01-.008-.012-.007-.01-.008-.011-.008-.01-.008-.012-.008-.008-.008-.008-.007-.008-.008-.008-.01-.008s-.115-.35.255-.565c0 0 .154.207.196.406.04.197-.162.315-.256.492zm.464-.887l.01.016.014.013.013.016.013.017.013.013.013.016.013.016.013.014.016.013.013.016.005.006.008.005.007.008.006.006.007.005.006.005.008.006.005.003.007.005.006.005.007.003.006.003s.023.156.01.26c-.018.154-.117.313-.156.431 0 0-.164-.22-.18-.35-.021-.129-.018-.234-.023-.296 0 0 .09-.15.14-.255zm.428.753l.005-.007.006-.009.005-.01.008-.009.005-.013.007-.01.008-.014.006-.014.007-.016.008-.014.008-.016.01-.018.008-.017.008-.019.008-.016.008-.019.015-.037.016-.04.013-.04.008-.02.005-.018.005-.022.005-.019.005-.019.003-.021.003-.02.002-.018v-.038s-.182.103-.333.027c0 0-.021.253.008.336.023.07.057.111.13.17zm-.042.054l-.002-.003-.003-.002-.005-.006-.002-.002-.006-.003-.002-.003-.006-.005-.002-.003-.005-.006-.005-.002-.003-.006-.005-.005-.01-.008-.011-.011-.008-.008-.01-.011-.008-.008-.005-.006-.005-.002-.003-.006-.005-.005-.006-.003-.002-.005-.003-.003-.005-.005-.003-.003-.002-.005s-.12.23-.141.298c0 0 .06.014.125-.035a.79.79 0 00.148-.128zm-.563-.137l.003.002v.003l.003.005v.003l.002.006.003.002v.006l.003.005.005.011.008.01.005.014.008.01.007.014.01.017.009.013.01.016.01.014.008.016.021.03.021.032.01.013.01.017.011.013.008.013.01.014.008.014.01.01.008.011.008.01.006.009.002.003.005.005.003.003.003.003.002.002v.003l.003.003.002.003s-.015.102-.086.247c-.075.148-.174.25-.229.301 0 0-.12-.218-.156-.312-.042-.11-.04-.22-.019-.26.04-.096.18-.233.245-.354zm-.805 1.67l.003-.008.002-.008.003-.008.002-.008.006-.006.002-.008.005-.008.006-.008.005-.008.005-.008.008-.011.005-.008.013-.016.013-.02.013-.018.016-.019.013-.021.013-.022.008-.01.005-.011.008-.011.005-.01.005-.012.005-.013.005-.01.006-.014a.335.335 0 00-.006-.237c-.033-.072-.161-.255-.177-.306-.016.051-.14.234-.177.306a.323.323 0 00-.003.237c.047.135.16.226.177.304h.006zm.508-.932l-.002.01-.005.009-.006.01-.005.008-.005.011-.008.011-.005.008-.008.01-.008.012-.007.013-.014.022-.015.024-.016.021-.015.024-.014.025-.012.024-.008.013-.006.011-.005.013-.008.011-.002.01-.005.014-.005.011-.003.014-.003.01-.002.011a.468.468 0 00.02.231c.027.062.105.186.157.28 0 0 .18-.175.219-.298a.46.46 0 00-.024-.312c-.044-.084-.138-.173-.18-.261zm.511-.025l-.005.011-.005.01-.005.009-.005.01-.006.011-.005.008-.013.02-.013.02-.016.02-.013.019-.015.018-.013.02-.013.018-.013.019-.005.008-.006.01-.005.009-.005.01-.005.008-.005.008-.003.011-.003.008-.005.008-.002.011a.406.406 0 00.013.302c.044.11.099.174.117.241 0 0 .146-.193.17-.274a.528.528 0 00.002-.298 2.843 2.843 0 00-.118-.275zM34.28 18.6l.002-.01.003-.01.003-.012.005-.013.005-.013.005-.014.005-.016.008-.019.008-.016.008-.019.008-.018.007-.022.01-.021.008-.022.01-.021.009-.025.01-.021.01-.024.008-.027.008-.024.01-.027.009-.027.007-.027.008-.027.008-.027.005-.027.005-.03.006-.026.005-.03.003-.03.002-.026v-.03c.008-.156-.13-.403-.206-.495h-.005c-.076.092-.209.34-.206.495.01.309.2.605.209.702zm.304-1.707v.002h.003v.003l.002.003.003.002.003.003.002.003.003.005.002.003.006.005.002.005.003.006.01.01.008.014.01.014.01.013.011.016.01.016.014.017.01.018.01.02.014.018.01.019.013.018.01.022.01.019.011.019.008.021.01.019.008.019.008.021.005.02.005.018.006.016.002.019v.032c-.005.207-.138.342-.159.47 0 0-.13-.152-.18-.255-.057-.118-.101-.215-.083-.346.013-.132.047-.216.18-.347zm.462-.032l-.005.006-.003.008-.005.008-.005.008-.005.008-.006.01-.005.012-.008.01-.005.011-.005.01-.005.014-.008.01-.005.014-.005.014-.014.027-.005.016-.005.013-.005.014-.003.013-.005.016-.002.014-.006.013-.002.014-.003.016v.013l-.002.014v.023l.002.014v.014l.005.01c.029.122.154.29.196.366 0 0 .099-.21.122-.306.021-.097.003-.253-.198-.447z" fill="#0055A5"/><path d="M34.452 19.101l.002-.021.003-.022.003-.021.002-.022.005-.021.003-.02.005-.018.005-.02.008-.018.005-.019.006-.016.008-.019.007-.016.006-.016.015-.032.013-.03.016-.03.013-.026.013-.027.005-.014.005-.013.005-.014.006-.013.005-.01.002-.014.003-.01.003-.012a.538.538 0 00-.089-.433 4.192 4.192 0 01-.248.667l-.007.014c0-.006-.003-.009-.006-.014a3.932 3.932 0 01-.25-.667.548.548 0 00-.088.433c.023.124.156.272.172.514.015.245-.25.336-.25.336.09.033.192.049.354-.11a.332.332 0 00.068-.094.478.478 0 00.067.094c.164.159.266.143.355.11 0 0-.264-.091-.25-.336zm-.837-1.616l.003.008.005.011.002.008.003.011.005.01.005.011.003.011.005.011.008.022.01.021.01.024.009.022.01.024.005.011.003.01.005.009.005.01.003.011.002.008.006.011.002.008.003.008.002.006.003.008.003.005v.008l.002.003c.021.097-.008.215-.177.339 0 0-.11-.081-.154-.186-.041-.097-.015-.167.026-.215.042-.054.144-.17.183-.248zm.36.361v.019l-.003.01v.019l-.002.014v.01l-.003.014-.002.013-.003.017-.003.016-.002.016-.003.016-.002.016-.003.016-.008.035-.008.035-.01.038-.005.016-.003.016-.008.019-.005.016-.005.016-.005.016-.008.016-.005.013-.008.014-.005.013c-.107.191-.264.337-.402.337-.125 0-.15-.078-.216-.11 0 0 .031-.167.175-.21.174-.057.442-.272.552-.476z" fill="#0055A5"/><path d="M33.519 18.195l-.006-.005-.005-.003-.01-.008-.005-.006-.006-.002-.008-.006-.005-.002-.005-.006-.005-.005-.003-.003-.002-.003-.003-.002-.003-.003-.005-.002-.003-.003-.002-.003-.003-.003-.002-.005-.006-.003-.002-.002-.003-.006s-.133.051-.247.13c-.11.078-.22.21-.277.276 0 0 .164.044.271-.005 0 0 .04-.164.157-.237.028-.016.11-.043.188-.083zm-.141-.14l-.003-.003-.003-.005-.002-.003-.003-.005-.002-.006-.003-.005-.003-.005-.002-.006-.003-.005-.005-.006-.003-.008-.002-.005-.003-.005-.003-.008-.002-.008-.003-.006-.005-.008-.003-.008v-.008l-.002-.008-.003-.008-.002-.008-.003-.011v-.008l-.002-.008v-.021l-.003-.009v-.021l.003-.01v-.012s-.235.154-.306.21c-.07.06-.216.215-.25.267 0 0 .178-.04.316-.087.148-.05.25-.12.305-.153zm-.397.26l-.01.006-.013.002-.016.006-.013.005-.015.003-.016.005-.018.003-.016.005-.018.006-.018.002-.037.008-.036.011-.04.008-.036.008-.039.008-.036.009-.016.002-.018.005-.016.003-.018.005-.015.003-.013.003-.016.005-.013.003-.013.003-.01.005a.651.651 0 00-.318.226s.172.049.266.08c0 0 .148-.104.31-.166.106-.043.155-.159.267-.272zm-.262.865l.005-.006.005-.005.005-.008.005-.005.003-.003.003-.005.002-.003.003-.003v-.005l.002-.003.003-.006.003-.002v-.006l.002-.002v-.011l.003-.003v-.032l-.003-.005v-.006l-.002-.008v-.005l-.003-.008c-.018-.051-.123-.11-.185-.14-.102-.051-.383-.13-.474-.159 0 0-.047.057-.07.116-.014.024.002.046.041.051.081.016.269-.021.316.01.049.033.03.079.03.122 0 0 .087-.054.142-.04.075.016.122.053.164.18zm-.251-.405h.006l.002.003h.003l.005.003h.005l.005.002.005.003h.006l.005.003.008.002.005.003.008.003.008.003.008.002.007.006.008.002.008.003.01.005.008.003.01.006.008.005.01.003.01.005.009.006.01.005.01.005.011.006.008.005.01.008.01.005.011.006s.047-.019.07-.065c.024-.043.12-.19.21-.21 0 0-.077-.005-.12-.021 0 0-.09.024-.157.054a1.149 1.149 0 00-.24.131zm.728-.185h-.003l-.005.002-.003.003h-.005l-.003.003h-.005l-.003.003h-.005l-.002.002h-.008l-.003.003h-.008l-.002.003h-.013l-.006.002h-.015l-.005.003h-.019s-.247.177-.276.352c-.026.154.052.226.089.245.039.022.21.092.323-.145 0 0-.19.065-.245-.03-.05-.096.034-.236.086-.274a.39.39 0 01.268-.075s-.062-.06-.132-.097z" fill="#0055A5"/><path d="M31.572 20.622l.01-.049.013-.048.013-.051.005-.024.008-.024.008-.025.008-.027.008-.024.007-.024.01-.024.009-.024.01-.025.01-.024c.112-.245.389-.898.962-1.011.052-.013-.063-.15-.115-.143-.052.006-.153.076-.198.105 0 0 0-.14-.003-.164 0-.024-.02-.035-.044-.035-.02.003-.161 0-.203.054-.133.156-.352.576-.477.888-.125.312-.211.409-.344.36-.13-.048-.209-.204-.44-.156a.464.464 0 00-.238.154c.021.037.044.086.151.086s.316.045.428.126c.115.083.235.112.402.129zm2.288-2.023l.002.018.003.02.005.018.005.019.005.018.008.02.006.015.007.02.008.018.008.02.008.018.01.016.008.019.01.019.008.019.01.018s-.171.831-.805.893c0 0 .013-.172.199-.3.187-.133.469-.337.448-.646 0 0-.052.01-.141.126s-.287.452-.589.455c0 0 .044-.16.18-.248.133-.091.305-.207.383-.347a.544.544 0 01.214-.228zm-.3 3.028l.386.557.292-.535-.105-.194c-.075.143-.159.293-.203.38-.034-.054-.13-.194-.258-.38l-.112.172z" fill="#0055A5"/><path d="M33.464 21.156l-.07-.102-.073-.105-.073-.105-.073-.105-.073-.105-.07-.102-.035-.048-.034-.049-.033-.048-.032-.046-.031-.046-.029-.043-.028-.043-.03-.04-.025-.037-.026-.036-.024-.034-.02-.03-.021-.03-.019-.026-.015-.025-.013-.021-.013-.016-.01-.017-.008-.01-.006-.008.146-.108-.458-.18.007.514.157-.116.922 1.34.11-.173zm-3.159-3.037l.01-.01.013-.012.01-.008.014-.008.013-.005.013-.005.012-.003.014-.003.013-.003h.015l.014.003h.015l.016.005.015.003.016.005.016.006.015.008.019.008.015.008.019.008.015.011.019.01.018.014.016.01.018.014.018.014.018.016.018.013.019.016.015.016.018.017.018.016c.193.182.316.37.204.5-.105.116-.308.016-.498-.167-.195-.183-.315-.37-.203-.497z" fill="#0055A5"/><path d="M30.617 20.378l-.002-.002-.002-.003-.003-.003h-.003v-.002h-.002v-.003h-.003v-.003h-.003a.532.532 0 01-.161-.393c0-.3.237-.546.526-.546.292 0 .53.245.53.546 0 .04-.009.105-.009.105.024-.045.113-.252.128-.29a.676.676 0 00-.649-.508.674.674 0 00-.604.39c.041-.275.174-.522.268-.614a.674.674 0 01.305-.145c-.128.019-.29-.06-.477-.234-.175-.167-.264-.312-.271-.433a.952.952 0 01-.04.41c-.065.187-.24.537-.177.933.034.218.185.54.444.804a.414.414 0 01.08.193s.376 0 .467.008c0 0 .089-.008.083-.067 0-.057-.049-.07-.09-.07-.048 0-.236.003-.335-.073zm2.081.132l-.045.017-.047.016-.044.014-.044.013-.047.014-.044.013-.044.01-.045.011-.047.011-.044.008-.044.008-.044.008-.086.016-.089.014a2.157 2.157 0 01-.433.027.138.138 0 01-.01.078s.026.032.026.072c.143.003.292-.002.44-.03.25-.04.514-.09.777-.193l-.086-.126zm.395-.018l.06-.035.06-.038.06-.04.06-.043.057-.045.06-.049.057-.051.06-.054.058-.056.054-.062.057-.062.055-.067.058-.073.054-.073.052-.078.029-.04.026-.043.05-.086c-.076.035-.175.01-.175.01a.233.233 0 01-.026.038c-.26.401-.553.657-.853.824l.087.123zm-2.116.139h-.026l-.008-.002h-.085l-.019.002h-.02l-.019.003h-.02l-.019.003h-.018l-.01.003h-.008l-.008.002h-.008c-.094.014-.198.035-.211.086-.008.051.023.105.07.18.031.046.1.022.136.006.039-.016.258-.135.292-.175.033-.038.047-.094-.019-.108zm.223.152l-.003-.003-.003-.003h-.003l-.002-.002h-.003l-.003-.003-.002-.003h-.005l-.003-.002h-.005l-.003-.003h-.005l-.003-.002h-.01l-.003-.003h-.01l-.005-.003h-.037l-.005.003h-.005l-.005.003h-.006l-.005.002h-.005c-.06.024-.274.156-.29.215-.012.062.016.095.05.108a.405.405 0 00.104.03.173.173 0 00.133-.065c.027-.035.126-.159.141-.189.013-.024.024-.067 0-.08zm.025.134l-.002.003-.003.005-.005.003-.003.005-.005.006-.005.005-.003.006-.005.005-.005.005-.005.008-.005.006-.006.005-.007.013-.01.014-.006.005-.005.008-.005.006-.006.005-.002.005-.006.006-.005.005-.002.006-.006.005-.002.005-.003.003-.003.006-.002.002v.003H31.1v.003l-.003.002c-.01.017.006.046.032.04a.641.641 0 00.26-.077c.084-.06.141-.172.084-.215-.06-.044-.149-.022-.248.088zm.047-.331h-.005l-.006-.002h-.008l-.005-.003h-.005l-.005-.003h-.011l-.007-.002h-.006l-.005-.003h-.021l-.005-.003h-.036l-.005.003h-.006l-.005.003h-.005v.002h-.005l-.003.003-.002.003h-.003v.002h-.003v.003c-.03.048-.01.097.079.14.086.043.247.078.278.032.031-.046-.01-.123-.195-.175zm3.672-3.101l-.003.008-.005.011-.002.008-.003.011-.005.01-.003.011-.005.011-.005.011-.008.022-.01.021-.008.024-.01.022-.011.024-.005.011-.003.01-.005.009-.006.01-.002.011-.005.008-.003.011-.003.008-.002.008-.003.006-.002.008-.003.005-.003.008v.003c-.018.097.008.215.178.339 0 0 .112-.081.153-.186.042-.097.016-.167-.023-.215-.044-.054-.143-.17-.185-.248zm-.36.361l.003.005v.033l.003.01v.014l.002.01.003.014v.013l.002.017.003.016.003.016.002.016.006.016.002.016.008.035.008.035.008.038.005.016.005.016.005.019.005.016.008.016.006.016.005.016.008.013.007.014.006.013c.107.191.26.337.401.337.125 0 .154-.078.214-.11 0 0-.032-.167-.175-.21-.175-.057-.443-.272-.553-.476z" fill="#0055A5"/><path d="M35.04 18.195l.008-.005.005-.003.01-.008.006-.006.005-.002.006-.006.005-.002.005-.006.005-.005.003-.003.002-.003.003-.002.005-.003.003-.002.002-.003.003-.003.002-.003.003-.005.005-.003.003-.002.002-.006s.136.051.248.13c.11.078.219.21.279.276 0 0-.167.044-.274-.005 0 0-.039-.164-.156-.237-.026-.016-.11-.043-.188-.083zm.141-.14l.003-.003.002-.005.003-.003.003-.005.002-.006.003-.005.002-.005.006-.006.002-.005.003-.006.002-.008.003-.005.005-.005.003-.008.002-.008.003-.006.003-.008.002-.008.003-.008.002-.008.003-.008.002-.008v-.011l.003-.008v-.008l.003-.01v-.021l.002-.01v-.011l-.002-.01v-.012s.234.154.304.21c.068.06.217.215.248.267 0 0-.177-.04-.313-.087-.148-.05-.252-.12-.307-.153zm.397.26l.013.006.012.002.014.006.015.005.016.003.015.005.016.003.018.005.016.006.018.002.037.008.039.011.036.008.04.008.036.008.037.009.018.002.018.005.016.003.015.005.016.003.016.003.013.005.013.003.013.003.013.005a.676.676 0 01.318.226s-.175.049-.266.08c0 0-.148-.104-.313-.166-.107-.043-.156-.159-.268-.272zm.262.865l-.005-.006-.005-.005-.005-.008-.005-.005-.003-.003-.002-.005-.003-.003-.003-.003v-.005l-.002-.003-.003-.006-.002-.002v-.006l-.003-.002v-.011l-.003-.003v-.032l.003-.005v-.006l.003-.008.002-.005v-.008c.021-.051.123-.11.185-.14.104-.051.386-.13.477-.159 0 0 .044.057.07.116.008.024-.005.046-.044.051-.078.016-.268-.021-.312.01-.05.033-.034.079-.034.122 0 0-.086-.054-.14-.04-.077.016-.121.053-.165.18zm.253-.405h-.005l-.002.003h-.006l-.002.003h-.005l-.006.002-.005.003h-.005l-.008.003-.005.002-.008.003-.005.003-.008.003-.008.002-.007.006-.01.002-.009.003-.008.005-.01.003-.008.006-.01.005-.008.003-.01.005-.01.006-.011.005-.008.005-.01.006-.01.005-.011.008-.01.005-.011.006s-.047-.019-.07-.065c-.024-.043-.12-.19-.206-.21 0 0 .073-.005.117-.021a1.231 1.231 0 01.398.186zm-.727-.185h.003l.002.002h.003l.003.003h.002l.003.003h.005l.002.003h.006l.002.002h.008l.003.003h.008l.005.003h.01l.005.002h.016l.005.003h.019s.25.177.278.352c.024.154-.052.226-.09.245-.037.022-.21.092-.324-.145 0 0 .19.065.245-.03.052-.096-.031-.236-.086-.274a.383.383 0 00-.266-.075s.06-.06.133-.097z" fill="#0055A5"/><path d="M36.99 20.622l-.013-.049-.01-.048-.014-.051-.007-.024-.008-.024-.005-.025-.008-.027-.008-.024-.01-.024-.008-.024-.01-.024-.011-.025-.01-.024c-.11-.245-.386-.898-.96-1.011-.054-.013.06-.15.113-.143.052.006.153.076.2.105v-.164c.003-.024.024-.035.045-.035.023.003.161 0 .206.054.13.156.352.576.474.888.128.312.214.409.344.36.13-.048.209-.204.44-.156.081.016.17.073.238.154-.019.037-.042.086-.152.086a.89.89 0 00-.427.126c-.115.083-.235.112-.4.129zm-2.288-2.023l-.005.018-.003.02-.005.018-.005.019-.005.018-.006.02-.007.015-.008.02-.005.018-.01.02-.008.018-.008.016-.01.019-.009.019-.02.038s.174.83.807.893c0 0-.013-.173-.2-.302-.188-.132-.467-.336-.446-.645 0 0 .047.01.138.126.089.116.287.452.592.455 0 0-.044-.159-.18-.248-.136-.091-.305-.207-.383-.347a.561.561 0 00-.214-.228zm-.42.806l.002.011.006.013.005.014.008.013.008.016.01.016.008.02.013.018.01.019.01.019.014.018.013.022.013.021.015.022.029.04.029.043.028.04.016.022.015.02.013.018.016.019.013.019.013.016.013.016.013.016.013.014.013.01.01.014.01.008c.103.1.358.363.496.495 0 0-.388-.1-.607-.304 0 0-.154.091-.266.091h-.008c-.112 0-.268-.091-.268-.091-.217.205-.605.304-.605.304.136-.132.391-.396.495-.495.105-.097.344-.447.381-.557h.003z" fill="#0055A5"/><path d="M34.282 20.328h.016l.007-.002h.024l.015-.003.016-.003.013-.006.016-.002.013-.006.015-.002.013-.006.01-.005.014-.003.005-.002.005-.003.006-.003.005-.002.005-.003h.005l.005-.003.006-.003c-.047.097-.133.256-.214.318h-.003c-.083-.062-.17-.22-.216-.317a.528.528 0 00.214.056h.005z" fill="#0055A5"/><path d="M34.613 22.184l1.517-2.195.154.116.01-.514-.458.18.143.108a600.58 600.58 0 01-1.35 1.955l-.685-1.286-.087.132-.61.955-.153-.105v.506l.464-.189-.157-.11c.086-.129.415-.645.527-.817l.685 1.264z" fill="#0055A5"/><path d="M34.892 21.32l-.04-.06-.02-.029-.018-.03-.018-.026-.019-.03-.018-.027-.016-.027-.018-.027-.015-.024-.008-.01-.008-.014-.005-.01-.008-.012-.008-.01-.005-.011-.008-.01-.005-.01-.005-.01-.008-.008-.005-.008-.005-.008a21.24 21.24 0 01-.201.377l-.11-.2.297-.548.084.132.305.473-.115.167zm.313.143l.107.172.153-.105.003.506-.464-.189.154-.11-.07-.11.117-.164zm3.052-3.344l-.01-.01-.013-.012-.01-.008-.014-.008-.013-.005-.013-.005-.013-.003-.013-.003-.013-.003h-.016l-.013.003h-.015l-.016.005-.016.003-.015.005-.016.006-.018.008-.016.008-.015.008-.019.008-.015.011-.018.01-.019.014-.018.01-.015.014-.019.014-.018.016-.018.013-.018.016-.019.016-.018.017-.018.016c-.195.182-.315.37-.2.5.104.116.302.016.497-.167.192-.183.315-.37.203-.497z" fill="#0055A5"/><path d="M37.941 20.378l.003-.002h.002v-.003h.003v-.003h.003v-.002h.002l.003-.003h.002v-.003h.003a.53.53 0 00.159-.393.536.536 0 00-.53-.546.538.538 0 00-.526.546c0 .04.008.105.008.105-.02-.045-.11-.252-.128-.29a.676.676 0 01.647-.508.67.67 0 01.607.39c-.042-.275-.174-.522-.268-.614-.112-.11-.303-.145-.303-.145.125.019.29-.06.475-.234.174-.167.265-.312.27-.433a.948.948 0 00.042.41c.066.187.238.537.178.933-.034.218-.188.54-.443.804a.366.366 0 00-.081.193s-.378 0-.464.008c0 0-.091-.008-.089-.067 0-.057.052-.07.094-.07.047 0 .232.003.331-.073zm-2.476.114l-.06-.035-.06-.038-.06-.04-.057-.043-.06-.045-.06-.049-.057-.051-.057-.054-.057-.056-.058-.062-.057-.062-.055-.067-.054-.073-.055-.073-.054-.078-.026-.04-.03-.043-.049-.086c.079.035.175.01.175.01.008.009.018.03.023.038.266.401.558.657.855.821l-.087.126zm.396.018l.045.017.047.016.044.014.047.013.044.014.044.013.047.01.044.011.045.011.044.008.044.008.044.008.09.016.085.014c.149.024.295.032.433.027 0 .024 0 .054.01.078 0 0-.023.032-.023.072a2.278 2.278 0 01-.443-.03 3.826 3.826 0 01-.78-.193l.09-.126zm1.72.121h.029l.008-.002h.084l.02.002h.019l.02.003h.019l.02.003h.019l.009.003h.01l.008.002h.008c.09.014.195.035.208.086.01.051-.023.105-.07.18-.03.046-.097.022-.136.006a1.76 1.76 0 01-.292-.175c-.034-.038-.047-.094.018-.108zm-.219.152l.003-.003v-.003h.003l.005-.002h.003l.002-.003.003-.003h.002l.005-.002h.003l.005-.003h.003l.005-.002h.008l.005-.003h.008l.005-.003h.037l.005.003h.005l.006.003h.005l.005.002h.005c.06.024.274.156.29.215.013.062-.016.095-.048.108a.453.453 0 01-.107.03.163.163 0 01-.13-.065 1.996 1.996 0 01-.14-.189c-.016-.024-.024-.067 0-.08zm-.028.134l.002.003.006.005.002.003.003.005.005.006.005.005.003.006.005.005.005.005.006.008.005.006.005.005.01.013.011.014.01.013.003.006.005.005.006.005.005.006.002.005.005.006.003.005.005.005.003.003.003.006.002.002.003.003v.003l.002.002c.008.017-.007.046-.033.04a.623.623 0 01-.259-.077c-.086-.06-.14-.172-.083-.215.057-.044.148-.022.245.088zm-.047-.331h.008l.003-.002h.008l.005-.003h.005l.005-.003h.011l.008-.002h.005l.007-.003h.019l.005-.003h.036l.005.003h.006l.005.003h.005l.003.002h.005v.003h.003l.002.003.003.002.003.003c.028.048.007.097-.079.14-.086.043-.25.078-.281.032-.032-.046.013-.123.195-.175z" fill="#0055A5"/></g><defs><clipPath id="clip0"><path fill="#fff" transform="translate(7 7)" d="M0 0h36v18H0z"/></clipPath></defs></svg>