<svg width="50" height="32" fill="none" xmlns="http://www.w3.org/2000/svg"><rect width="50" height="32" rx="3" fill="#F9F9F9"/><g clip-path="url(#clip0)"><path d="M13 15.997h11.627V4H13v11.998zM36.652 4.002H25.375V16H37V4.002h-.348z" fill="#0055A5"/><path d="M26.071 15.28h10.23V4.72h-10.23v10.56zm-12.006-4.705v2.502h.4v-.726c.078.07.164.111.256.111.132 0 .24-.071.326-.215.095-.16.143-.395.143-.704 0-.215-.038-.408-.113-.573l-.013-.027-.013-.023-.009-.022-.013-.018-.013-.022-.017-.023-.013-.018-.013-.018-.018-.018-.013-.017-.017-.018-.018-.014-.017-.018-.017-.013-.018-.014-.017-.013-.022-.01-.017-.013-.018-.008-.021-.01-.022-.008-.022-.01-.021-.008-.022-.005-.022-.004-.021-.005-.026-.009h-.022l-.026-.004h-.022l-.026-.005h-.443zm.378.354h.039c.1 0 .179.06.234.175.056.115.083.293.083.538a.71.71 0 01-.052.31c-.035.071-.08.107-.13.107-.049 0-.089-.034-.122-.099a.597.597 0 01-.052-.273v-.758zm9.024-.475l-.033.034-.899.968v-.882h-.39v2.507h.39v-1.03l.57-.623.058 1.653h.4l-.096-2.627zm-1.907.034l-.001.004-.004.002-.003.005-.006.005-.007.008-.007.007-.008.009-.009.009-.01.01-.01.013-.013.013-.012.012-.012.014-.014.015-.016.016-.031.034-.033.036-.035.038-.036.039-.038.041-.04.041-.04.043-.04.045-.082.088-.04.043-.04.041-.038.042-.036.04-.037.039-.033.035-.031.034-.016.017-.014.016-.014.014-.012.014-.012.013-.01.013-.01.01-.011.011-.009.01-.007.007-.007.007-.005.007-.005.003-.004.006v-.882h-.392v2.507h.392v-1.03l.57-.624.058 1.653h.397l-.095-2.627-.032.034zm-2.272 1.97l-.024-.03-.021-.03-.021-.035-.018-.034-.017-.036-.016-.035-.015-.038-.012-.038-.01-.04-.011-.04-.009-.043-.007-.043-.005-.045-.004-.045-.002-.047-.001-.046c0-.264.062-.474.184-.628.134-.169.328-.253.582-.253h.02v-.437h-.02c-.396 0-.7.125-.907.378-.188.228-.283.545-.283.943 0 .384.104.701.307.94.216.25.513.38.888.38h.02v-.44h-.02c-.246 0-.44-.085-.578-.258zm-3.143-1.945c-.21 0-.377.123-.5.363-.117.237-.177.551-.177.937 0 .398.056.72.17.955.114.24.285.363.507.363.228 0 .408-.13.535-.381.118-.235.178-.553.178-.942 0-.383-.061-.697-.183-.932l-.013-.023-.013-.022-.009-.022-.017-.018-.009-.018-.017-.018-.013-.018-.013-.018-.013-.018-.018-.018-.013-.013-.017-.014-.013-.013-.018-.014-.013-.013-.017-.014-.017-.009-.018-.009-.017-.009-.017-.008-.018-.01-.017-.009-.018-.004-.021-.01-.018-.004-.021-.004-.018-.004h-.017l-.022-.005-.021-.004h-.044zm0 .403c.112 0 .193.082.244.247.048.149.07.366.07.645a2.3 2.3 0 01-.079.668l-.009.018-.004.014-.004.013-.005.014-.004.013-.009.014-.004.013-.009.01-.004.013-.009.009-.004.013-.004.01-.009.008-.009.009-.004.009-.009.004-.004.01-.009.008-.008.005-.01.008-.008.005-.009.004-.004.005-.009.004h-.008l-.01.005-.008.004h-.009l-.008.005h-.031c-.095 0-.168-.085-.221-.251a2.22 2.22 0 01-.083-.66c0-.267.027-.487.083-.654.05-.16.124-.242.221-.242zm1.636 1.542l-.01-.014-.012-.016-.023-.03-.019-.035-.02-.034-.017-.036-.015-.035-.014-.038-.014-.038-.01-.04-.01-.04-.008-.043-.007-.043-.005-.045-.003-.045-.004-.047v-.046c0-.264.061-.474.184-.628.133-.169.327-.253.58-.253h.022v-.437h-.021c-.395 0-.7.125-.905.378-.19.228-.284.545-.284.943 0 .384.103.701.308.94.214.25.512.38.888.38h.019v-.44h-.02c-.248 0-.442-.085-.58-.258zm-3.713-5.561v2.52h.45V7.315h.556v2.102h.449v-2.52h-1.455zm2.833-.065c-.238 0-.429.124-.564.368-.134.238-.2.554-.2.941 0 .4.062.727.19.964.131.242.324.363.574.363.256 0 .457-.126.6-.38.133-.238.204-.558.204-.947 0-.387-.073-.705-.209-.941l-.013-.023-.013-.022-.013-.022-.017-.018-.013-.023-.018-.018-.013-.017-.017-.018-.018-.018-.013-.014-.017-.018-.017-.013-.018-.014-.017-.013-.022-.014-.017-.009-.017-.013-.018-.01-.022-.008-.017-.01-.022-.008-.021-.01-.018-.004-.021-.009-.022-.004-.022-.005-.021-.004-.022-.005h-.048l-.022-.004h-.026zm.005.426c.121 0 .207.08.265.242.052.147.078.362.078.641 0 .267-.03.49-.091.66-.06.164-.141.241-.252.241h-.04l-.008-.004-.009-.004h-.009l-.009-.005-.008-.004-.009-.005-.009-.004-.008-.005-.01-.009-.008-.004-.009-.01-.008-.004-.005-.009-.008-.008-.01-.01-.004-.009-.008-.009-.009-.013-.004-.01-.009-.008-.004-.014-.009-.013-.004-.01-.005-.017-.008-.014-.005-.013-.004-.014-.009-.013a2.018 2.018 0 01-.09-.655c0-.267.03-.485.09-.65.058-.159.14-.237.249-.237zm3.245-.361v.418h.374v2.102h.45V7.315h.379v-.418H20.15zm-.985.877h-.245c-.1 0-.177-.023-.224-.07-.035-.032-.05-.077-.05-.134v-.673h-.45v.72a.54.54 0 00.19.417c.122.11.275.165.45.165h.33v1.218h.45v-2.52h-.45v.877zM21.94 6.9l-.083 2.52h.447l.044-1.234h.56l.13 1.233h.452l-.208-1.842V7.51l-.005-.023v-.022l-.004-.018v-.023l-.004-.017-.005-.023-.004-.018-.004-.018-.005-.018-.004-.018-.009-.018-.004-.017-.004-.018-.01-.018-.008-.014-.009-.018-.004-.013-.009-.018-.008-.014-.013-.013-.01-.018-.008-.01-.013-.017-.009-.009-.013-.014-.013-.013-.013-.01-.009-.013-.017-.013c-.113-.092-.266-.135-.46-.135h-.665zm.43.417h.16c.117 0 .195.038.243.112.04.06.067.177.083.34h-.5v-.071l.005-.014v-.179l.004-.018v-.13l.004-.01v-.029z" fill="#fff"/><path d="M28.896 7.879l.016.038.02.035.018.038.023.04.012.017.014.02.012.02.014.02.016.02.015.019.016.02.017.02.02.021.018.02.02.021.02.022.023.021.023.022.024.021.026.024.026.021.028.023.028.024.03.025.032.023.032.025.034.023.035.026c.085.06.183.188.11.365-.073.18-.209.43-.127.53.081.098.37.148.606.051 0 0 .05.155.137.253 0 0-.041.084-.177.041 0 0 .05.128-.019.264 0 0-.158-.029-.228-.18 0 0-.062.119-.189.16 0 0-.104-.055-.082-.27 0 0-.076.191-.312.224 0 0-.136-.178.041-.416 0 0-.128.116-.358.06 0 0-.038-.121.172-.29 0 0-.236-.01-.326-.215 0 0 .099-.127.344-.099 0 0-.228-.052-.278-.332 0 0 .163-.107.424.065 0 0-.045-.09-.155-.18-.11-.085-.242-.334-.195-.7zm.949 2.823l-.007-.009-.005-.009-.007-.009-.005-.009-.005-.008-.006-.01-.005-.007-.005-.008-.005-.01-.005-.009-.004-.009-.005-.008-.004-.008-.005-.008-.003-.01-.004-.008c.042.34.056.57.233.79 0 0 .11-.147.038-.505a.355.355 0 01-.096-.047s.042.145.016.292c0 0-.064-.048-.11-.39zm-.309-.035l-.002-.002-.002-.003-.001-.004-.004-.002-.001-.003-.004-.004-.002-.003-.003-.004-.002-.004-.003-.005-.006-.007-.005-.01-.007-.008-.005-.009-.005-.009-.007-.009-.005-.009-.005-.007-.006-.009-.001-.005-.002-.004-.004-.003-.001-.004c-.016.197-.066.717.104.88 0 0 .115-.087.156-.846-.024.043-.068.088-.088.113 0 0 .027.24-.056.41 0 0-.084-.066-.033-.43zm-.402.398l.012-.016.012-.02.013-.021.012-.023.01-.024.01-.025.01-.027.01-.027.009-.028.008-.03.007-.028.007-.03.014-.06.005-.028.007-.029.005-.028.004-.027.005-.027.004-.027.003-.025.004-.024.003-.021.002-.02.002-.02.002-.016.001-.007V10.4l.002-.007v-.011l.002-.003v-.015a.674.674 0 00.059-.045l.024-.021c0 .02 0 .04.002.06-.021.315-.046.641-.141.804a.69.69 0 01-.266.242c-.161-.297.033-.695.196-.973a.468.468 0 00.063-.027c-.06.213-.167.466-.122.661zm-.401-.913v.025l.002.005v.011l.002.002v.009l.001.003v.006l.002.001v.006l.002.002v.005l.002.002.007.021c-.136.135-.237.267-.437.554-.201.289-.52.3-.52.3.032-.233.093-.418.263-.615.169-.2.388-.38.548-.5.041.02.095.032.163.023l.016-.002a.256.256 0 00-.042.084c-.122.072-.473.257-.615.553 0 0 .222-.072.606-.495zm-.252-.288l.014-.027a.145.145 0 01.014-.022c-.132.053-.598.234-.75.314-.149.08-.367.264-.486.637 0 0 .315.028.576-.194.258-.22.56-.53.69-.63a.17.17 0 01-.03-.033s-.351.32-.723.459c0 0 .08-.147.226-.257.179-.13.313-.174.47-.247zm-.266-.221l.002-.003.002-.006.001-.005.002-.004.002-.005.001-.005.002-.002V9.61l.002-.002.002-.004c-.155.034-.539.081-.711.135a1.084 1.084 0 00-.665.547s.27.086.78-.161c.51-.248.67-.3.768-.327a.347.347 0 01-.162-.05c-.203.093-.474.204-.745.212 0 0 .133-.097.272-.158.153-.067.32-.126.447-.16zm.013-.262l.008.006.009.003.008.004.01.005.01.002.008.004.009.003.009.002.008.004.01.002.01.001.01.002.005.002h.005l.005.002h.011l.007.002h.005l.005.002a.437.437 0 00-.099.093c-.18.054-.486.111-.992.149-.506.04-.775-.057-.775-.057a2.22 2.22 0 01.646-.262c.192-.038.69-.033.907-.065a.649.649 0 00.075.052c-.186.018-.577.036-.78.14 0 0 .374.051.866-.096zm-.039-.299l.005-.004.005-.002.005-.003.006-.002.005-.004.005-.002.005-.003.007-.004.005-.002.006-.003.007-.002.007-.004.005-.003.007-.002.007-.003.007-.002c-.256-.08-.607-.208-1.135-.244-.387-.027-.669-.004-.813.036 0 0 .353.256.758.348.403.09.73.032.969.034a.57.57 0 01.063-.08 3.808 3.808 0 01-.914-.128s.406-.09.978.079zm.001-.31v.004l.001.001v.004l.002.004v.005l.001.005.002.006.004.007.001.005.004.01.003.007.004.007.003.009.006.009.005.009.005.009.007.009.005.01.007.01.009.009.008.01.009.01.009.01.01.01.01.008.013.01.012.01.014.007.012.01.015.008.016.007c-.36-.161-1.069-.254-1.447-.42-.515-.218-.609-.494-.609-.494.445-.013.805.1 1.081.188.327.102.82.292.992.373a.349.349 0 00-.194.063 5.653 5.653 0 00-.575-.201c-.172-.05-.301-.06-.409-.07 0 0 .153.104.403.187.25.081.357.095.56.135zm-.028-.406l.001.002.002.004.002.003.002.002.001.004.002.003.002.004.003.003.002.004.001.004.004.005.002.003.005.01.007.007.005.009.005.007.002.005.003.004.002.003.003.004.002.004.004.003.002.004.001.003.002.002.002.004.002.002.001.003c-.568-.098-1.193-.541-1.386-.817-.193-.275-.137-.685-.137-.685.187.039.594.401.698.51.106.108.426.43.646.608l.068.205c-.188-.156-.412-.33-.553-.44a1.7 1.7 0 00-.427-.258s.146.198.266.295c.137.113.276.21.39.274.104.057.156.091.363.193z" fill="#0055A5"/><path d="M29.763 10.009l.004-.004.003-.003.002-.002.003-.004.004-.003.003-.002.002-.004.003-.002.002-.003.004-.004.001-.002.004-.003.002-.002.003-.004.002-.002.003-.003c.026.036.113.149.157.262.033.095.068.226.085.3.017.076.068.23.1.284 0 0-.138.02-.24-.106a.678.678 0 01-.152-.367 1.457 1.457 0 01.005-.326zm-.219.018l.004.004.001.003.004.002.002.004.001.004.004.001.001.002.002.004.004.001.001.002.002.002.002.004.003.001.002.002h.001l.002.002.002.002.002.001.001.002h.002v.002h.002l.002.002h.001v.002h.002v.001h.002v.002l.02.01.02-.006.047-.02c.02.056.028.084.035.135.005.064.019.166-.006.25-.03.103-.088.164-.121.205 0 0-.09-.104-.117-.188a.495.495 0 01-.003-.298.492.492 0 01.073-.14zm-.31.009l.008-.002h.009l.007-.002.009-.001.015-.004.016-.003.016-.006.015-.003.014-.006.014-.005.012-.007.012-.005.014-.008.01-.005.013-.007.01-.007.01-.008.01-.007a.24.24 0 01.018.142.36.36 0 01-.12.188c-.093.077-.217.149-.356.126 0 0-.03-.106.244-.37zm-.105-.178l.002.01v.008l.002.008.001.009.002.007.002.007.002.01.001.006.004.007.002.006.001.007.004.007.002.006.003.005.002.005.002.006.003.005.002.006.001.003.004.004.002.005.001.004.002.002.002.003.002.004.001.002.002.001.002.002.002.002v.002h.001v.002c-.033.04-.15.245-.392.211 0 0-.066-.141.095-.253.11-.077.163-.092.238-.119zm.021-.178l-.012.004-.012.004-.014.002-.014.001-.014.002-.014.002h-.015l-.016.002h-.016l-.017-.002h-.015l-.01-.002h-.008l-.01-.002h-.009l-.008-.001-.01-.002-.008-.002-.01-.002-.009-.002-.01-.003-.028-.006-.009-.028c-.123.105-.272.123-.323.218 0 0 .063.119.224.097a.534.534 0 00.37-.21.3.3 0 01.017-.07zm-.28-.146l.004-.007.005-.007.003-.007.004-.01.005-.006.004-.01.005-.008.003-.01.005-.008.006-.011.003-.005.003-.004.002-.006.004-.005.003-.005.004-.004.003-.005.004-.006.005-.005.003-.005.006-.006.003-.003a.78.78 0 00-.328.003c-.15.029-.303.065-.379.298 0 0 .096.086.271.049a.545.545 0 00.35-.207zm-.064-.255l-.007-.008-.007-.005-.007-.007-.007-.007-.005-.007-.007-.01-.007-.007-.005-.007-.007-.009-.005-.009-.007-.009-.005-.009-.006-.01-.005-.01-.005-.01-.005-.011-.012-.029c-.129-.054-.264-.083-.396-.032-.133.052-.167.11-.2.161 0 0 .146.127.314.133a.687.687 0 00.391-.098zm.04-.275l.003-.002.006-.001.003-.002h.005l.004-.002.005-.002.003-.002.006-.001h.005l.005-.002.005-.002h.004l.005-.002.005-.002h.006l.005-.002a.484.484 0 01-.141-.25.617.617 0 01-.262-.01.322.322 0 00-.28.04s.031.17.247.23c.203.055.278.041.361.012zm-.078-.334l.028-.02a.293.293 0 01.135-.038c-.07-.056-.236-.199-.352-.265-.127-.074-.34-.174-.449-.189 0 0 .103.274.22.386.123.115.208.158.418.125zm.217-.129l-.009-.012-.008-.014-.01-.015-.01-.014-.006-.016-.009-.016-.009-.017-.007-.018-.007-.018-.008-.017-.007-.018-.005-.02-.007-.02-.007-.02-.005-.021-.006-.02c-.026-.093-.081-.32-.114-.38s-.153-.264-.386-.328c0 0-.06.267.056.482.1.183.307.377.564.502zm1.295 1.252l.006.006.006.005.005.005.005.004.005.005.005.004.006.005.005.004.005.004.007.005.004.002.003.002.004.002.003.003.003.002.004.002.005.002.004.003.003.002.005.002.005.004.004.001s.075.147-.016.323c-.09.178-.165.359-.201.46 0 0-.049-.008-.103-.286-.036-.186-.081-.235-.13-.298a.31.31 0 00.1.034l.034.01.017-.036a.388.388 0 00.04-.174c0-.018 0-.034-.002-.049a.172.172 0 00.146-.062c.002-.004.004-.004.004-.006l.008.01z" fill="#0055A5"/><path d="M28.299 7.67v.086l.005.067c-.14-.181-.304-.4-.46-.603a1.237 1.237 0 00-.301-.289c.087.257.24.461.347.562.108.102.264.274.417.38l.014.05a.65.65 0 00.054.144c.038.064.083.127.139.19a1.925 1.925 0 00-.146-.07l-.049-.022c-.418-.227-.835-.704-1.002-1.034-.169-.332-.1-.716-.056-.922.191.167.468.495.586.673.148.218.335.53.452.783v.007zm5.885 1.412l-.006-.004-.003-.002-.005-.003-.006-.002-.005-.004-.007-.002-.005-.003-.005-.004-.005-.002-.007-.003-.005-.002-.007-.004-.007-.003-.007-.002-.007-.003-.007-.002c.257-.08.608-.208 1.138-.244.387-.027.665-.004.811.036 0 0-.354.256-.757.348-.403.09-.732.032-.972.034a.435.435 0 00-.06-.08c.28.002.745-.071.914-.128 0 0-.407-.09-.98.079zm.001-.31v.004l-.002.001v.004l-.001.004-.002.005v.005l-.004.006-.001.007-.002.005-.004.01-.003.007-.003.007-.006.009-.003.009-.005.009-.006.009-.007.009-.007.01-.006.01-.007.009-.01.01-.008.01-.01.01-.01.01-.011.008-.01.01-.014.01-.012.007-.014.01-.014.008-.016.007c.36-.161 1.067-.254 1.45-.42.512-.218.606-.494.606-.494-.445-.013-.806.1-1.083.188-.325.102-.818.292-.992.373a.35.35 0 01.196.063c.242-.095.355-.136.574-.201.174-.05.3-.06.408-.07 0 0-.151.104-.401.187-.25.081-.358.095-.56.135zm.028-.405v.002l-.002.003-.002.004-.002.002-.003.003-.002.004-.001.004-.002.003-.003.004-.002.003-.006.01-.005.008-.007.008-.005.009-.005.007-.002.005-.003.004-.002.003-.003.004-.002.004-.004.003-.001.004-.002.003-.002.002-.002.004-.003.002-.002.003c.568-.099 1.194-.541 1.387-.818.194-.274.139-.685.139-.685-.188.04-.595.402-.7.511a9.36 9.36 0 01-.645.608l-.068.205c.188-.156.412-.33.55-.44.11-.084.268-.2.43-.258 0 0-.148.198-.266.294a2.85 2.85 0 01-.392.275c-.101.057-.155.09-.36.193zm-.137-.696v.084l-.006.067c.138-.181.303-.4.459-.603.11-.138.2-.22.3-.289a1.436 1.436 0 01-.345.562c-.108.102-.264.274-.417.38l-.014.05a.763.763 0 01-.056.144 1.202 1.202 0 01-.137.19c.043-.024.094-.049.146-.07l.047-.022c.419-.227.836-.704 1.002-1.034.172-.332.101-.716.056-.922a4.253 4.253 0 00-.584.673c-.148.218-.335.53-.452.783v.007zm-5.24 2.614l-.018.018-.017.018-.02.02-.018.021-.021.022-.021.023-.02.025-.022.025-.022.027-.023.027-.02.029-.023.028-.02.03-.024.033-.02.032-.021.032-.02.035-.018.034-.02.034-.017.036-.017.036-.014.037-.014.036-.014.04-.01.037-.01.038-.008.04-.007.039-.003.04-.002.04-.001.04.003.041s.337-.11.478-.366c.139-.254.224-.418.283-.475a.376.376 0 01-.111 0l-.031-.005c-.087.161-.258.427-.41.518 0 0-.039-.215.411-.649a.442.442 0 01.028-.06.349.349 0 01-.14.022m4.636-2.404l-.017.038-.02.035-.018.038-.023.04-.012.017-.012.02-.014.02-.014.02-.014.02-.016.019-.017.02-.017.02-.018.021-.019.02-.019.021-.02.022-.023.021-.023.022-.024.021-.026.024-.026.021-.028.023-.028.024-.03.025-.03.023-.033.025-.035.023-.035.026a.292.292 0 00-.11.365c.074.18.209.43.127.53-.081.098-.371.148-.608.051 0 0-.05.155-.135.253 0 0 .041.084.177.041 0 0-.05.128.019.264 0 0 .158-.029.226-.18 0 0 .062.119.19.16 0 0 .105-.055.08-.27a.4.4 0 00.315.224s.136-.178-.041-.416c0 0 .126.116.358.06 0 0 .036-.121-.173-.29 0 0 .237-.01.327-.215 0 0-.1-.127-.346-.099 0 0 .228-.052.278-.332 0 0-.163-.107-.422.065 0 0 .045-.09.155-.18.108-.085.24-.334.194-.7zm-.948 2.823l.006-.009.005-.009.006-.009.007-.009.005-.008.005-.01.005-.007.005-.008.006-.01.003-.009.005-.009.004-.008.005-.008.003-.008.004-.01.003-.008c-.04.34-.053.57-.232.79 0 0-.108-.147-.039-.505a.312.312 0 00.096-.047s-.04.145-.016.292c0 0 .065-.048.113-.39zm.307-.035l.004-.002.002-.003.001-.004.002-.002.003-.003.002-.004.004-.003.001-.004.004-.004.002-.005.006-.007.006-.01.005-.008.007-.009.005-.009.005-.009.005-.009.006-.007.005-.009.003-.005.002-.004.002-.003.002-.004c.015.197.066.717-.103.88 0 0-.116-.087-.156-.846.024.043.068.088.087.113 0 0-.028.24.055.41 0 0 .085-.066.033-.43zm.403.398l-.014-.016-.012-.02-.012-.021-.01-.023-.013-.024-.008-.025-.01-.027-.01-.027-.008-.028-.009-.03-.007-.028-.009-.03-.012-.06-.007-.028-.005-.029-.005-.028-.003-.027-.006-.027-.003-.027-.003-.025-.004-.024-.004-.021-.001-.02-.002-.02-.002-.016-.001-.007V10.4l-.002-.007v-.011l-.002-.003v-.015a.49.49 0 01-.059-.045c-.009-.007-.017-.012-.024-.021 0 .02 0 .04-.004.06.023.315.047.641.143.804.093.16.266.242.266.242.161-.297-.033-.695-.199-.973a.46.46 0 01-.06-.027c.057.213.164.466.121.661zm.401-.913v.025l-.002.005v.011l-.001.002v.007l-.002.002v.007l-.002.002v.005l-.002.002v.007l-.001.002-.007.021c.135.135.236.267.436.554.2.289.52.3.52.3a1.08 1.08 0 00-.265-.615 3.57 3.57 0 00-.545-.5.286.286 0 01-.164.023l-.015-.002a.25.25 0 01.041.084c.12.072.473.257.616.553 0 0-.223-.072-.607-.495zm.253-.288l-.014-.027a.137.137 0 00-.014-.022c.13.053.596.234.747.314.151.08.368.264.486.637 0 0-.314.028-.573-.194-.259-.22-.561-.53-.692-.63a.138.138 0 00.032-.033s.35.32.723.459c0 0-.08-.147-.228-.257-.177-.13-.311-.174-.467-.247zm.266-.221l-.002-.004-.002-.005-.002-.005-.003-.004-.002-.005-.002-.006-.002-.003-.001-.006c.153.034.538.081.71.135.17.054.482.185.666.547 0 0-.271.086-.782-.161-.51-.248-.669-.3-.766-.327a.346.346 0 00.161-.05c.204.093.474.204.746.212 0 0-.134-.097-.275-.158a3.31 3.31 0 00-.445-.16zm-.013-.262l-.008.006-.01.003-.01.004-.008.005-.009.002-.009.004-.008.003-.009.002-.009.004-.01.002-.009.001-.01.002-.01.002-.006.002h-.012l-.005.002H34l-.007.002c.034.023.07.054.1.093.18.054.485.111.99.149.506.04.776-.057.776-.057a2.221 2.221 0 00-.647-.262c-.189-.038-.688-.033-.907-.065a.434.434 0 01-.072.052c.184.018.576.036.778.14 0 0-.372.051-.864-.096z" fill="#0055A5"/><path d="M32.61 10.009l-.006-.007-.003-.002-.004-.004-.003-.003-.002-.002-.003-.004-.002-.002-.004-.003-.001-.004-.004-.002-.002-.003-.003-.002-.002-.004-.003-.002-.002-.003a1.148 1.148 0 00-.158.262 3.45 3.45 0 00-.084.3 1.71 1.71 0 01-.1.284s.137.02.24-.106a.65.65 0 00.15-.367 1.353 1.353 0 00-.005-.326zm.218.018l-.001.004-.004.003-.002.002-.001.004-.004.004-.002.001-.001.002-.004.004-.002.001-.001.002-.002.002-.004.004-.001.001-.002.002h-.002l-.002.002-.001.002-.002.001-.002.002h-.001l-.002.002h-.002l-.002.002-.001.002h-.002v.001h-.004v.002l-.017.01-.02-.006a.493.493 0 00-.048-.02.525.525 0 00-.033.135c-.007.064-.019.166.005.25.03.103.087.164.12.205 0 0 .092-.104.117-.188a.481.481 0 00-.07-.438zm.313.009l-.008-.002h-.009l-.009-.002-.008-.001-.016-.004-.016-.003-.015-.006-.014-.003-.014-.006-.014-.005-.014-.007-.012-.005-.012-.008-.012-.005-.01-.007-.013-.007-.01-.008-.009-.007c-.012.032-.031.08-.017.142a.35.35 0 00.12.188c.092.077.217.149.354.126 0 0 .033-.106-.242-.37zm.104-.178l-.002.01-.001.008-.002.008v.009l-.002.007-.002.007-.003.01-.002.006-.002.007-.001.006-.004.007-.001.007-.002.006-.004.005-.002.005-.003.006-.002.005-.001.006-.004.003-.002.004-.001.005L33.2 10l-.004.002-.001.003-.002.004-.002.002v.001l-.002.002-.001.002v.002h-.002v.002c.031.04.15.245.393.211 0 0 .064-.141-.098-.253-.109-.077-.161-.092-.236-.119zm-.022-.178l.012.004.014.004.014.002.014.001.013.002.014.002h.016l.015.002h.016l.017-.002h.016l.017-.002.01-.002h.01l.008-.001.009-.002.009-.002.01-.002.009-.002.008-.003.028-.006.01-.028c.124.105.273.123.324.218 0 0-.063.119-.224.097a.533.533 0 01-.37-.21.551.551 0 00-.02-.07zm.281-.146l-.002-.003-.002-.004-.005-.007-.003-.007-.004-.01-.005-.006-.003-.01-.006-.008-.005-.01-.003-.008-.005-.011-.004-.005-.004-.004-.001-.006-.004-.005-.003-.005-.004-.004-.003-.005-.004-.006-.005-.005-.003-.005-.006-.006-.003-.003a.78.78 0 01.328.003c.15.029.303.065.38.298 0 0-.098.086-.272.049a.54.54 0 01-.35-.207zm.063-.255l.007-.008.007-.005.007-.007.007-.007.007-.007.007-.01.005-.007.007-.007.005-.009.007-.009.005-.009.005-.009.006-.01.005-.01.005-.01.005-.011.012-.029c.13-.054.264-.083.396-.032.133.052.167.11.2.161 0 0-.146.127-.313.133a.693.693 0 01-.392-.098zm-.038-.275l-.01-.003-.004-.002h-.004l-.005-.002-.004-.002-.005-.002-.005-.001h-.005l-.004-.002-.005-.002h-.005l-.005-.002-.005-.002h-.006l-.005-.002a.462.462 0 00.141-.25.625.625 0 00.264-.01.321.321 0 01.28.04s-.032.17-.249.23c-.201.055-.278.041-.36.012zm.076-.334l-.028-.02a.292.292 0 00-.134-.038c.07-.056.235-.199.351-.265.129-.074.34-.174.449-.189 0 0-.101.274-.22.386-.12.115-.206.158-.418.125zm-.217-.129l.01-.012.009-.014.009-.015.008-.014.009-.016.008-.016.01-.017.006-.018.007-.018.009-.017.007-.018.007-.02.005-.02.007-.02.005-.021.007-.02c.022-.093.08-.32.113-.38s.153-.264.386-.328c0 0 .06.267-.056.482-.102.183-.31.377-.566.502zm-1.293 1.252l-.007.006-.005.005-.005.005-.005.004-.005.005-.006.004-.005.005-.005.004-.007.004-.007.005-.002.002-.003.002-.004.002-.003.003-.005.002-.004.002-.003.002-.004.003-.005.002-.003.002-.006.004-.005.001s-.073.147.016.323c.09.178.166.359.203.46 0 0 .049-.008.102-.286.037-.186.084-.235.13-.298a.341.341 0 01-.098.034l-.035.01-.017-.036a.37.37 0 01-.042-.174c0-.018.002-.034.003-.049a.169.169 0 01-.145-.062c-.002-.004-.002-.004-.006-.006l-.007.01z" fill="#0055A5"/><path d="M33.539 10.285l.017.018.018.018.019.02.019.021.02.022.02.023.022.025.021.025.023.027.02.027.023.029.023.028.02.03.021.033.023.032.02.032.02.035.02.034.018.034.017.036.016.036.016.037.014.036.012.04.012.037.009.038.008.04.007.039.004.04.001.04v.04l-.001.041s-.34-.11-.478-.366c-.14-.254-.224-.418-.283-.475a.377.377 0 00.111 0l.031-.005c.087.161.256.427.409.518 0 0 .04-.215-.41-.649a.328.328 0 00-.03-.06.357.357 0 00.143.022M30.922 6.82v-.003l.002-.003.002-.002.002-.004.003-.002.003-.003.004-.002.005-.004.005-.002.005-.003.007-.002.007-.002.007-.003.009-.002.009-.002.008-.002.01-.002.008-.001.01-.002.01-.002.011-.002.012-.002.01-.002h.013l.012-.002.012-.001h.026l.012-.002h.04c.146 0 .264.027.264.059 0 .03-.118.057-.264.057-.145.001-.264-.026-.264-.056zm-.898.315v-.002l.002-.002v-.002l.001-.002.002-.001.003-.002h.002l.004-.002.003-.002.004-.002h.003l.005-.002.005-.002.004-.001h.007l.005-.002h.005l.007-.002.007-.002h.005l.007-.002h.016l.007-.002h.016l.008-.001h.044c.092 0 .17.014.17.032 0 .018-.078.03-.17.03-.096.001-.172-.011-.172-.03zm1.214-.188v.012l-.001.002v.004l-.002.002v.003l-.002.002v.002l-.001.002-.002.003-.002.002-.002.002-.001.002-.002.002-.002.002-.002.002-.001.001-.002.002-.002.002h-.002l-.003.002-.002.002h-.01l-.002.002h-.009a.054.054 0 01-.052-.055c0-.027.025-.052.052-.052a.051.051 0 01.052.05zm-.335-.183l-.008-.022-.007-.02-.01-.017-.006-.02-.007-.018-.007-.02-.009-.018-.005-.016-.007-.018-.007-.016-.005-.016-.007-.016-.005-.016-.005-.015-.005-.014-.006-.014-.005-.015-.003-.012-.004-.013-.005-.013-.004-.01-.003-.011-.002-.01-.003-.012-.002-.009-.002-.008-.001-.01-.002-.007-.002-.007v-.018c.002-.032.038-.055.073-.066.037-.011.066-.015.09.003.046.038.09.328.103.45a.397.397 0 00-.122.044zm.162-.048l.003-.002h.012l.009-.002h.026l.017-.002a3.574 3.574 0 00-.076-.385c-.023-.077-.052-.13-.1-.145 0 0 .037.106.058.215.021.11.035.217.05.321zm-.28.388l.01-.002.009-.004.008-.003.01-.004.008-.003.01-.006.009-.003.009-.006.008-.005.007-.006.009-.005.008-.006.007-.005.009-.005.007-.006.007-.007.007-.005.005-.006.007-.005.005-.004.006-.005.005-.005.005-.004.005-.005.004-.004.003-.002.002-.003.003-.004.002-.001h.002v-.002c-.156.023-.196.13-.196.13z" fill="#0055A5"/><path d="M30.931 7.095l-.014.007-.012.006-.012.007-.014.005-.012.006-.012.005-.014.004-.012.005-.013.004-.012.002-.012.003-.012.004-.01.002-.013.001-.01.002-.01.002h-.01l-.01.002h-.008l-.009.002h-.056a.424.424 0 01.141-.169.458.458 0 01.276-.072.374.374 0 01-.13.172zm-.031.073c-.1.048-.413.054-.581.063h-.109l-.013-.005h-.017l-.013-.004h-.013l-.013-.005-.013-.004h-.014l-.013-.004h-.013l-.013-.005h-.008l-.013-.004-.009-.005h-.009l-.008-.004-.009-.005h-.013l-.004-.004h-.005l-.008-.005h-.005c.02.38.27.404.27.404-.004-.03 0-.08 0-.08.078.075.239.13.239.13-.002-.047-.018-.086-.018-.086.068.041.109.04.109.04-.007-.054-.04-.116-.04-.116a.16.16 0 00.105.067c.01-.03-.009-.108-.009-.108.025.03.07.112.209.144.142.03.204-.054.204-.054-.136.01-.265-.125-.265-.125.073-.03.1-.081.1-.081-.044-.038-.087-.04-.087-.04a.19.19 0 00.1-.104zm-.477.143v.014s-.217 0-.226.112c-.035-.023-.052-.066-.06-.117 0 0 .154.01.286-.009zm-.477-.109l.002.017.002.014.001.016.002.014.002.017.003.014.004.014.003.015.004.014.003.014.003.013.006.012.003.013.006.013.005.01.005.011s-.099-.075-.123-.141c-.025-.067-.032-.11.07-.08zm-.292.074a.144.144 0 00-.108.063.217.217 0 00.074.287s.159-.143.352-.005c0 0 .042-.026.143-.05v-.004h-.004v-.004l-.005-.004-.004-.005h-.004V7.55l-.005-.005-.004-.004-.004-.005-.005-.004-.004-.005h-.005l-.004-.009h-.004l-.004-.009h-.005l-.004-.004-.009-.005-.004-.004-.004-.004-.009-.005-.004-.004-.005-.005-.008-.004h-.005l-.009-.005-.004-.004c-.059-.027-.18-.065-.217-.18a.34.34 0 00-.117-.009zm.092.152c.023 0 .043.022.043.045v.009h-.004v.009h-.004V7.5h-.005v.004h-.004v.005h-.009v.004h-.008l-.004.005h-.004c-.023 0-.04-.022-.04-.045s.017-.045.04-.045zm.391.17l.002.002.001.001v.002h.002l.002.004.002.002.003.003.002.006.003.003.004.004.003.005.004.006.005.003.003.006.006.005.003.007.005.005.01.011.01.01.01.013.005.006.005.005.005.006.006.005.005.004.005.005.005.004.005.005s-.26-.004-.325.23c0 0-.088-.144-.024-.236.07-.098.136-.113.228-.132z" fill="#0055A5"/><path d="M30.422 7.653l.002.002h.003l.002.002h.005l.004.001.003.002h.004l.005.002.003.002h.005l.004.002.005.002.009.001.009.004.01.002.003.002.006.001.003.002h.005l.004.002.003.002h.004l.003.002h.004l.003.002s0-.05-.002-.074c.026.006.056.015.084.018 0 0 .083.19.15.267 0 0 .003.045-.034.108 0 0-.048-.111-.132-.205a.998.998 0 00-.177-.15zm-.221-.041h.002l.003.002h.006l.003.002.005.002.006.002.006.001.006.002.007.004.007.002.007.001.008.004.007.002.009.003.007.004.009.004.017.007.017.007.018.007.015.007.009.006.009.003.006.004.01.005.006.004.007.003.007.006.005.003c.082.061.137.13.129.25 0 0-.065-.095-.138-.139a.787.787 0 01-.215-.208zm.002-.87h.005l.002.002h.008l.004.002h.005l.004.002h.003l.002.002h.003l.004.002.003.001.002.002.003.002.002.002.004.002.001.002.004.001.002.002.001.002.002.004.002.002.002.003.001.002v.004l.002.001v.006l.002.002v.005c0 .042-.063.14-.08.183-.018-.043-.078-.141-.078-.183 0-.04.047-.053.07-.053h.015v-.002zm-.054.321l-.002-.007-.002-.005v-.008l-.001-.007-.002-.007-.002-.007-.001-.01v-.006l-.002-.01-.002-.008-.003-.018-.006-.018-.003-.02-.004-.018-.003-.009-.002-.009-.001-.007-.004-.009-.002-.007-.003-.007-.002-.007-.003-.008-.004-.007-.002-.005-.003-.006-.003-.005-.004-.004-.002-.003a.151.151 0 00-.106-.033.046.046 0 00-.04.061c.011.034.119.201.133.221.024-.003.018-.003.081-.007zm.094 0l.001-.007.002-.005v-.008l.002-.007.002-.007.001-.007.002-.01.002-.006.002-.01.001-.008.004-.018.003-.018.004-.02.005-.018.002-.009.001-.009.004-.007.002-.009.003-.007.002-.007.003-.007.002-.008.004-.007.001-.005.004-.006.003-.005.004-.004.001-.003a.149.149 0 01.106-.033.047.047 0 01.04.061c-.01.034-.118.201-.132.221-.024-.003-.02-.003-.081-.007zm.07-.523h-.084v-.095h-.067v.095h-.084v.061h.084v.111h.067v-.11h.084V6.54zm-1.013.616V7.13l.001-.007V7.11l.002-.004v-.004a.47.47 0 00.002-.12c-.061.024-.103.04-.184.178 0 0 .132-.084.179-.004z" fill="#0055A5"/><path d="M29.414 7.377v-.004l.002-.005v-.013l.002-.005v-.005l.001-.008.002-.005v-.007l.002-.005.002-.008v-.007l.001-.007.002-.009.002-.007.003-.015.004-.016.005-.016.003-.016.006-.016.005-.016.005-.017.002-.007.003-.007a.443.443 0 00-.027-.31.456.456 0 01-.054-.239s-.079.027-.124.056c-.007.097.047.192.073.246.03.064.025.147.018.199a.407.407 0 00.062.269zm.009-.735v-.005h-.002v-.029l.002-.002v-.009l.001-.002V6.59l.002-.002s.123-.123.226-.145a.143.143 0 01.127.032s-.038-.003-.093.043c-.055.045-.123.103-.177.117-.05.014-.062.01-.086.006zm.365-.152l.008.008.009.01.009.008.007.01.008.008.007.01.002.003.003.005.004.004.003.005.002.006.004.003.001.006.004.003.002.004.001.005.002.004.002.005.002.004.001.005.002.004v.005l.002.004v.012a.64.64 0 01-.08.203c-.026.043-.064.1-.061.168.002.036.026.072.054.1 0 0-.151-.037-.169-.132-.017-.086.018-.147.042-.195.023-.045.094-.15.11-.192.017-.04.024-.072.019-.094zm.882 1.082l.006.02.007.021.007.02.006.02.007.02.01.02.008.02.009.017.008.018.009.02.009.018.008.016.01.018.01.016.008.016.01.014a.54.54 0 01.07.237s.068-.156.033-.265a.424.424 0 00-.235-.266zm.169.035h.014l.003.002h.019l.006.002h.01l.007.002h.005l.007.002h.005l.007.002.007.001.005.002.007.002h.005l.007.004.006.002.007.001.005.002.005.004.005.002.005.003.006.002a.402.402 0 01.144.246s-.106-.018-.156-.072a.623.623 0 01-.141-.209zm-.535.195h-.011l-.003.001h-.005l-.004.002h-.007l-.003.002-.007.002-.007.002h-.007l-.007.002-.007.002-.007.001-.003.002h-.004l-.003.002h-.004l-.001.002h-.007l-.002.002s.089.027.132.063a.28.28 0 01.085.165c.023.116.089.242.108.28l.009-.002a.657.657 0 01.048-.27s-.071-.046-.102-.093c-.025-.034-.065-.092-.181-.165zm.458.248l.004.006.002.006.003.007.003.007.004.005.002.008.003.009.005.007.004.007.003.01.007.015.007.016.002.01.003.008.004.011.002.01.003.008.002.01.002.01.001.009.002.01.002.011v.03l-.002.012V8.3l-.002.01-.001.011-.004.011c-.031.113-.1.161-.146.256 0 0-.035-.172-.028-.305.009-.135.056-.185.113-.233zm.2.005v.002l.002.001v.002l.002.002v.002l.001.002.002.001v.004l.002.004.003.005.004.007.003.01.005.008.004.01.005.01.005.009.005.01.004.013.005.01.005.012.007.012.01.025.01.024.005.012.005.011.005.01.003.013.004.011.003.01.004.01.003.009.002.009.004.007c.017.08 0 .133-.035.181-.035.049-.094.102-.15.203 0 0-.062-.086-.07-.13a.64.64 0 01.018-.2c.014-.045.068-.192.115-.341zm.052.657l-.002.002h-.001v.002l-.002.001-.002.002-.002.004-.005.003-.003.006-.005.005-.006.007-.005.006-.005.007-.005.007-.007.01-.007.006-.005.01-.007.006-.014.018-.012.016-.007.01-.005.008-.007.01-.006.007-.005.009-.005.007-.005.007-.005.007-.006.007-.003.007-.003.006-.002.005-.002.004-.002.002v.001l-.002.002c-.015.045-.043.126-.006.183.04.058.123.15.198.189 0 0-.08-.131-.073-.24.005-.069.057-.13.067-.171a.333.333 0 00-.026-.178zm-.236-.082l.002.002.002.003.001.002.002.004.003.003.002.004.002.004.002.003.001.006.004.003.002.006.001.003.002.006.002.003.005.011.003.01.004.012.003.01.004.011.003.01v.008l.002.005.002.006v.012l.002.006a.465.465 0 01-.039.202 2.61 2.61 0 01-.134.298s-.057-.084-.088-.158c0 0 .088-.125.125-.213.045-.105.063-.201.08-.282zm-.04-.05v.002l-.002.002v.011l-.001.007-.002.007-.002.01-.002.011-.003.013-.002.013-.003.014-.004.016-.005.016-.003.016-.006.018-.005.02-.007.018-.005.02-.007.021-.008.02-.008.021-.008.022-.009.021-.01.022-.01.021-.013.022-.01.021-.014.024-.012.021-.014.02-.014.021-.016.022c-.113.147-.205.199-.266.199-.092 0-.184-.08-.215-.17-.031-.09-.02-.232.038-.28 0 0 .056.175.172.183.134.007.304-.147.476-.445z" fill="#0055A5"/><path d="M30.6 8.457l.002.005v.006l.002.005v.006l.004.01.001.013v.012l.002.013.002.013v.041l-.002.014-.002.015v.014l-.003.014-.002.015-.003.014a.299.299 0 01-.113.176.166.166 0 01-.242-.086s.243.02.355-.3zm.398 1.185l.004.007.004.009.005.009.003.009.005.009.006.009.007.009.005.009.012.018.012.018.014.018.012.018.012.018.007.007.005.009.005.009.006.009.005.007.005.009.004.007.003.009.003.007.004.007.002.007.002.008v.007l.001.005c-.003.183-.081.294-.099.355 0 0-.14-.116-.165-.249-.014-.069 0-.273.111-.373zm-.158.128l.002-.004.002-.006.002-.005.003-.006.002-.007.004-.005.001-.007.004-.007.003-.008.004-.008.003-.008.004-.007.007-.016.008-.016.009-.018.009-.016.005-.007.003-.008.005-.007.006-.007.005-.007.005-.007.005-.007.005-.006.006-.005.005-.006.005-.005.005-.006s.079-.233-.168-.376c0 0-.103.138-.129.27-.028.132.108.21.17.329zm-.309-.591l-.008.01-.01.01-.006.01-.009.011-.009.009-.008.01-.01.011-.01.01-.008.009-.008.01-.006.004-.005.003-.003.006-.006.003-.003.004-.005.004-.004.003-.005.002-.003.004-.006.003-.003.002-.005.002s-.016.104-.006.174c.013.102.077.208.105.287 0 0 .107-.147.12-.233.012-.087.01-.156.013-.198 0 0-.059-.1-.092-.17zm-.287.503l-.003-.006-.003-.005-.004-.007-.003-.006-.006-.009-.003-.007-.005-.009-.006-.009-.005-.01-.005-.01-.005-.01-.005-.013-.006-.01-.005-.013-.007-.011-.005-.013-.01-.025-.01-.027-.01-.027-.003-.012-.005-.013-.004-.014-.003-.013-.002-.012-.003-.014-.002-.013-.002-.013V9.34l-.002-.013s.124.068.226.018c0 0 .012.169-.007.224a.216.216 0 01-.087.114zm.029.034l.003-.002.002-.001.001-.004.004-.002.002-.002.003-.001.002-.004.003-.002.004-.003.002-.002.006-.007.006-.006.007-.007.007-.006.005-.007.007-.005.003-.004.002-.002.003-.003.004-.004.002-.002.001-.003.004-.002.002-.004.001-.001.002-.004s.082.154.096.2c0 0-.04.008-.085-.024a.57.57 0 01-.1-.086zm.377-.091l-.002.002v.002l-.002.003v.002l-.002.004-.002.002-.001.003-.002.004-.003.007-.004.007-.005.01-.005.006-.006.01-.005.01-.007.01-.005.01-.007.009-.007.01-.014.02-.014.022-.007.009-.007.01-.005.01-.007.009-.007.009-.005.009-.005.007-.007.007-.004.007-.005.006-.002.001-.001.004-.002.002-.002.002-.002.002-.001.001-.002.002-.002.002s.01.068.06.165a.701.701 0 00.152.2s.08-.144.105-.207a.272.272 0 00.012-.174c-.028-.064-.122-.155-.164-.236zm.196.492l.002.007.003.006.004.007.003.005.005.008.004.007.005.005.003.007.006.007.005.01.01.014.009.016.01.014.01.016.011.016.009.016.003.01.006.007.003.008.004.008.003.007.004.009.001.007.002.009.003.007v.007a.293.293 0 01-.013.155c-.018.04-.07.123-.105.186 0 0-.12-.117-.146-.199a.307.307 0 01.018-.208c.027-.056.09-.115.118-.174zm-.339-.017l.003.008.004.007.003.005.004.007.003.008.004.005.008.012.01.015.008.013.01.012.009.013.009.012.008.013.009.012.003.005.004.008.003.005.004.007.003.006.004.005.002.007.003.005.002.006.001.007a.27.27 0 01-.006.201c-.032.073-.067.117-.079.161 0 0-.097-.129-.114-.182a.387.387 0 01-.002-.2c.02-.057.056-.13.08-.182zm.478.496v.001h-.002v.002l-.002.002-.001.002-.002.002-.002.001-.002.004-.001.002-.004.003-.001.004-.004.004-.005.007-.005.009-.007.009-.007.009-.007.01-.007.011-.009.011-.007.013-.008.012-.007.012-.009.013-.007.013-.007.014-.007.012-.007.013-.007.014-.005.013-.005.012-.005.015-.004.012-.005.013-.002.01-.002.013-.001.005v.017c.005.138.094.227.106.314 0 0 .088-.103.121-.17.037-.08.066-.144.056-.232-.01-.088-.033-.143-.12-.231zm-.308-.022l.002.004.003.005.004.006.003.005.004.005.003.008.004.007.003.007.005.007.004.007.003.01.006.006.003.01.003.008.007.018.004.01.003.01.004.009.003.009.002.01.003.01.002.009.002.008.002.011.001.01v.034l-.001.008-.002.007c-.021.081-.104.194-.132.244 0 0-.066-.14-.08-.204-.014-.065-.002-.169.132-.298zm1.672-3.439v-.002l-.002-.002v-.002l-.002-.002-.002-.001-.001-.002h-.004l-.003-.002-.004-.002-.003-.002h-.004l-.005-.002-.003-.002-.006-.001h-.005l-.007-.002h-.005l-.007-.002-.005-.002h-.007l-.007-.002h-.014l-.008-.002h-.017l-.006-.001h-.043c-.094 0-.17.014-.17.032 0 .018.076.03.17.03.093.001.17-.011.17-.03zm-1.161-.54l.002-.007.002-.009.002-.009.001-.009.004-.009.003-.009.003-.01.004-.011.003-.011.004-.01.009-.022.008-.024.009-.023.009-.022.008-.023.004-.01.005-.011.003-.011.002-.01.004-.01.003-.01.002-.01.002-.009.001-.009.002-.009v-.014a.103.103 0 00-.1-.104.104.104 0 00-.102.104c0 .073.089.242.1.32h.003v.001zm.282.169l.008-.022.009-.02.007-.017.009-.02.006-.018.008-.02.006-.018.007-.016.007-.018.006-.016.006-.016.006-.016.007-.016.005-.015.005-.014.005-.014.004-.015.005-.012.004-.013.003-.013.003-.01.004-.011.003-.01.002-.012.004-.009.001-.008.002-.01v-.007l.002-.007v-.018c0-.032-.038-.055-.071-.066-.039-.011-.068-.015-.093.003-.045.038-.086.328-.104.45a.375.375 0 01.123.044zm-.16-.048l-.005-.002h-.012l-.01-.002h-.025l-.008-.002h-.007c.014-.116.052-.308.075-.385.024-.077.052-.13.1-.145 0 0-.036.106-.057.215-.02.11-.036.217-.05.321zm.082.257h.001v.002h.002v.001h.002l.002.004.003.003.003.002.004.004.005.005.004.004.005.005.005.005.007.004.005.005.007.006.007.005.007.007.007.006.009.005.007.005.008.006.007.005.009.006.009.005.008.006.01.003.008.006.008.003.01.004.01.003.008.004.009.002s-.04-.108-.196-.131z" fill="#0055A5"/><path d="M31.311 6.923h.011l.007-.002h.021l.007.002h.017l.009.002h.008l.01.001.008.002h.01l.009.002.01.002.009.004.01.001.01.002.01.004.01.003.01.002.01.004.01.003.01.004.009.005.008.004.01.005.01.006.008.003.007.007.009.006a.415.415 0 01.142.168s-.153.013-.287-.068a.367.367 0 01-.132-.172zm.163.245s.018.065.096.103c0 0-.043.003-.083.04 0 0 .026.052.096.081 0 0-.128.135-.265.126 0 0 .063.084.204.053.14-.032.183-.113.209-.143 0 0-.018.077-.01.107 0 0 .06-.004.11-.067 0 0-.037.063-.044.117 0 0 .039 0 .108-.04 0 0-.015.038-.017.085 0 0 .163-.055.243-.13v.058l-.004.004v.018s.25-.024.27-.404c0 0-.165.063-.335.054-.167-.008-.479-.014-.578-.062zm.474.143c.132.018.29.01.29.01v.008h-.003v.01l-.005.008v.01l-.004.004v.009l-.004.004v.009h-.005v.005l-.004.004v.004l-.004.005-.005.004v.005H32.2l-.004.004v.005h-.005l-.004.004v.005h-.005l-.004.004-.004.005c-.009-.112-.226-.113-.226-.113v-.013zm.481-.109l-.002.017-.002.014-.002.016-.001.014-.004.017-.001.014-.004.014-.003.015-.004.014-.003.014-.005.013-.004.012-.005.013-.004.013-.005.01-.005.011s.099-.075.123-.141c.025-.067.03-.11-.07-.08zm.21.074l-.01.005h-.008l-.009.004h-.008c-.037.115-.16.153-.222.18-.064.032-.126.107-.126.107.101.024.148.05.148.05a.28.28 0 01.352.004c.104-.063.126-.21.074-.287l-.009-.009-.004-.009-.005-.004-.008-.005-.005-.004-.008-.005-.005-.004-.008-.005-.009-.004-.004-.004h-.009l-.008-.005h-.009l-.004-.004h-.097zm-.014.153h.015v.004h.008v.005h.004l.005.004v.005h.004v.004h.004v.018l.005.004a.046.046 0 01-.044.045c-.022 0-.039-.021-.039-.045 0-.023.017-.044.04-.044zm-.387.169h-.002V7.6h-.002l-.002.002-.001.004-.004.002-.001.003-.004.006-.003.003-.002.004-.005.005-.004.006-.003.003-.005.006-.004.005-.005.007-.004.005-.01.011-.01.01-.01.013-.004.006-.005.005-.006.006-.005.005-.005.004-.005.005-.006.004-.005.005s.26-.004.325.23c0 0 .089-.144.024-.236-.07-.098-.135-.113-.227-.132z" fill="#0055A5"/><path d="M31.953 7.653h-.002v.002h-.005v.002h-.007l-.002.001-.003.002h-.006l-.003.002-.004.002h-.005l-.003.002-.006.002-.008.001-.01.004-.01.002-.005.002-.003.001-.005.002h-.004l-.005.002-.003.002h-.004l-.003.002h-.004l-.002.002s-.001-.05.002-.074c-.026.006-.057.015-.085.018 0 0-.081.19-.148.267 0 0-.003.045.033.108 0 0 .047-.111.132-.205a.99.99 0 01.178-.15zm.22-.041h-.003l-.004.002h-.003l-.005.002-.005.002-.006.002-.005.001-.007.002-.007.004-.007.002-.007.001-.007.004-.008.002-.007.003-.01.004-.008.004-.017.007-.017.007-.016.007-.017.007-.009.006-.007.003-.009.004-.007.005-.007.004-.007.003-.006.006-.006.003c-.081.061-.137.13-.13.25 0 0 .066-.095.139-.139a.783.783 0 00.215-.208zm-.001-.87h-.006l-.001.002h-.009l-.004.002h-.005l-.003.002h-.004l-.001.002h-.004l-.003.002-.004.001-.002.002-.003.002-.002.002-.003.002-.002.002-.004.001-.001.002-.002.002-.002.004-.001.002-.002.003-.002.002v.004l-.002.001v.006l-.001.002v.005c0 .042.062.14.08.183.017-.043.078-.141.078-.183 0-.04-.047-.053-.073-.053h-.012v-.002zm.054.321l.001-.007V7.05l.002-.008.002-.007V7.03l.001-.007.002-.01.002-.006.002-.01.001-.008.004-.018.003-.018.004-.02.005-.018.002-.009.003-.009.002-.007.002-.009.003-.007.002-.007.003-.007.004-.008.002-.007.003-.005.004-.006.001-.005.004-.004.003-.003a.147.147 0 01.106-.033.047.047 0 01.04.061c-.01.034-.118.201-.132.221-.024-.003-.02-.003-.081-.007zm-.096 0v-.007l-.002-.005-.002-.008-.001-.007V7.03l-.002-.007-.002-.01-.002-.006-.001-.01-.002-.008-.004-.018-.003-.018-.005-.02-.004-.018-.003-.009-.002-.009-.002-.007-.003-.009-.002-.007-.003-.007-.002-.007-.004-.008-.003-.007-.002-.005-.003-.006-.004-.005-.002-.004-.003-.003a.145.145 0 00-.106-.033.047.047 0 00-.038.061c.009.034.116.201.132.221.024-.003.019-.003.08-.007zm-.068-.523h.082v-.095h.07v.095h.083v.061h-.084v.111h-.07v-.11h-.081V6.54zm-1.006-.564h.085V5.88h.066v.095h.085v.06h-.085v.112h-.066v-.111h-.085v-.061zm2.019 1.18v-.012l-.002-.007v-.022l-.002-.002v-.011a.414.414 0 01-.003-.12c.06.024.102.04.184.178 0 0-.132-.084-.177-.004z" fill="#0055A5"/><path d="M32.96 7.377l-.001-.004v-.012l-.002-.006V7.35l-.002-.005v-.008l-.001-.005v-.007l-.002-.005-.002-.008-.002-.007-.001-.007-.002-.009-.002-.007-.003-.015-.004-.016-.003-.016-.005-.016-.004-.016-.005-.016-.005-.017-.002-.007-.004-.007a.452.452 0 01.026-.31.426.426 0 00.054-.239s.08.027.124.056c.007.097-.047.192-.072.246a.348.348 0 00-.017.199.408.408 0 01-.063.269zm-.008-.735v-.036l-.002-.002v-.009l-.002-.002V6.59s-.125-.123-.227-.145a.133.133 0 00-.124.032s.035-.003.09.043c.056.045.124.103.176.117.052.014.063.01.089.006zm-.367-.152l-.008.008-.009.01-.007.008-.009.01-.007.008-.007.01-.003.003-.003.005-.004.004-.002.005-.003.006-.004.003-.002.006-.001.003-.004.004-.001.005-.002.004-.002.005-.002.004v.005l-.001.004-.002.005v.016c0 .045.052.16.078.203.026.043.068.1.063.168a.178.178 0 01-.054.1s.15-.037.168-.132c.018-.086-.019-.147-.043-.195-.023-.045-.092-.15-.11-.192-.015-.04-.024-.072-.019-.094zm-.881 1.082l-.007.02-.006.021-.006.02-.008.02-.007.02-.007.02-.009.02-.009.017-.008.018-.01.02-.008.018-.01.016-.009.018-.009.016-.01.016-.008.014a.474.474 0 00-.07.237s-.07-.156-.035-.265a.428.428 0 01.236-.266zm-.17.035h-.014l-.003.002h-.018l-.005.002h-.014l-.005.002h-.007l-.005.002h-.007l-.005.002-.007.001-.007.002-.005.002h-.007l-.007.004-.005.002-.005.001-.007.002-.006.004-.005.002-.005.003-.005.002a.4.4 0 00-.143.246s.105-.018.157-.072a.623.623 0 00.139-.209zm.536.195h.014l.002.001h.005l.003.002h.007l.004.002h.003l.004.002.007.002h.007l.007.002.007.002.006.001.004.002h.004l.003.002h.003l.002.002h.005l.004.002s-.089.027-.134.063a.27.27 0 00-.083.165 1.077 1.077 0 01-.11.28l-.007-.002a.721.721 0 00-.048-.27s.07-.046.102-.093a.536.536 0 01.18-.165zm-.458.248l-.003.006-.002.006-.003.007-.004.007-.003.005-.004.008-.003.009-.004.007-.003.007-.004.01-.007.015-.007.016-.003.01-.004.008-.003.011-.002.01-.003.008-.002.01-.002.01-.002.009-.001.01-.002.011v.051l.002.01.003.011.002.011c.033.113.104.161.15.256 0 0 .034-.172.025-.305-.007-.135-.053-.185-.11-.233zm-.424.315v-.006l.002-.007.003-.007.002-.01.005-.006.004-.01.005-.008.005-.01.006-.01.005-.009.006-.01.007-.012.007-.01.006-.011.014-.022.013-.021.007-.01.007-.013.005-.011.007-.011.006-.01.005-.011.005-.011.003-.01.004-.01.003-.009.002-.01.002-.01v-.016c-.009-.086-.118-.147-.146-.16h-.002c-.028.013-.139.074-.146.16-.007.086.141.246.145.31h.003zm.224-.31l-.001.002v.003l-.002.002-.002.002v.002l-.002.001-.001.004-.002.004-.002.005-.003.007-.005.01-.004.008-.005.01-.004.01-.005.009-.005.01-.005.013-.006.01-.005.012-.005.012-.01.025-.01.024-.006.012-.003.011-.005.01-.004.013-.005.011-.004.01-.003.01-.002.009-.003.009-.002.007a.207.207 0 00.033.181c.036.049.095.102.15.203 0 0 .064-.086.07-.13a.595.595 0 00-.018-.2c-.013-.045-.067-.192-.114-.341zm-.224.797l.009-.009.008-.009.009-.009.007-.009.009-.009.007-.009.008-.009.007-.01.005-.01.007-.009.002-.005.004-.004.003-.005.002-.004.001-.005.004-.003.002-.004.001-.005.002-.004.002-.004.002-.003.001-.004c.012-.038.016-.091-.015-.133-.037-.048-.084-.104-.087-.148h-.004c-.001.045-.048.1-.087.148a.148.148 0 00-.014.133.45.45 0 00.103.142h.002zm.172-.14l.002.002.002.002.002.001.001.002.002.004.003.003.004.006.005.005.005.007.006.006.005.007.007.007.005.01.007.006.007.01.005.006.014.018.012.016.007.01.007.008.005.01.005.007.007.009.006.007.005.007.003.007.005.007.004.007.003.006.004.005.002.004v.002l.001.001v.002c.018.045.044.126.007.183a.637.637 0 01-.198.189s.082-.131.073-.24c-.005-.069-.055-.13-.066-.171a.301.301 0 01.026-.178zm.235-.082l-.002.002-.002.003-.002.002-.001.004-.002.003-.003.004-.002.004-.002.003-.002.006-.001.003-.004.006-.002.003-.001.006-.002.003-.005.011-.004.01-.003.012-.004.01-.003.011-.004.01-.001.008v.005l-.002.006v.005l-.002.007v.006a.473.473 0 00.04.202c.04.113.103.24.134.298 0 0 .056-.084.087-.158 0 0-.089-.125-.127-.213-.044-.105-.061-.201-.078-.282zm.041-.05v.004l.002.005v.006l.002.007.001.007.002.01.002.011.002.013.003.013.004.014.003.016.004.016.005.016.005.018.005.02.005.018.007.02.007.021.007.02.009.021.009.022.008.021.01.022.011.021.01.022.012.021.013.024.014.021.014.02.013.021.016.022c.113.147.205.199.266.199.092 0 .184-.08.215-.17.03-.09.021-.232-.038-.28 0 0-.056.175-.174.183-.131.007-.303-.147-.474-.445z" fill="#0055A5"/><path d="M31.773 8.457l-.001.005-.002.006v.005l-.002.006-.002.005v.005l-.001.013-.002.013-.002.012v.068l.002.015.002.014.002.014.003.015.003.014a.291.291 0 00.113.176c.056.036.19.045.24-.086 0 0-.243.02-.352-.3zm-.587.872l.007-.004.005-.003.007-.002.005-.004.007-.004.006-.003.003-.002.004-.004.003-.001.002-.002.003-.004.004-.002.003-.003.004-.002.003-.004.004-.003.001-.004.004-.004.003-.003.004-.005.003-.004.004-.005.003-.004.004-.005.003-.006.005-.007c.03-.048.06-.138.044-.203-.021-.078-.065-.11-.089-.16-.019.019-.031.033-.057.05h-.002c-.024-.017-.038-.031-.059-.05-.026.05-.066.082-.087.16a.3.3 0 00.044.203c.038.065.067.076.102.094zm0 .493l.002-.007.004-.007.003-.01.003-.008.006-.01.005-.008.005-.01.007-.008.007-.01.007-.012.007-.009.007-.01.014-.022.015-.022.014-.021.007-.01.007-.012.007-.01.005-.01.005-.01.006-.01.005-.01.003-.01.004-.01.003-.009.002-.008v-.024c-.023-.124-.1-.099-.158-.149h-.002c-.059.05-.137.025-.158.15-.015.079.141.23.158.306zm.188-.18l-.002.007-.005.009-.004.009-.005.009-.005.009-.005.009-.005.009-.006.009-.012.018-.014.018-.012.018-.013.018-.013.018-.005.007-.007.009-.005.009-.005.009-.005.007-.004.009-.005.007-.003.009-.004.007-.002.007-.001.007-.002.008-.002.007v.005c.004.183.08.294.097.355 0 0 .143-.116.167-.249.014-.069-.002-.273-.113-.373zm.16.128l-.002-.004-.002-.006-.001-.005-.004-.006-.002-.007-.003-.005-.002-.007-.003-.007-.004-.008-.003-.008-.004-.008-.003-.007-.007-.016-.009-.016-.008-.018-.01-.016-.004-.007-.006-.008-.005-.007-.005-.007-.005-.007-.005-.007-.006-.007-.005-.006-.005-.005-.005-.006-.005-.005-.007-.006s-.077-.233.17-.376c0 0 .102.138.13.27.028.132-.108.21-.17.329zm.309-.591l.007.01.009.01.008.01.009.011.009.009.008.01.009.011.009.01.01.009.009.01.003.004.005.003.006.006.003.003.005.004.004.004.005.003.004.002.005.004.003.003.005.002.004.002s.015.104.007.174c-.012.102-.079.208-.105.287 0 0-.109-.147-.12-.233-.013-.087-.011-.156-.015-.198 0 0 .06-.1.094-.17zm.285.503l.003-.006.004-.005.003-.007.006-.006.003-.009.005-.007.005-.009.004-.009.005-.01.005-.01.005-.01.007-.013.005-.01.006-.013.005-.011.005-.013.01-.025.011-.027.009-.027.005-.012.003-.013.004-.014.003-.013.004-.012.002-.014.001-.013.002-.013v-.025s-.122.068-.222.018c0 0-.014.169.005.224a.23.23 0 00.087.114zm-.028.034l-.002-.002-.001-.001-.004-.004-.001-.002-.004-.002-.002-.001-.003-.004-.002-.002-.003-.003-.004-.002-.001-.004-.004-.003-.007-.006-.007-.007-.005-.006-.007-.007-.005-.005-.003-.004-.004-.002-.002-.003-.003-.004-.004-.002-.001-.003-.002-.002-.004-.004-.001-.001-.002-.004s-.08.154-.094.2c0 0 .04.008.083-.024a.53.53 0 00.1-.086zm-.375-.091l.002.002v.002l.002.003v.002l.001.004.002.002v.003l.002.004.003.007.005.007.004.01.005.006.005.01.007.01.005.01.007.01.007.009.006.01.014.02.013.022.007.009.007.01.007.01.005.009.007.009.006.009.006.007.006.007.005.007.003.006.002.001.004.004.001.002.002.002.002.002v.001l.002.002.001.002s-.01.068-.057.165a.74.74 0 01-.153.2s-.08-.144-.104-.207c-.028-.074-.026-.147-.013-.174.027-.064.12-.155.164-.236zm-.537 1.114l.002-.006.002-.005.002-.005.001-.006.004-.004.001-.005.004-.005.003-.006.004-.005.003-.005.006-.008.003-.005.009-.01.008-.014.009-.012.01-.012.009-.015.009-.014.005-.007.003-.008.006-.007.003-.007.003-.007.004-.009.003-.007.004-.009a.222.222 0 00-.004-.158c-.022-.048-.107-.17-.118-.204-.01.034-.094.156-.118.204a.215.215 0 00-.002.158c.032.09.106.15.119.203h.003zm.339-.622l-.002.007-.003.006-.004.007-.003.005-.004.008-.005.007-.003.005-.006.007-.005.007-.005.01-.009.014-.01.016-.01.014-.011.016-.009.016-.008.016-.006.01-.003.007-.004.008-.005.008-.002.007-.003.009-.003.007-.002.009-.002.007-.002.007a.32.32 0 00.014.155c.018.04.07.123.104.186 0 0 .12-.117.146-.199a.306.306 0 00-.015-.208c-.03-.056-.092-.115-.12-.174zm.34-.017l-.003.008-.004.007-.003.005-.003.007-.004.008-.003.005-.01.012-.008.015-.01.013-.009.012-.01.013-.009.012-.009.013-.008.012-.004.005-.003.008-.004.005-.003.007-.004.006-.003.005-.002.007-.002.005-.003.006-.002.007a.27.27 0 00.009.201c.03.073.066.117.078.161 0 0 .097-.129.113-.182a.353.353 0 00.002-.2 1.996 1.996 0 00-.079-.182zm-.681 1.634l.002-.007.002-.007.001-.007.004-.01.003-.008.004-.01.003-.01.005-.012.006-.011.005-.013.005-.012.005-.015.007-.014.005-.014.007-.015.006-.016.006-.014.007-.016.006-.018.005-.016.007-.018.005-.018.005-.018.005-.018.006-.018.003-.018.004-.02.003-.018.003-.02.002-.019.002-.018v-.02c.005-.104-.087-.268-.137-.33h-.004c-.05.062-.139.226-.137.33.007.206.134.404.14.468zm.204-1.138v.001h.001v.002l.002.002.002.002.002.002.001.001.002.004.002.002.003.003.002.004.002.004.007.007.005.009.007.009.006.009.008.01.006.011.01.011.006.013.007.012.009.012.007.013.008.013.007.014.007.012.007.013.005.014.007.013.006.012.005.015.003.012.004.013.003.01.002.013v.022c-.004.138-.092.227-.106.314 0 0-.087-.103-.12-.17-.038-.08-.068-.144-.056-.232.01-.088.032-.143.12-.231zm.307-.022l-.003.004-.002.005-.003.006-.004.005-.003.005-.004.008-.003.007-.005.007-.004.007-.003.007-.004.01-.005.006-.003.01-.004.008-.009.018-.003.01-.004.01-.003.009-.002.009-.003.01-.002.01-.003.009-.002.008-.002.011v.01l-.002.008v.016l.002.01v.008l.004.007c.019.081.102.194.13.244 0 0 .066-.14.081-.204.014-.065.002-.169-.132-.298z" fill="#0055A5"/><path d="M31.3 12.068l.003-.015.001-.014.002-.014.002-.015.003-.014.002-.013.004-.012.003-.013.005-.012.004-.013.003-.01.005-.013.006-.01.003-.012.01-.021.01-.02.01-.02.008-.018.01-.017.003-.01.003-.008.004-.01.003-.008.003-.008.002-.008.002-.008.002-.007a.359.359 0 00-.06-.288 2.713 2.713 0 01-.165.444l-.005.01c0-.004-.002-.006-.003-.01a2.615 2.615 0 01-.167-.444.365.365 0 00-.06.288c.017.083.105.181.116.343.01.163-.167.224-.167.224.06.021.128.032.236-.073a.223.223 0 00.045-.063.318.318 0 00.045.063c.11.105.178.095.237.073 0 0-.176-.061-.167-.224zm-.557-1.078l.002.005.004.008.001.005.002.007.004.008.003.007.002.007.003.007.005.014.007.015.007.016.006.014.006.017.004.007.002.007.003.005.004.007.001.007.002.006.004.007.001.006.002.005.002.004.002.005.001.003v.006l.002.002c.014.064-.005.143-.118.226 0 0-.073-.054-.103-.124-.027-.065-.01-.111.018-.144.028-.036.095-.113.121-.165zm.24.24v.013l-.002.007v.013l-.001.009v.007l-.002.009-.002.009-.002.01-.001.011-.002.011-.002.01-.002.012-.001.01-.005.024-.006.023-.006.025-.004.01-.002.011-.005.013-.003.01-.004.011-.003.011-.006.011-.003.009-.005.009-.004.009c-.07.127-.175.224-.267.224-.084 0-.101-.052-.145-.073 0 0 .021-.112.117-.14a.782.782 0 00.368-.318z" fill="#0055A5"/><path d="M30.68 11.463l-.004-.004-.004-.001-.007-.006-.003-.003-.004-.002-.005-.004-.003-.002-.004-.003-.003-.004-.002-.001-.002-.002-.002-.002-.001-.002-.004-.002-.002-.002-.001-.001-.002-.002-.002-.004-.003-.002-.002-.001-.002-.004s-.088.034-.165.086c-.073.052-.146.14-.184.185 0 0 .11.029.18-.004 0 0 .027-.109.105-.157.02-.011.073-.03.125-.056zm-.095-.093l-.001-.002-.002-.004-.002-.002-.002-.003-.001-.004-.002-.003-.002-.004-.002-.004-.001-.003-.004-.004-.001-.005-.002-.004-.002-.003-.002-.006-.001-.005-.002-.004-.004-.005-.001-.005v-.006l-.002-.005-.002-.005-.002-.006-.001-.007v-.005l-.002-.006v-.014l-.002-.005v-.015l.002-.007v-.007s-.156.102-.203.14c-.047.04-.144.143-.167.177 0 0 .118-.027.21-.057.1-.034.167-.08.203-.102zm-.264.174l-.007.003-.008.002-.01.004-.01.003-.01.002-.01.004-.012.002-.01.003-.013.004-.012.002-.024.005-.025.007-.026.006-.024.005-.026.005-.024.006-.01.001-.013.004-.01.002-.012.003-.01.002-.01.002-.01.003-.009.002-.008.002-.007.004a.433.433 0 00-.212.15s.114.033.177.054c0 0 .099-.07.207-.111.07-.029.104-.106.178-.181zm-.175.576l.003-.004.004-.004.003-.005.004-.004.001-.001.002-.004.002-.002.002-.002v-.003l.001-.002.002-.004.002-.002v-.003l.002-.002v-.007l.001-.002v-.021l-.002-.004v-.003l-.001-.006v-.003l-.002-.006c-.012-.034-.082-.073-.123-.093-.068-.034-.256-.086-.317-.106 0 0-.03.038-.046.077-.01.016.001.03.027.034.054.011.18-.014.21.007.034.022.021.052.021.081 0 0 .058-.036.094-.027.05.011.082.036.11.12zm-.167-.27h.003l.002.002h.001l.004.002h.003l.004.002.003.001h.004l.003.002.006.002.003.002.005.002.005.001.006.002.005.004.005.002.005.001.007.004.005.002.007.003.005.004.007.002.007.003.006.004.006.004.008.003.006.004.006.003.006.006.008.003.006.004s.032-.013.047-.043c.016-.029.08-.128.14-.14 0 0-.051-.004-.08-.014 0 0-.06.016-.105.035a.77.77 0 00-.16.088zm.485-.123h-.002l-.004.001-.001.002h-.004l-.002.002h-.003l-.002.002h-.003l-.002.002h-.005l-.002.001h-.005l-.002.002h-.009l-.003.002h-.011l-.003.002h-.012s-.165.118-.184.235c-.018.102.034.15.059.163.026.014.14.06.215-.097 0 0-.127.043-.163-.02-.033-.064.022-.157.057-.182.047-.036.129-.062.18-.05 0 0-.042-.04-.09-.065z" fill="#0055A5"/><path d="M29.381 13.08l.007-.031.009-.033.008-.034.004-.016.005-.016.005-.016.005-.018.006-.016.005-.016.007-.016.005-.017.007-.016.007-.016c.075-.163.259-.599.641-.674.035-.009-.042-.1-.076-.095-.035.003-.103.05-.133.07l-.001-.11c0-.015-.014-.023-.03-.023-.014.002-.107 0-.135.036-.089.104-.235.384-.318.592-.084.208-.141.272-.23.24-.087-.032-.139-.136-.293-.104a.31.31 0 00-.159.103c.014.025.03.057.101.057.072 0 .21.03.285.084a.509.509 0 00.268.086zm1.525-1.348l.002.013.002.012.003.013.004.013.003.012.006.013.003.01.005.013.005.013.006.012.005.013.007.01.005.013.007.013.005.012.007.013s-.115.554-.537.595c0 0 .009-.115.132-.201.125-.088.313-.224.3-.43 0 0-.036.007-.095.084-.059.077-.19.301-.392.303 0 0 .03-.106.12-.165.088-.06.203-.138.255-.231a.363.363 0 01.142-.153zm-.2 2.02l.258.37.194-.356-.07-.13-.135.254c-.022-.036-.087-.13-.172-.253l-.075.114z" fill="#0055A5"/><path d="M30.643 13.437l-.047-.068-.049-.07-.049-.07-.048-.07-.049-.07-.047-.068-.022-.032-.023-.032-.023-.033-.02-.03-.021-.03-.02-.03-.018-.028-.02-.027-.017-.025-.017-.023-.016-.024-.014-.02-.014-.019-.012-.018-.01-.016-.009-.014-.009-.011-.007-.011-.005-.007-.003-.005.097-.072-.306-.12.005.342.105-.077.615.893.073-.115zm-2.106-2.024l.007-.008.008-.007.007-.005.009-.005.008-.004.009-.004.009-.001.008-.002.01-.002h.01l.008.002h.01l.011.003.01.002.011.004.01.003.01.006.013.005.01.005.013.006.01.007.012.007.013.01.01.006.012.01.012.008.012.01.013.01.012.01.01.011.012.011.012.01c.129.123.21.248.136.334-.07.077-.205.011-.332-.11-.13-.123-.21-.248-.136-.332z" fill="#0055A5"/><path d="M28.745 12.92l-.001-.002-.002-.002-.002-.002h-.002v-.002h-.001v-.001h-.002v-.002h-.002a.355.355 0 01-.108-.262c0-.2.159-.364.352-.364.194 0 .352.163.352.364 0 .027-.005.07-.005.07a6.21 6.21 0 00.085-.194.45.45 0 00-.432-.339.449.449 0 00-.404.26.817.817 0 01.18-.409c.074-.073.203-.096.203-.096-.086.012-.193-.04-.319-.156-.116-.111-.175-.208-.18-.289a.633.633 0 01-.026.273c-.044.125-.16.358-.118.622.022.145.123.36.295.536.035.04.049.099.054.13 0 0 .25 0 .311.005 0 0 .06-.006.056-.045 0-.038-.033-.047-.061-.047-.032 0-.157.002-.223-.049zm1.387.087l-.03.01-.03.011-.03.01-.03.008-.031.01-.03.008-.03.007-.029.008-.03.007-.03.005-.03.006-.03.005-.057.01-.059.01a1.435 1.435 0 01-.288.018.09.09 0 01-.007.051s.017.022.017.049a2.468 2.468 0 00.812-.149l-.058-.084zm.263-.013l.04-.023.04-.025.04-.027.04-.029.038-.03.04-.032.038-.034.04-.036.039-.038.036-.04.038-.042.037-.045.038-.049.036-.048.035-.052.019-.027.017-.029.033-.057c-.05.023-.116.007-.116.007a1.606 1.606 0 01-.586.574l.058.082zm-1.41.094h-.017l-.006-.002h-.057l-.012.002h-.014l-.012.002h-.014l-.012.001h-.012l-.007.002h-.005l-.006.002h-.005c-.062.009-.132.023-.14.057-.006.034.015.07.046.12.021.03.066.015.09.004.027-.01.173-.09.195-.117.023-.025.032-.063-.012-.071zm.148.101l-.002-.002-.002-.002h-.002l-.001-.002h-.002l-.002-.001-.001-.002h-.004l-.002-.002h-.003l-.002-.002h-.003l-.002-.001h-.007l-.002-.002h-.007l-.003-.002h-.026l-.003.002h-.003l-.004.002h-.003l-.004.001h-.003c-.04.016-.183.104-.193.144-.009.041.01.063.033.072a.27.27 0 00.07.02.116.116 0 00.088-.044c.017-.023.083-.106.094-.125.008-.017.015-.045 0-.054zm.017.089l-.002.002-.002.003-.003.002-.002.004-.003.004-.004.003-.001.004-.004.003-.003.004-.004.005-.003.004-.004.003-.005.01-.007.008-.003.004-.004.005-.003.004-.004.003-.002.004-.003.004-.003.003-.002.004-.004.003-.002.004-.001.002-.002.003-.002.002v.002h-.002v.002l-.001.002c-.007.01.003.03.02.027a.43.43 0 00.174-.052c.056-.04.094-.115.056-.144-.04-.029-.1-.015-.165.059zm.031-.221h-.003l-.004-.001h-.005l-.003-.002h-.004l-.003-.002h-.007l-.006-.002h-.003l-.003-.001h-.014l-.004-.002h-.024l-.004.002h-.003l-.004.001h-.003v.002h-.004l-.001.002-.002.002h-.002v.002h-.001v.001c-.021.033-.007.065.052.094.057.028.165.051.186.021.02-.03-.008-.082-.13-.117zm2.449-2.067l-.002.005-.004.008-.002.005-.001.007-.004.008-.001.007-.004.007-.003.007-.006.014-.007.015-.005.016-.007.014-.007.017-.003.007-.002.007-.003.005-.004.007-.002.007-.003.006-.002.007-.002.006-.001.005-.002.004-.002.005-.002.003-.001.006v.002c-.012.064.005.143.118.226 0 0 .075-.054.102-.124a.133.133 0 00-.015-.144c-.03-.036-.096-.113-.123-.165zm-.24.24l.001.004v.022l.002.007v.009l.002.007.002.009v.009l.001.01.002.011.002.011.002.01.003.012.002.01.005.024.005.023.005.025.004.01.003.011.004.013.003.01.006.011.003.011.004.011.005.009.005.009.003.009c.072.127.174.224.268.224.083 0 .103-.052.143-.073 0 0-.021-.112-.117-.14a.782.782 0 01-.368-.318z" fill="#0055A5"/><path d="M31.694 11.463l.005-.004.003-.001.007-.006.004-.003.003-.002.004-.004.003-.002.004-.003.003-.004.002-.001.002-.002.001-.002.004-.002.002-.002.001-.002.002-.001.002-.002.002-.004.003-.002.002-.001.001-.004s.09.034.166.086c.072.052.145.14.185.185 0 0-.11.029-.182-.004 0 0-.026-.109-.104-.157-.017-.011-.073-.03-.125-.056zm.094-.093l.001-.002.002-.004.002-.002.002-.003.001-.004.002-.003.002-.004.003-.004.002-.003.002-.004.001-.005.002-.004.004-.003.001-.006.002-.005.002-.004.002-.005.001-.005.002-.006.002-.005.002-.005.001-.006v-.007l.002-.005v-.006l.002-.007v-.012l.001-.008v-.007l-.001-.007v-.007s.156.102.203.14c.045.04.144.143.165.177 0 0-.118-.027-.209-.057-.099-.034-.168-.08-.204-.102zm.264.174l.008.003.009.002.009.004.01.003.01.002.011.004.01.002.013.003.01.004.012.002.025.005.026.007.024.006.026.005.024.005.025.006.012.001.012.004.01.002.01.003.011.002.01.002.01.003.008.002.009.002.009.004a.45.45 0 01.212.15s-.117.033-.178.054c0 0-.099-.07-.208-.111-.072-.029-.105-.106-.18-.181zm.175.576l-.003-.004-.004-.004-.003-.005-.004-.004-.001-.001-.002-.004-.002-.002-.002-.002v-.003l-.001-.002-.002-.004-.002-.002v-.003l-.002-.002v-.007l-.001-.002v-.021l.001-.004v-.003l.002-.006.002-.003v-.006c.014-.034.082-.073.123-.093.07-.034.257-.086.318-.106 0 0 .03.038.047.077.005.016-.003.03-.03.034-.051.011-.178-.014-.208.007-.033.022-.022.052-.022.081 0 0-.058-.036-.094-.027-.05.011-.08.036-.11.12zm.168-.27h-.003l-.002.002h-.003l-.002.002h-.003l-.004.002-.003.001h-.004l-.005.002-.003.002-.006.002-.003.002-.005.001-.005.002-.006.004-.007.002-.005.001-.005.004-.007.002-.005.003-.007.004-.005.002-.007.003-.007.004-.007.004-.005.003-.007.004-.007.003-.007.006-.007.003-.007.004s-.031-.013-.047-.043c-.016-.029-.08-.128-.137-.14 0 0 .048-.004.078-.014a.817.817 0 01.266.124zm-.484-.123h.002l.002.001h.001l.002.002h.002l.002.002h.003l.002.002h.003l.002.002h.005l.002.001h.005l.004.002h.007l.003.002h.01l.004.002h.012s.167.118.186.235c.015.102-.035.15-.061.163-.024.014-.139.06-.215-.097 0 0 .126.043.163-.02.035-.064-.021-.157-.058-.182-.045-.036-.128-.062-.177-.05 0 0 .04-.04.09-.065z" fill="#0055A5"/><path d="M32.993 13.08l-.009-.031-.006-.033-.009-.034-.005-.016-.005-.016-.004-.016-.005-.018-.005-.016-.007-.016-.006-.016-.006-.017-.007-.016-.007-.016c-.073-.163-.258-.599-.64-.674-.036-.009.04-.1.075-.095.035.003.102.05.134.07v-.11c.002-.015.015-.023.03-.023.015.002.107 0 .137.036.087.104.234.384.316.592.085.208.142.272.23.24.086-.032.138-.136.293-.104a.296.296 0 01.158.103c-.012.025-.028.057-.1.057a.594.594 0 00-.286.084.507.507 0 01-.266.086zm-1.525-1.348l-.003.013-.002.012-.004.013-.003.013-.003.012-.004.013-.005.01-.005.013-.004.013-.007.012-.005.013-.005.01-.007.013-.006.013-.013.025s.116.554.538.595c0 0-.008-.115-.134-.2-.125-.089-.31-.225-.297-.431 0 0 .032.007.092.084s.191.301.395.303c0 0-.03-.106-.12-.165-.09-.06-.203-.138-.255-.231a.375.375 0 00-.143-.153zm-.28.538l.002.008.003.009.004.008.005.01.005.01.007.01.006.014.008.012.007.012.007.013.009.013.008.014.01.014.01.015.018.027.02.028.019.027.01.014.01.013.01.013.01.012.008.013.009.01.009.011.008.011.009.01.009.006.007.01.007.005c.067.066.238.242.33.33 0 0-.26-.067-.405-.203 0 0-.103.061-.177.061h-.006a.46.46 0 01-.178-.061c-.145.136-.404.203-.404.203.09-.088.261-.264.33-.33.07-.065.23-.298.254-.371h.002z" fill="#0055A5"/><path d="M31.188 12.885h.01l.005-.001h.016l.01-.002.011-.002.009-.004.01-.002.009-.003.01-.002.009-.003.007-.004.009-.002.003-.002.004-.001.003-.002.004-.002.003-.002h.003l.004-.002.003-.001a.687.687 0 01-.142.211h-.002a.665.665 0 01-.144-.211.353.353 0 00.142.037h.004z" fill="#0055A5"/><path d="M31.409 14.122l1.01-1.463.103.077.007-.342-.306.12.096.072c-.049.073-.804 1.165-.9 1.303l-.457-.857-.057.088-.407.636-.103-.07v.338l.31-.126-.104-.073c.057-.086.276-.43.35-.546l.457.843z" fill="#0055A5"/><path d="M31.595 13.547l-.026-.04-.014-.02-.012-.019-.012-.018-.013-.02-.012-.018-.01-.018-.012-.018-.01-.015-.006-.008-.005-.009-.004-.007-.005-.007-.005-.007-.004-.007-.005-.008-.003-.005-.004-.007-.005-.006-.003-.005-.004-.005a12.22 12.22 0 01-.134.25l-.073-.132.198-.366.056.088.203.316-.076.111zm.208.095l.072.114.102-.07.002.338-.31-.126.103-.073-.047-.074.078-.11zm2.035-2.229l-.007-.008-.009-.007-.007-.005-.009-.005-.008-.004-.009-.004-.009-.001-.008-.002-.009-.002h-.01l-.01.002h-.01l-.01.003-.01.002-.01.004-.011.003-.012.006-.01.005-.011.005-.012.006-.01.007-.013.007-.012.01-.012.006-.01.01-.013.008-.012.01-.012.01-.012.01-.012.011-.013.011-.012.01c-.13.123-.21.248-.133.334.07.077.201.011.331-.11.129-.123.21-.248.136-.332z" fill="#0055A5"/><path d="M33.628 12.92l.001-.002h.002v-.002h.002v-.002h.002v-.002h.001l.002-.001h.002v-.002h.002a.354.354 0 00.105-.262c0-.2-.156-.364-.352-.364a.358.358 0 00-.351.364c0 .027.005.07.005.07l-.085-.194a.45.45 0 01.43-.339c.18 0 .333.106.406.26a.817.817 0 00-.18-.409c-.074-.073-.2-.096-.2-.096.083.012.192-.04.315-.156.117-.111.178-.208.181-.289a.632.632 0 00.028.273c.043.125.158.358.118.622-.023.145-.125.36-.295.536a.244.244 0 00-.054.13s-.252 0-.31.005c0 0-.06-.006-.059-.045 0-.038.035-.047.063-.047.031 0 .155.002.22-.049zm-1.651.074l-.04-.023-.04-.025-.04-.027-.038-.029-.04-.03-.04-.032-.038-.034-.038-.036-.038-.038-.039-.04-.038-.042-.036-.045-.037-.049-.036-.048-.037-.052-.017-.027-.019-.029-.033-.057c.052.023.116.007.116.007.006.006.012.02.016.025.177.268.372.438.57.547l-.058.084zm.264.013l.03.01.03.011.03.01.031.008.03.01.03.008.03.007.03.008.03.007.03.005.029.006.03.005.058.01.058.01c.099.016.196.021.288.018 0 .016 0 .035.007.051 0 0-.016.022-.016.049a1.515 1.515 0 01-.295-.02 2.559 2.559 0 01-.52-.129l.06-.084zm1.147.081h.019l.005-.002h.056l.014.002h.012l.014.002h.012l.014.001h.012l.005.002h.007l.005.002h.005c.061.009.13.023.14.057.006.034-.016.07-.047.12-.02.03-.065.015-.09.004a1.072 1.072 0 01-.195-.117c-.023-.025-.032-.063.012-.071zm-.146.101l.002-.002v-.002h.001l.004-.002h.002l.001-.001.002-.002h.002l.003-.002h.002l.003-.002h.002l.004-.001h.005l.003-.002h.006l.003-.002h.024l.004.002h.003l.004.002h.003l.004.001h.003c.04.016.183.104.193.144.009.041-.01.063-.031.072a.304.304 0 01-.072.02.109.109 0 01-.086-.044 1.329 1.329 0 01-.094-.125c-.01-.017-.016-.045 0-.054zm-.02.089l.002.002.004.003.002.002.001.004.004.004.003.003.002.004.003.003.004.004.003.005.004.004.003.003.007.01.007.008.007.01.002.003.003.003.004.004.003.004.002.003.003.004.002.003.004.004.001.002.002.003.002.002.002.002v.002l.001.002c.006.01-.005.03-.022.027a.416.416 0 01-.172-.052c-.058-.04-.094-.115-.056-.144.038-.029.1-.015.163.059zm-.03-.221h.005l.002-.001h.005l.003-.002h.004l.003-.002h.007l.006-.002h.003l.005-.001h.012l.004-.002h.024l.004.002h.003l.003.001h.004l.002.002h.003v.002h.002l.002.002.001.002.002.001c.02.033.005.065-.052.094-.057.028-.167.051-.188.021-.02-.03.009-.082.13-.117z" fill="#0055A5"/></g><path d="M18.15 22.97h-3.62v2.694h4.23v1.216H13v-8.76h5.719v1.228H14.53v2.418h3.619v1.203zm3.842-4.85l2.542 6.714 2.536-6.714h1.978v8.76h-1.525v-2.888l.152-3.862-2.602 6.75h-1.096l-2.596-6.744.151 3.856v2.888h-1.524v-8.76h1.984zm13.477 6.504c0-.385-.137-.682-.412-.89-.27-.21-.76-.42-1.47-.632-.71-.213-1.275-.45-1.694-.71-.803-.502-1.205-1.155-1.205-1.962 0-.705.289-1.287.866-1.744.58-.457 1.333-.686 2.257-.686.613 0 1.16.112 1.64.337.48.224.857.545 1.132.962.274.414.41.873.41 1.378H35.47c0-.457-.145-.814-.436-1.07-.286-.261-.698-.392-1.234-.392-.5 0-.89.107-1.168.32-.275.212-.412.508-.412.89 0 .32.15.589.448.806.299.212.79.42 1.477.625.686.2 1.236.431 1.652.692.415.257.72.554.913.89.194.333.291.724.291 1.174 0 .73-.282 1.311-.847 1.744-.561.43-1.323.644-2.288.644a4.38 4.38 0 01-1.76-.349c-.533-.237-.949-.561-1.247-.974a2.423 2.423 0 01-.442-1.444h1.531c0 .497.165.882.496 1.155.331.272.805.409 1.422.409.533 0 .932-.107 1.198-.32.27-.216.406-.5.406-.853z" fill="#0055A5"/><defs><clipPath id="clip0"><path fill="#fff" transform="translate(13 4)" d="M0 0h24v12H0z"/></clipPath></defs></svg>