<svg width="100" height="34" fill="none" xmlns="http://www.w3.org/2000/svg"><path d="M1.407 12.268C-1.413 17.164.38 24.594 3.5 29.098c1.557 2.253 3.134 4.275 5.293 4.275l.124-.003c1.014-.04 1.748-.353 2.456-.654.796-.34 1.62-.69 2.91-.69 1.229 0 2.013.339 2.77.667.748.323 1.517.657 2.655.636 2.432-.045 3.926-2.227 5.244-4.151a18.402 18.402 0 002.297-4.706l.01-.03a.274.274 0 00-.166-.344c-.428-.175-4.186-1.842-4.225-6.386-.037-3.691 2.819-5.646 3.391-6l.027-.017a.274.274 0 00.078-.384c-1.971-2.884-4.992-3.32-6.209-3.371a5.477 5.477 0 00-.541-.027c-1.429 0-2.797.54-3.897.973-.759.3-1.414.558-1.867.558-.508 0-1.167-.262-1.93-.565-1.021-.405-2.178-.864-3.403-.864H8.43c-2.849.043-5.54 1.672-7.024 4.253z" fill="#000"/><path d="M20.158 0c-1.725.07-3.794 1.132-5.03 2.58-1.052 1.218-2.078 3.248-1.808 5.294a.274.274 0 00.25.237c.117.01.235.014.354.014 1.686 0 3.506-.933 4.748-2.436 1.308-1.586 1.969-3.622 1.769-5.445A.275.275 0 0020.158 0zm15.697 9.07h3.854c.921 0 1.734.179 2.437.534.71.348 1.26.84 1.648 1.479.396.638.594 1.382.594 2.23 0 .849-.198 1.592-.594 2.23-.388.639-.937 1.136-1.648 1.492-.703.347-1.516.52-2.437.52h-3.854V9.072zm3.757 6.873c.849 0 1.523-.234 2.024-.702.51-.477.764-1.12.764-1.928 0-.808-.254-1.446-.764-1.915-.5-.477-1.175-.715-2.024-.715h-1.794v5.26h1.794zm9.227 1.71c-.687 0-1.306-.142-1.855-.425a3.252 3.252 0 01-1.273-1.2c-.307-.509-.46-1.086-.46-1.733 0-.646.153-1.224.46-1.733.307-.51.732-.905 1.273-1.188.55-.291 1.168-.437 1.855-.437.686 0 1.3.146 1.842.437.541.283.966.679 1.273 1.188.307.509.46 1.087.46 1.733 0 .646-.153 1.224-.46 1.733-.307.51-.732.91-1.273 1.2-.541.283-1.156.425-1.842.425zm0-1.552c.484 0 .88-.161 1.187-.485.316-.331.473-.771.473-1.32 0-.55-.157-.987-.473-1.31-.307-.331-.703-.497-1.187-.497-.485 0-.885.166-1.2.497-.316.323-.473.76-.473 1.31 0 .549.157.989.473 1.32.315.324.715.485 1.2.485zm15.134-5.066l-2.363 6.52h-1.818l-1.467-4.048-1.515 4.049h-1.818l-2.352-6.522h1.782l1.54 4.413 1.6-4.412h1.6l1.55 4.412 1.589-4.412h1.672zm4.843-.098c.808 0 1.459.243 1.952.728.5.485.751 1.204.751 2.157v3.734h-1.89v-3.443c0-.517-.114-.9-.34-1.151-.227-.259-.554-.388-.982-.388-.477 0-.857.15-1.14.448-.282.291-.424.728-.424 1.31v3.224h-1.89v-6.522h1.806v.764a2.45 2.45 0 01.933-.63c.371-.154.78-.23 1.224-.23zm4.417-2.375h1.891v8.994h-1.89V8.562zm6.749 9.09c-.687 0-1.305-.14-1.855-.424a3.251 3.251 0 01-1.272-1.2c-.307-.509-.46-1.086-.46-1.733 0-.646.153-1.224.46-1.733.307-.51.731-.905 1.272-1.188.55-.291 1.168-.437 1.855-.437s1.3.146 1.842.437c.542.283.966.679 1.273 1.188.307.509.46 1.087.46 1.733 0 .646-.153 1.224-.46 1.733-.307.51-.731.91-1.273 1.2-.541.283-1.155.425-1.842.425zm0-1.55c.485 0 .88-.162 1.188-.486.315-.331.472-.771.472-1.32 0-.55-.157-.987-.472-1.31-.307-.331-.703-.497-1.188-.497s-.885.166-1.2.497c-.315.323-.473.76-.473 1.31 0 .549.158.989.473 1.32.315.324.715.485 1.2.485zm7.363-5.165c1.01 0 1.786.243 2.328.728.541.477.812 1.2.812 2.17v3.72h-1.77v-.811c-.356.606-1.018.909-1.988.909-.5 0-.937-.085-1.309-.255a1.95 1.95 0 01-.836-.703 1.83 1.83 0 01-.291-1.018c0-.606.226-1.083.679-1.43.46-.348 1.167-.522 2.12-.522h1.504c0-.412-.125-.727-.376-.945-.25-.226-.626-.34-1.127-.34-.348 0-.691.057-1.03.17a2.63 2.63 0 00-.849.437l-.679-1.322a4.1 4.1 0 011.273-.581 5.794 5.794 0 011.54-.207zM87.2 16.38c.323 0 .61-.073.86-.218.251-.154.429-.376.534-.667v-.667h-1.297c-.776 0-1.164.255-1.164.764 0 .242.093.436.279.582.194.137.457.206.788.206zm11.71-7.818v8.994h-1.806v-.752c-.47.566-1.148.849-2.037.849a3.42 3.42 0 01-1.673-.412 2.962 2.962 0 01-1.163-1.176c-.283-.51-.424-1.1-.424-1.77 0-.67.14-1.26.424-1.77.283-.509.67-.9 1.163-1.175a3.421 3.421 0 011.673-.412c.833 0 1.483.262 1.952.787V8.562h1.89zm-3.516 7.54c.477 0 .873-.162 1.188-.486.315-.331.473-.771.473-1.32 0-.55-.158-.987-.473-1.31a1.57 1.57 0 00-1.188-.497c-.484 0-.884.166-1.2.497-.315.323-.472.76-.472 1.31 0 .549.157.989.472 1.32.316.324.716.485 1.2.485zM37.33 21.977c-.278 0-.49.076-.636.227-.14.152-.209.376-.209.673v.564h1.473v.545h-1.455v4.237h-.645v-4.237h-.855v-.545h.855v-.591c0-.436.124-.782.372-1.036.255-.255.613-.382 1.073-.382.182 0 .358.027.527.082.17.048.313.12.428.218l-.219.482c-.187-.158-.424-.237-.709-.237zm3.374 6.291a2.52 2.52 0 01-1.246-.309 2.32 2.32 0 01-.872-.873 2.475 2.475 0 01-.319-1.254c0-.467.107-.885.319-1.255.212-.37.503-.657.872-.863.37-.206.785-.31 1.246-.31.46 0 .876.104 1.245.31.37.206.658.494.864.863.212.37.318.788.318 1.255 0 .466-.106.885-.318 1.254-.206.37-.494.66-.864.873-.37.206-.785.31-1.245.31zm0-.573c.34 0 .642-.075.909-.227.273-.157.485-.379.636-.663a2.04 2.04 0 00.228-.973 2.04 2.04 0 00-.228-.973 1.578 1.578 0 00-.636-.655 1.753 1.753 0 00-.91-.236c-.339 0-.645.079-.917.236-.267.152-.48.37-.637.655a2.04 2.04 0 00-.227.973c0 .363.076.688.227.973.158.284.37.506.637.663.272.152.578.227.918.227zm4.363-3.318a1.57 1.57 0 01.673-.727c.303-.164.676-.245 1.118-.245v.627l-.155-.01c-.503 0-.897.155-1.181.464-.285.31-.428.743-.428 1.3v2.437h-.645V23.44h.618v.936zm5.546-2.518h.673v6.364h-.673v-6.364zm5.525 6.418a3.55 3.55 0 01-1.718-.418 3.162 3.162 0 01-1.2-1.164 3.235 3.235 0 01-.427-1.654c0-.612.142-1.164.427-1.655.291-.49.691-.875 1.2-1.154a3.49 3.49 0 011.718-.427c.63 0 1.197.139 1.7.418.51.279.91.666 1.2 1.163.291.491.437 1.043.437 1.655a3.23 3.23 0 01-.437 1.663c-.29.491-.69.876-1.2 1.155a3.447 3.447 0 01-1.7.418zm0-.6c.503 0 .958-.112 1.364-.336a2.51 2.51 0 00.954-.946c.23-.406.346-.857.346-1.354 0-.497-.115-.946-.346-1.346a2.427 2.427 0 00-.954-.945 2.715 2.715 0 00-1.364-.346c-.503 0-.96.116-1.372.346a2.49 2.49 0 00-.964.945c-.23.4-.346.849-.346 1.346 0 .497.116.948.346 1.354.236.4.558.715.964.946.412.224.87.336 1.372.336zm6.6.6c-.474 0-.928-.076-1.364-.227-.43-.152-.764-.352-1-.6l.263-.518c.23.23.536.418.918.563.382.14.776.21 1.182.21.57 0 .997-.104 1.282-.31.285-.212.427-.485.427-.818 0-.254-.079-.457-.236-.609a1.475 1.475 0 00-.564-.345 8.3 8.3 0 00-.936-.273c-.479-.121-.86-.236-1.146-.346a1.965 1.965 0 01-.736-.518c-.2-.23-.3-.542-.3-.936 0-.321.085-.612.255-.873.17-.267.43-.479.781-.636.352-.158.788-.236 1.31-.236.363 0 .718.051 1.063.154.352.097.655.233.91.41l-.228.535a3.025 3.025 0 00-.855-.39 3.088 3.088 0 00-.89-.137c-.558 0-.98.11-1.264.328a.993.993 0 00-.418.827c0 .254.075.46.227.618.158.152.352.27.582.355.236.078.551.166.945.263.467.115.843.23 1.127.346.291.109.537.278.737.509.2.224.3.53.3.918 0 .321-.088.615-.264.882-.17.26-.433.47-.79.627-.358.151-.798.227-1.319.227z" fill="#000"/></svg>