<svg width="50" height="50" viewBox="0 0 50 50" fill="none" xmlns="http://www.w3.org/2000/svg">
<path d="M23.67 6.465C22.8575 6.005 21.8942 6.02 21.095 6.50167C21.0567 6.52417 21.02 6.55083 20.9867 6.57917L9.695 16.1317H0.833333C0.3725 16.1317 0 16.5042 0 16.965V32.7983C0 33.02 0.0875 33.2317 0.244167 33.3875C0.400833 33.5433 0.611667 33.6317 0.833333 33.6317L9.675 33.6275L20.9608 43.9942C21.0025 44.0325 21.0475 44.0658 21.095 44.0942C21.505 44.3417 21.9592 44.4658 22.4133 44.4658C22.8442 44.465 23.2742 44.3542 23.67 44.1308C24.5025 43.6608 25 42.8025 25 41.8342V8.76167C25 7.79417 24.5025 6.93583 23.67 6.465ZM23.3333 41.8342C23.3333 42.1933 23.1525 42.5092 22.8508 42.68C22.7217 42.7525 22.3942 42.8925 22.0175 42.7017L10.8333 32.4275V28.6308C10.8333 28.17 10.4608 27.7975 10 27.7975C9.53917 27.7975 9.16667 28.17 9.16667 28.6308V31.9608L1.66667 31.9642V17.7975H9.16667V21.1308C9.16667 21.5917 9.53917 21.9642 10 21.9642C10.4608 21.9642 10.8333 21.5917 10.8333 21.1308V17.3508L22.0042 7.90083C22.3883 7.69917 22.7217 7.8425 22.8508 7.91583C23.1525 8.08667 23.3333 8.4025 23.3333 8.76167V41.8342Z" fill="black"/>
<path d="M43.3554 24.8817C43.3554 17.9259 38.9254 11.7484 32.3312 9.5092C31.8962 9.3617 31.4221 9.59504 31.2737 10.0309C31.1262 10.4659 31.3596 10.94 31.7954 11.0884C37.7129 13.0975 41.6887 18.6409 41.6887 24.8825C41.6887 31.1184 37.7204 36.6625 31.8146 38.6775C31.3796 38.8259 31.1462 39.2992 31.2954 39.7359C31.4137 40.0817 31.7371 40.3 32.0837 40.3C32.1729 40.3 32.2637 40.2859 32.3529 40.255C38.9346 38.0092 43.3554 31.8317 43.3554 24.8817Z" fill="#0057FF"/>
<path d="M37.0439 5.31168C36.6206 5.13418 36.1314 5.32918 35.9506 5.75334C35.7714 6.17751 35.9689 6.66668 36.3931 6.84668C43.6464 9.92418 48.3331 17.0042 48.3331 24.8817C48.3331 33.0292 43.4214 40.1983 35.8206 43.1433C35.3914 43.31 35.1781 43.7925 35.3448 44.2217C35.4723 44.5517 35.7881 44.7542 36.1223 44.7542C36.2223 44.7542 36.3239 44.7367 36.4231 44.6983C44.6706 41.5008 49.9998 33.7225 49.9998 24.8817C49.9998 16.3333 44.9139 8.65168 37.0439 5.31168Z" fill="#0057FF"/>
<path d="M35.8547 24.8817C35.8547 19.905 32.5139 15.4634 27.7306 14.08C27.2889 13.9542 26.8273 14.2067 26.6989 14.65C26.5714 15.0917 26.8256 15.5542 27.2689 15.6817C31.3431 16.8592 34.1889 20.6425 34.1889 24.8817C34.1889 29.1209 31.3431 32.9042 27.2689 34.0817C26.8264 34.2092 26.5714 34.6717 26.6989 35.1134C26.8048 35.4784 27.1373 35.7159 27.4998 35.7159C27.5764 35.7159 27.6539 35.705 27.7306 35.6834C32.5148 34.2992 35.8547 29.8575 35.8547 24.8817Z" fill="#0057FF"/>
</svg>
