<svg width="29" height="50" viewBox="0 0 29 50" fill="none" xmlns="http://www.w3.org/2000/svg">
<path d="M18.3326 2.5H9.99932C9.53936 2.5 9.16602 2.87334 9.16602 3.3333C9.16602 3.79326 9.53936 4.1666 9.99932 4.1666H18.3326C18.7926 4.1666 19.1659 3.79326 19.1659 3.3333C19.1659 2.87334 18.7926 2.5 18.3326 2.5Z" fill="#0057FF"/>
<path d="M24.1656 2.5H23.3323C22.8724 2.5 22.499 2.87334 22.499 3.3333C22.499 3.79326 22.8724 4.1666 23.3323 4.1666H24.1656C24.6256 4.1666 24.9989 3.79326 24.9989 3.3333C24.9989 2.87334 24.6256 2.5 24.1656 2.5Z" fill="#0057FF"/>
<path d="M15.2013 42.5H13.1321C11.8646 42.5 10.833 43.5316 10.833 44.7991V45.2017C10.833 46.4691 11.8646 47.5 13.1313 47.5H15.2005C16.468 47.5 17.4996 46.4691 17.4996 45.2017V44.7991C17.4996 43.5316 16.468 42.5 15.2013 42.5ZM15.833 45.2017C15.833 45.55 15.5497 45.8333 15.2014 45.8333H13.1321C12.783 45.8333 12.4996 45.55 12.4996 45.2017V44.7991C12.4996 44.45 12.7829 44.1666 13.1321 44.1666H15.2005C15.5497 44.1666 15.833 44.4499 15.833 44.7991V45.2017Z" fill="#0057FF"/>
<path d="M25.3217 0H3.0125C1.35166 0 0 1.35166 0 3.0125V46.9875C0 48.6483 1.35166 50 3.0125 50H25.3208C26.9816 50 28.3333 48.6483 28.3333 46.9884V3.0125C28.3334 1.35166 26.9817 0 25.3217 0ZM26.6667 46.9875C26.6667 47.7292 26.0634 48.3333 25.3217 48.3333H3.0125C2.27002 48.3333 1.6667 47.7291 1.6667 46.9883V3.0125C1.6667 2.2708 2.27002 1.6667 3.0125 1.6667H25.3208C26.0633 1.6667 26.6666 2.2709 26.6666 3.0125V46.9875H26.6667Z" fill="black"/>
<path d="M27.4999 5H0.833301C0.37334 5 0 5.37334 0 5.8333V40.8333C0 41.2933 0.37334 41.6666 0.833301 41.6666H27.5C27.96 41.6666 28.3333 41.2933 28.3333 40.8333V5.8333C28.3333 5.37334 27.96 5 27.4999 5ZM26.6666 40H1.6666V6.6667H26.6666V40Z" fill="black"/>
</svg>
