<svg width="50" height="50" fill="none" xmlns="http://www.w3.org/2000/svg"><path d="M23.67 6.465a2.524 2.524 0 00-2.575.037.773.773 0 00-.108.077L9.695 16.132H.833a.833.833 0 00-.833.833v15.833a.83.83 0 00.833.834l8.842-.005 11.286 10.367a.82.82 0 00.134.1c.41.248.864.372 1.318.372a2.565 2.565 0 001.257-.335A2.602 2.602 0 0025 41.834V8.762c0-.968-.497-1.826-1.33-2.297zm-.337 35.37c0 .358-.18.674-.482.845a.874.874 0 01-.834.022L10.833 32.428V28.63a.833.833 0 10-1.666 0v3.33l-7.5.003V17.798h7.5v3.333a.833.833 0 101.666 0v-3.78L22.004 7.9a.87.87 0 01.847.015c.302.17.482.486.482.846v33.072z" fill="#000"/><path d="M43.355 24.882c0-6.956-4.43-13.134-11.024-15.373a.835.835 0 00-.536 1.58 14.566 14.566 0 019.894 13.793 14.58 14.58 0 01-9.874 13.796.833.833 0 00.538 1.577 16.243 16.243 0 0011.002-15.373z" fill="#0057FF"/><path d="M37.044 5.312a.834.834 0 00-.65 1.535 19.56 19.56 0 0111.94 18.035c0 8.147-4.913 15.316-12.513 18.261a.833.833 0 00.602 1.555C44.671 41.501 50 33.722 50 24.882c0-8.549-5.086-16.23-12.956-19.57z" fill="#0057FF"/><path d="M35.855 24.882c0-4.977-3.341-9.419-8.124-10.802a.835.835 0 00-.462 1.602c4.074 1.177 6.92 4.96 6.92 9.2 0 4.239-2.846 8.022-6.92 9.2a.834.834 0 00.462 1.601c4.784-1.384 8.124-5.825 8.124-10.801z" fill="#0057FF"/></svg>