<svg width="29" height="50" fill="none" xmlns="http://www.w3.org/2000/svg"><path d="M18.333 2.5H9.999a.834.834 0 000 1.667h8.334a.834.834 0 000-1.667zm5.833 0h-.834a.834.834 0 000 1.667h.834a.834.834 0 000-1.667zm-8.965 40h-2.069a2.302 2.302 0 00-2.299 2.3v.402a2.301 2.301 0 002.298 2.298h2.07a2.301 2.301 0 002.299-2.298v-.403a2.302 2.302 0 00-2.299-2.299zm.632 2.702a.632.632 0 01-.632.631h-2.069a.633.633 0 01-.632-.631v-.403c0-.349.283-.632.632-.632h2.069c.349 0 .632.283.632.632v.403z" fill="#0057FF"/><path d="M25.322 0H3.012A3.016 3.016 0 000 3.013v43.974A3.016 3.016 0 003.013 50H25.32a3.016 3.016 0 003.012-3.012V3.013A3.016 3.016 0 0025.322 0zm1.345 46.987c0 .742-.604 1.346-1.345 1.346H3.012a1.347 1.347 0 01-1.345-1.345V3.013c0-.742.603-1.346 1.346-1.346H25.32c.742 0 1.346.604 1.346 1.346v43.974z" fill="#000"/><path d="M27.5 5H.833A.834.834 0 000 5.833v35c0 .46.373.834.833.834H27.5c.46 0 .833-.374.833-.834v-35A.834.834 0 0027.5 5zm-.833 35h-25V6.667h25V40z" fill="#000"/></svg>