<svg width="50" height="32" fill="none" xmlns="http://www.w3.org/2000/svg"><g clip-path="url(#clip0)"><rect width="50" height="32" rx="3" fill="#F9F9F9"/><path fill="#D6AB05" d="M33.9 12.176h8.879v8.01H33.9z"/><path d="M42.257 12.173v5.113l-7.878 2.563 6.23-4.245V6.25s-4.458 3.548-5.849 4.585c-1.68 1.256-1.748 1.771-1.748 2.582v6.221a1.062 1.062 0 001.06 1.06H44v-8.525h-1.743zm-4.494-.176c.364-.434.896-.59 1.189-.343.292.245.233.796-.132 1.23-.365.433-.896.587-1.189.342-.29-.246-.233-.796.132-1.23z" fill="#FC0"/><path fill-rule="evenodd" clip-rule="evenodd" d="M38.952 11.654c-.293-.246-.825-.09-1.19.343-.364.433-.422.983-.131 1.23.293.244.824.09 1.189-.343.365-.434.424-.985.132-1.23z" fill="#000"/><path d="M13.927 15.171v5.526h-.845V18.22H11.81v2.478h-.854v-5.525h.854v2.346h1.272V15.17h.845zm4.396 6.612h-.767v-1.086h-2.368v1.086h-.768v-1.787h.34c.124-.293.223-.616.296-.97.073-.355.13-.72.17-1.097.04-.377.065-.76.077-1.151.01-.391.016-.77.016-1.135v-.472h2.566v4.825h.438v1.787zm-1.282-5.91h-.954v.099c0 .291-.006.61-.017.956-.011.353-.035.705-.071 1.056-.037.353-.088.705-.154 1.055a5.15 5.15 0 01-.274.957h1.47v-4.123zm5 4.452a2.085 2.085 0 01-.604.328c-.226.08-.479.121-.756.121-.57 0-1.02-.22-1.35-.663-.328-.442-.492-1.091-.492-1.947 0-.445.03-.855.093-1.227.062-.373.16-.697.296-.97.135-.275.309-.489.52-.642a1.26 1.26 0 01.757-.23c.227 0 .435.045.625.137.19.091.35.24.483.444.13.204.233.47.307.795.072.325.109.721.109 1.19v.47h-2.302c0 .63.085 1.104.258 1.426.171.322.429.482.772.482.241 0 .455-.041.642-.126.186-.084.334-.166.444-.246l.197.657zm-1.536-4.528c-.263 0-.45.147-.559.444-.11.296-.18.692-.209 1.189h1.415a6.06 6.06 0 00-.033-.652 2.65 2.65 0 00-.104-.521.807.807 0 00-.197-.34.437.437 0 00-.313-.12zm3.256 2.148v2.752h-.854v-5.525h.855v2.554l1.326-2.554h.866l-1.37 2.598 1.568 2.927h-.932l-1.459-2.752zm4.397 2.829c-.592 0-1.056-.236-1.392-.707-.337-.472-.505-1.182-.505-2.133 0-.43.043-.822.126-1.173.084-.35.209-.648.373-.893.155-.237.366-.433.614-.57a1.73 1.73 0 01.85-.203c.248 0 .45.027.603.082.153.055.292.123.417.203l-.121.811a1.87 1.87 0 00-.412-.276 1.096 1.096 0 00-.498-.118c-.307 0-.56.172-.757.517-.197.346-.296.871-.296 1.576 0 .698.083 1.237.247 1.615.164.379.422.567.773.567.212 0 .395-.036.548-.107.153-.072.281-.153.384-.243l.197.635a1.88 1.88 0 01-.493.302 1.697 1.697 0 01-.658.115z" fill="#000"/><path d="M8.313 17.693l-1.337 3.005H6l1.47-3.213a2.086 2.086 0 01-.834-.773c-.212-.34-.318-.802-.318-1.387 0-.409.06-.769.181-1.08.12-.31.285-.568.493-.773.208-.204.451-.357.73-.46a2.52 2.52 0 01.877-.154h1.26v7.84h-.844v-3.005h-.702zm.702-4.132h-.45a1.35 1.35 0 00-.493.093 1.13 1.13 0 00-.427.297 1.517 1.517 0 00-.302.539c-.077.224-.115.5-.115.83 0 .316.035.58.104.792a1.4 1.4 0 00.285.517.992.992 0 00.428.28c.168.056.344.084.52.083h.45v-3.431z" fill="red"/></g><defs><clipPath id="clip0"><path fill="#fff" d="M0 0h50v32H0z"/></clipPath></defs></svg>