<svg width="41" height="45" fill="none" xmlns="http://www.w3.org/2000/svg"><path d="M40.01 10.933a12.432 12.432 0 00-4.483-6.448C31.296 1.165 27.34-.21 22.713.026c-2.44.169-4.865.515-7.255 1.037-3.384.68-5.84 1.87-7.514 3.636a14.223 14.223 0 00-3.008 4.904 19.782 19.782 0 00-.679 2.442l-.063.271a9.492 9.492 0 01-.635 1.693 18.61 18.61 0 00-.445 1.05 2.556 2.556 0 00-.202 1.262c.152.67.54 1.264 1.094 1.671.368.337.61.574.612.79a1.35 1.35 0 01-.132.32 29.023 29.023 0 01-3.282 5.34C.666 25.098.1 25.864.215 26.645a2.323 2.323 0 001.087 1.399c.248.172.51.324.782.453.324.165.866.442.903.64.05.252.021.515-.082.751-.111.235-.227.438-.326.614-.276.487-.737 1.302-.042 1.886.162.143.44.36.693.554a1.89 1.89 0 00-.242 1.086c.04.294.2.557.442.73.167.118.347.222.525.324.44.251.613.368.672.602.04.306.012.616-.081.91a7.28 7.28 0 00-.112.589c-.076.682.01 1.373.25 2.015a2.778 2.778 0 003.268 1.983 61.243 61.243 0 006.328-1.892c1.686.995 2.75 4.009 3.028 5.139.083.335.383.57.729.571h18.962a.75.75 0 00.717-.97 5.19 5.19 0 00-.845-1.456 5.811 5.811 0 01-.54-.826 14.798 14.798 0 01-.848-2.145 24.87 24.87 0 01-.883-4.435 12.681 12.681 0 01.98-6.584 16.843 16.843 0 012.036-3.213c.454-.61.922-1.24 1.343-1.905a11.533 11.533 0 001.836-6.164 22.439 22.439 0 00-.784-6.369zm-.715 6.348a10.062 10.062 0 01-1.603 5.382c-.392.618-.843 1.226-1.28 1.814a18.29 18.29 0 00-2.206 3.507 14.179 14.179 0 00-1.095 7.364c.17 1.592.484 3.164.94 4.698.248.808.559 1.596.93 2.356a7.02 7.02 0 00.71 1.099H18.605c-.5-1.78-1.405-3.42-2.644-4.792l.555-.195c.562-.196.985-.345 1.198-.412 3.215-1.01 4.824-2.47 4.78-4.343a.75.75 0 10-1.5.035c.018.773-.614 1.899-3.73 2.877-.222.07-.662.224-1.244.428-.538.188-1.2.42-1.924.667l-.005.002a62.33 62.33 0 01-6.443 1.945 1.328 1.328 0 01-1.546-1.006 2.905 2.905 0 01-.181-1.324c.02-.155.055-.31.09-.466.154-.52.178-1.07.07-1.602a2.476 2.476 0 00-1.383-1.535l-.16-.092c.08-.164.176-.32.287-.465a.75.75 0 00-.144-1.066 33.84 33.84 0 01-.917-.7l.12-.215c.116-.204.248-.439.376-.708.24-.524.31-1.111.201-1.677-.175-.92-1.054-1.368-1.695-1.695a4.352 4.352 0 01-.624-.361 3.844 3.844 0 01-.441-.358c.002-.113.12-.387.696-1.091a30.249 30.249 0 003.427-5.572c.18-.31.282-.659.294-1.017a2.615 2.615 0 00-1.099-1.877c-.303-.278-.59-.54-.621-.77a1.28 1.28 0 01.12-.527c.123-.327.267-.647.41-.968.306-.63.55-1.287.727-1.965l.064-.273c.16-.766.368-1.52.624-2.26a12.743 12.743 0 012.69-4.392c1.453-1.534 3.652-2.58 6.721-3.198a48.955 48.955 0 017.036-1.009c4.245-.213 7.887 1.06 11.813 4.141a10.825 10.825 0 013.965 5.678c.525 1.934.77 3.934.727 5.938z" fill="#0057FF"/><path d="M36.095 12.13h-1.554a8.58 8.58 0 00-.701-1.69l1.1-1.1a.75.75 0 00.085-.96 10.68 10.68 0 00-2.655-2.654.749.749 0 00-.96.085l-1.1 1.1a8.577 8.577 0 00-1.69-.701V4.654a.75.75 0 00-.62-.738 10.808 10.808 0 00-3.754 0 .75.75 0 00-.618.738V6.21a8.577 8.577 0 00-1.691.7l-1.1-1.1a.749.749 0 00-.96-.084 10.676 10.676 0 00-2.654 2.654.75.75 0 00.085.96l1.1 1.1a8.578 8.578 0 00-.7 1.69h-1.556a.75.75 0 00-.738.618 10.731 10.731 0 000 3.755.75.75 0 00.738.619h1.555a8.58 8.58 0 00.701 1.69l-1.1 1.1a.75.75 0 00-.085.96 10.676 10.676 0 002.654 2.654.751.751 0 00.96-.085l1.1-1.1a8.575 8.575 0 001.691.701v1.555c0 .364.26.675.618.739 1.242.22 2.513.22 3.755 0a.75.75 0 00.618-.739v-1.555a8.575 8.575 0 001.69-.7l1.101 1.1a.75.75 0 00.96.084 10.676 10.676 0 002.654-2.654.75.75 0 00-.085-.96l-1.1-1.1a8.583 8.583 0 00.7-1.69h1.556a.75.75 0 00.738-.619c.22-1.242.22-2.513 0-3.755a.75.75 0 00-.739-.618zm-.65 3.492H33.96a.75.75 0 00-.733.588 7.088 7.088 0 01-.959 2.315.749.749 0 00.1.936l1.053 1.053c-.417.518-.89.99-1.408 1.407L30.96 20.87a.75.75 0 00-.936-.1 7.084 7.084 0 01-2.316.96.75.75 0 00-.588.732v1.487a9.33 9.33 0 01-1.991 0V22.46a.75.75 0 00-.589-.733 7.083 7.083 0 01-2.316-.96.748.748 0 00-.935.101l-1.053 1.052a9.199 9.199 0 01-1.407-1.407l1.052-1.053a.749.749 0 00.1-.936 7.09 7.09 0 01-.959-2.314.75.75 0 00-.732-.59h-1.487a9.297 9.297 0 010-1.99h1.487a.75.75 0 00.732-.59c.18-.822.505-1.606.96-2.314a.749.749 0 00-.1-.936l-1.053-1.053c.417-.518.889-.99 1.407-1.407l1.053 1.052c.249.25.639.292.935.1a7.082 7.082 0 012.316-.96.75.75 0 00.589-.732V5.305a9.328 9.328 0 011.99 0V6.79a.75.75 0 00.59.733c.823.18 1.607.505 2.316.96a.75.75 0 00.935-.101l1.052-1.052a9.2 9.2 0 011.408 1.407L32.367 9.79a.749.749 0 00-.1.936c.455.708.78 1.492.96 2.314a.75.75 0 00.732.59h1.487a9.323 9.323 0 010 1.99zM16 21.751h-.857a2.961 2.961 0 00-.319-.765l.607-.607a.75.75 0 00-1.06-1.06l-.607.607a2.973 2.973 0 00-.765-.319v-.856a.75.75 0 00-1.5 0v.856a2.97 2.97 0 00-.764.319l-.607-.607a.75.75 0 10-1.06 1.06l.607.607a2.96 2.96 0 00-.319.765h-.857a.75.75 0 100 1.5h.857c.07.268.177.526.319.764l-.607.607a.75.75 0 001.06 1.06l.607-.606c.239.141.496.248.764.318v.857a.75.75 0 101.5 0v-.857a2.97 2.97 0 00.765-.318l.606.607a.75.75 0 001.061-1.06l-.607-.608a2.96 2.96 0 00.319-.764h.856a.75.75 0 100-1.5zm-3.75 2.25a1.5 1.5 0 110-3 1.5 1.5 0 010 3zM8.323 14.25c.047.151.107.297.18.436l-.405.406a.75.75 0 001.06 1.06l.407-.406c.14.073.285.133.434.18v.575a.75.75 0 101.5 0v-.576a2.51 2.51 0 00.434-.18l.407.408a.75.75 0 001.06-1.061l-.405-.406c.074-.139.134-.285.18-.435h.574a.75.75 0 100-1.5h-.574a2.491 2.491 0 00-.18-.435l.406-.406a.75.75 0 00-1.06-1.06l-.408.406a2.525 2.525 0 00-.434-.18v-.575a.75.75 0 00-1.5 0v.576c-.15.046-.295.106-.434.18l-.406-.408a.75.75 0 10-1.061 1.06l.406.407a2.49 2.49 0 00-.18.435h-.575a.75.75 0 000 1.5h.574zm2.154-1.764a1.05 1.05 0 11.545 2.03 1.05 1.05 0 01-.545-2.03z" fill="#0057FF"/><path d="M26.125 9.751a4.875 4.875 0 100 9.75 4.875 4.875 0 000-9.75zm0 8.25a3.375 3.375 0 110-6.75 3.375 3.375 0 010 6.75z" fill="#0057FF"/></svg>