<svg width="50" height="32" viewBox="0 0 50 32" fill="none" xmlns="http://www.w3.org/2000/svg">
<g id="Yandex.Money (&#208;&#175;&#208;&#189;&#208;&#180;&#208;&#181;&#208;&#186;&#209;&#129;.&#208;&#148;&#208;&#181;&#208;&#189;&#209;&#140;&#208;&#179;&#208;&#184;)" clip-path="url(#clip0)">
<g id="Yandex.Money (&#208;&#175;&#208;&#189;&#208;&#180;&#208;&#181;&#208;&#186;&#209;&#129;.&#208;&#148;&#208;&#181;&#208;&#189;&#209;&#140;&#208;&#179;&#208;&#184;)_2">
<rect id="Rectangle" width="50" height="32" rx="3" fill="#F9F9F9"/>
<g id="Group">
<g id="Group_2">
<rect id="Rectangle_2" x="33.9004" y="12.1758" width="8.87914" height="8.01004" fill="#D6AB05"/>
<path id="Vector" d="M42.2574 12.1727V17.286L34.379 19.8492L40.6091 15.6044V6.25C40.6091 6.25 36.1513 9.79842 34.7605 10.8355C33.0807 12.0912 33.0122 12.606 33.0122 13.4172V19.6381C33.0122 19.9177 33.1252 20.1881 33.3233 20.3863C33.5215 20.5844 33.79 20.6974 34.0715 20.6974H44.0001V12.1727H42.2574ZM37.7626 11.9967C38.1274 11.5634 38.6589 11.4078 38.9516 11.6541C39.2442 11.8986 39.1849 12.4505 38.8201 12.8838C38.4552 13.3172 37.9237 13.4709 37.6311 13.2265C37.3403 12.9802 37.3977 12.4301 37.7626 11.9967Z" fill="#FFCC00"/>
<path id="Intersect" fill-rule="evenodd" clip-rule="evenodd" d="M38.9515 11.6542C38.6589 11.4079 38.1273 11.5634 37.7625 11.9968C37.3976 12.4302 37.3402 12.9802 37.631 13.2265C37.9236 13.471 38.4551 13.3173 38.82 12.8839C39.1848 12.4505 39.2441 11.8986 38.9515 11.6542Z" fill="black"/>
</g>
<g id="Group_3">
<path id="Vector_2" d="M13.9267 15.1715V20.6971H13.0822V18.2194H11.8105V20.6974H10.9556V15.1718H11.8105V17.5179H13.0822V15.1715H13.9267ZM18.3234 21.7826H17.5559V20.6974H15.1876V21.7826H14.4202V19.9956H14.7598C14.8842 19.7033 14.9829 19.38 15.056 19.0254C15.1288 18.671 15.1857 18.3056 15.2258 17.9287C15.266 17.5525 15.2915 17.1688 15.3029 16.7779C15.3137 16.3866 15.3192 16.0085 15.3192 15.6427V15.1715H17.8848V19.9956H18.3234V21.7826ZM17.0406 15.8729H16.087V15.9716C16.087 16.2632 16.0811 16.5823 16.07 16.9284C16.0587 17.2809 16.035 17.6328 15.9988 17.9836C15.9625 18.3373 15.9113 18.6893 15.8453 19.0387C15.785 19.3658 15.6931 19.6862 15.571 19.9956H17.0406V15.8729ZM22.0401 20.3245C21.8587 20.4666 21.655 20.5778 21.4372 20.6533C21.2106 20.7337 20.9582 20.7742 20.6806 20.7742C20.1104 20.7742 19.661 20.5531 19.3318 20.1109C19.003 19.6687 18.8387 19.0198 18.8387 18.1645C18.8387 17.7191 18.8694 17.3095 18.9318 16.9366C18.9942 16.5637 19.0925 16.2403 19.228 15.9663C19.3629 15.692 19.5366 15.4784 19.7489 15.325C19.9605 15.1715 20.2126 15.0947 20.5049 15.0947C20.7315 15.0947 20.9399 15.1404 21.1303 15.2319C21.32 15.3233 21.4807 15.4713 21.6126 15.676C21.7439 15.8805 21.8461 16.1453 21.9196 16.4706C21.9924 16.7958 22.029 17.1923 22.029 17.6603V18.1315H19.7267C19.7267 18.7605 19.8125 19.2353 19.9846 19.557C20.1561 19.8787 20.4138 20.0394 20.7573 20.0394C20.9983 20.0394 21.2122 19.9976 21.3987 19.9133C21.5849 19.8294 21.7331 19.7471 21.8428 19.6667L22.0401 20.3245ZM20.5052 15.7965C20.242 15.7965 20.0558 15.9445 19.9461 16.2407C19.8361 16.5365 19.7665 16.933 19.7374 17.43H21.1521C21.1521 17.1962 21.141 16.9787 21.1192 16.7779C21.102 16.6012 21.0671 16.4267 21.015 16.257C20.9673 16.1107 20.9017 15.9974 20.8177 15.917C20.7761 15.8772 20.7271 15.8461 20.6734 15.8253C20.6197 15.8046 20.5627 15.795 20.5052 15.7965ZM23.7611 17.9454V20.6974H22.9065V15.1718H23.7618V17.7259L25.0883 15.1715H25.9544L24.5841 17.77L26.152 20.6974H25.2203L23.7611 17.9454ZM28.1581 20.7738C27.5657 20.7738 27.1016 20.5384 26.7656 20.0668C26.4292 19.5952 26.261 18.8846 26.261 17.9343C26.261 17.5032 26.3035 17.1123 26.3874 16.7612C26.471 16.4105 26.5955 16.1127 26.7597 15.8677C26.9155 15.6309 27.1263 15.4353 27.374 15.2975C27.6189 15.1623 27.9021 15.0947 28.2237 15.0947C28.4719 15.0947 28.6734 15.1222 28.8266 15.177C28.9804 15.2319 29.1189 15.2995 29.2436 15.3795L29.1228 16.191C28.9985 16.0811 28.8601 15.9882 28.7113 15.9148C28.5568 15.8365 28.3859 15.796 28.2126 15.7965C27.9057 15.7965 27.6536 15.9693 27.4563 16.3145C27.2587 16.66 27.1601 17.1851 27.1601 17.8902C27.1601 18.5884 27.2427 19.1266 27.4067 19.5048C27.5713 19.8836 27.8289 20.0723 28.18 20.0723C28.3916 20.0723 28.5748 20.0364 28.728 19.9646C28.8815 19.8934 29.0095 19.8121 29.1117 19.7216L29.3089 20.3574C29.1611 20.4827 28.9947 20.5844 28.8158 20.6589C28.6329 20.7356 28.4135 20.7738 28.1581 20.7738Z" fill="black"/>
<path id="Vector_3" d="M8.31344 17.6933L6.9758 20.6978H6L7.46925 17.4853C7.1257 17.3099 6.84778 17.0523 6.63616 16.7123C6.42389 16.3723 6.31808 15.9102 6.31808 15.3254C6.31808 14.9162 6.37817 14.5563 6.499 14.2454C6.61951 13.9351 6.7841 13.6771 6.99213 13.4724C7.20015 13.2676 7.44345 13.1145 7.72202 13.0119C8.00275 12.9091 8.29956 12.8571 8.59854 12.8584H9.85911V20.6978H9.01524V17.6933H8.31344ZM9.01524 13.5606H8.56555C8.39737 13.5606 8.23278 13.5916 8.07243 13.654C7.91208 13.7163 7.76872 13.8153 7.64462 13.9511C7.52052 14.0867 7.41994 14.2663 7.34319 14.49C7.26612 14.7137 7.22824 14.9903 7.22824 15.3205C7.22824 15.6356 7.26253 15.8998 7.33209 16.1124C7.40165 16.325 7.49668 16.4977 7.61719 16.6294C7.73802 16.7613 7.88041 16.8547 8.045 16.9099C8.21292 16.9653 8.38873 16.9931 8.56555 16.9922H9.01524V13.5606Z" fill="#FF0000"/>
</g>
</g>
</g>
</g>
<defs>
<clipPath id="clip0">
<rect width="50" height="32" fill="white"/>
</clipPath>
</defs>
</svg>
