<svg width="50" height="32" viewBox="0 0 50 32" fill="none" xmlns="http://www.w3.org/2000/svg">
<g id="PayPal" clip-path="url(#clip0)">
<g id="PayPal_2">
<rect id="Rectangle" width="50" height="32" rx="3" fill="#F9F9F9"/>
<g id="Group">
<g id="Group_2">
<path id="Vector" d="M14.874 20.9004H12.8013C12.6595 20.9004 12.5389 21.0034 12.5167 21.1435L11.6784 26.4584C11.6618 26.5632 11.743 26.6578 11.8494 26.6578H12.8389C12.9807 26.6578 13.1014 26.5548 13.1235 26.4144L13.3496 24.9809C13.3714 24.8406 13.4923 24.7376 13.6338 24.7376H14.29C15.6553 24.7376 16.4433 24.0769 16.6491 22.7676C16.7418 22.1948 16.653 21.7447 16.3848 21.4295C16.0902 21.0834 15.5677 20.9004 14.874 20.9004ZM15.1131 22.8416C14.9998 23.5853 14.4315 23.5853 13.8821 23.5853H13.5693L13.7887 22.1963C13.8018 22.1124 13.8745 22.0505 13.9593 22.0505H14.1027C14.477 22.0505 14.8301 22.0505 15.0125 22.2639C15.1213 22.3912 15.1547 22.5803 15.1131 22.8416Z" fill="#253B80"/>
<path id="Vector_2" d="M21.0695 22.817H20.077C19.9924 22.817 19.9194 22.8788 19.9064 22.9628L19.8624 23.2404L19.793 23.1397C19.5781 22.8279 19.099 22.7236 18.6207 22.7236C17.5239 22.7236 16.5871 23.5543 16.4047 24.7196C16.3098 25.3009 16.4447 25.8568 16.7744 26.2444C17.0769 26.6008 17.5097 26.7493 18.0246 26.7493C18.9083 26.7493 19.3984 26.181 19.3984 26.181L19.3542 26.4568C19.3375 26.5623 19.4187 26.6569 19.5245 26.6569H20.4185C20.5607 26.6569 20.6807 26.5538 20.7031 26.4135L21.2396 23.0164C21.2565 22.9118 21.1756 22.817 21.0695 22.817ZM19.686 24.7487C19.5903 25.3158 19.1402 25.6964 18.5662 25.6964C18.278 25.6964 18.0476 25.604 17.8997 25.4288C17.753 25.2549 17.6973 25.0073 17.744 24.7315C17.8334 24.1693 18.291 23.7762 18.8562 23.7762C19.1381 23.7762 19.3672 23.8698 19.5181 24.0465C19.6694 24.225 19.7294 24.4742 19.686 24.7487Z" fill="#253B80"/>
<path id="Vector_3" d="M26.3559 22.8174H25.3585C25.2633 22.8174 25.1739 22.8647 25.12 22.9438L23.7443 24.9701L23.1612 23.0229C23.1245 22.901 23.0121 22.8174 22.8848 22.8174H21.9047C21.7856 22.8174 21.7028 22.9338 21.7407 23.0459L22.8394 26.27L21.8065 27.728C21.7253 27.8429 21.8071 28.0008 21.9474 28.0008H22.9436C23.0382 28.0008 23.1267 27.9547 23.1803 27.8771L26.4977 23.0886C26.5771 22.9741 26.4956 22.8174 26.3559 22.8174Z" fill="#253B80"/>
<path id="Vector_4" d="M29.6577 20.8994H27.5847C27.4432 20.8994 27.3226 21.0025 27.3004 21.1425L26.4621 26.4574C26.4455 26.5623 26.5267 26.6568 26.6325 26.6568H27.6962C27.795 26.6568 27.8796 26.5847 27.8951 26.4865L28.133 24.9799C28.1548 24.8396 28.2757 24.7366 28.4172 24.7366H29.0731C30.4387 24.7366 31.2264 24.0759 31.4325 22.7666C31.5255 22.1938 31.4361 21.7438 31.1679 21.4286C30.8736 21.0825 30.3514 20.8994 29.6577 20.8994ZM29.8968 22.8406C29.7838 23.5843 29.2155 23.5843 28.6658 23.5843H28.3533L28.573 22.1953C28.586 22.1114 28.6582 22.0496 28.7433 22.0496H28.8867C29.2607 22.0496 29.6141 22.0496 29.7965 22.2629C29.9053 22.3902 29.9383 22.5793 29.8968 22.8406Z" fill="#179BD7"/>
<path id="Vector_5" d="M35.8534 22.817H34.8615C34.7763 22.817 34.7039 22.8788 34.6911 22.9628L34.6472 23.2404L34.5775 23.1397C34.3626 22.8279 33.8838 22.7236 33.4055 22.7236C32.3087 22.7236 31.3722 23.5543 31.1898 24.7196C31.0952 25.3009 31.2295 25.8568 31.5592 26.2444C31.8623 26.6008 32.2945 26.7493 32.8094 26.7493C33.6931 26.7493 34.1832 26.181 34.1832 26.181L34.1389 26.4568C34.1223 26.5623 34.2035 26.6569 34.3099 26.6569H35.2036C35.3452 26.6569 35.4658 26.5538 35.4879 26.4135L36.0246 23.0164C36.041 22.9118 35.9598 22.817 35.8534 22.817ZM34.4699 24.7487C34.3747 25.3158 33.9241 25.6964 33.35 25.6964C33.0624 25.6964 32.8315 25.604 32.6836 25.4288C32.5369 25.2549 32.4817 25.0073 32.5278 24.7315C32.6178 24.1693 33.0749 23.7762 33.6401 23.7762C33.9219 23.7762 34.1511 23.8698 34.302 24.0465C34.4538 24.225 34.5138 24.4742 34.4699 24.7487Z" fill="#179BD7"/>
<path id="Vector_6" d="M37.0238 21.0455L36.1731 26.4577C36.1564 26.5626 36.2376 26.6571 36.3434 26.6571H37.1987C37.3408 26.6571 37.4614 26.5541 37.4832 26.4138L38.3221 21.0991C38.3388 20.9943 38.2576 20.8994 38.1518 20.8994H37.1941C37.1096 20.8997 37.0368 20.9615 37.0238 21.0455Z" fill="#179BD7"/>
</g>
<g id="Group_3">
<path id="Vector_7" d="M23.0685 17.0178L23.3021 15.5344L22.7819 15.5224H20.2979L22.0241 4.5767C22.0295 4.54366 22.0469 4.51285 22.0723 4.49097C22.0978 4.46909 22.1304 4.45703 22.1643 4.45703H26.3527C27.7432 4.45703 28.7028 4.74638 29.2038 5.31748C29.4387 5.5854 29.5882 5.86537 29.6606 6.17347C29.7365 6.49675 29.7378 6.883 29.6637 7.35408L29.6583 7.38846V7.69031L29.8932 7.82338C30.091 7.92831 30.2482 8.04843 30.3688 8.18596C30.5697 8.41502 30.6996 8.70616 30.7546 9.05132C30.8113 9.40631 30.7925 9.82872 30.6996 10.3069C30.5925 10.8571 30.4192 11.3362 30.1852 11.7282C29.97 12.0895 29.6958 12.3891 29.3703 12.6213C29.0596 12.8419 28.6903 13.0093 28.2728 13.1165C27.8682 13.2219 27.407 13.275 26.9011 13.275H26.5751C26.342 13.275 26.1156 13.3589 25.9379 13.5094C25.7597 13.663 25.6419 13.8729 25.6057 14.1024L25.5811 14.2359L25.1685 16.8503L25.1498 16.9463C25.1449 16.9767 25.1364 16.9919 25.1239 17.0021C25.1127 17.0115 25.0966 17.0178 25.081 17.0178H23.0685Z" fill="#253B80"/>
<path id="Vector_8" d="M30.1157 7.42383C30.1032 7.50376 30.0889 7.58547 30.0728 7.66942C29.5204 10.5053 27.6307 11.485 25.2173 11.485H23.9884C23.6933 11.485 23.4446 11.6993 23.3986 11.9904L22.7694 15.9806L22.5913 17.1116C22.5614 17.3027 22.7087 17.4751 22.9016 17.4751H25.0811C25.3392 17.4751 25.5584 17.2876 25.5991 17.033L25.6205 16.9223L26.0308 14.3182L26.0572 14.1753C26.0974 13.9199 26.3171 13.7323 26.5752 13.7323H26.9011C29.0127 13.7323 30.6658 12.875 31.1489 10.3941C31.3507 9.35773 31.2463 8.49236 30.7122 7.88375C30.5506 7.70023 30.3501 7.54796 30.1157 7.42383Z" fill="#179BD7"/>
<path id="Vector_9" d="M29.5377 7.19337C29.4533 7.16882 29.3662 7.14649 29.2769 7.1264C29.1872 7.10675 29.0952 7.08933 29.0005 7.07415C28.6692 7.02057 28.3062 6.99512 27.9173 6.99512H24.6344C24.5536 6.99512 24.4768 7.01342 24.408 7.04647C24.2567 7.11925 24.1441 7.26259 24.1169 7.43807L23.4185 11.8613L23.3984 11.9904C23.4444 11.6993 23.6931 11.4849 23.9883 11.4849H25.2171C27.6306 11.4849 29.5203 10.5048 30.0726 7.66937C30.0892 7.58542 30.103 7.50371 30.1155 7.42378C29.9757 7.34966 29.8244 7.28625 29.6614 7.23222C29.6212 7.21883 29.5797 7.20588 29.5377 7.19337Z" fill="#222D65"/>
<path id="Vector_10" d="M24.1171 7.43779C24.1443 7.26231 24.2569 7.11897 24.4082 7.04664C24.4774 7.01359 24.5538 6.99529 24.6346 6.99529H27.9175C28.3064 6.99529 28.6694 7.02074 29.0007 7.07432C29.0954 7.0895 29.1874 7.10692 29.2771 7.12656C29.3664 7.14666 29.4535 7.16898 29.5379 7.19354C29.5799 7.20605 29.6214 7.21899 29.662 7.23194C29.825 7.28597 29.9764 7.34983 30.1162 7.4235C30.2805 6.37551 30.1148 5.66196 29.5482 5.01584C28.9235 4.30453 27.796 4 26.3533 4H22.1649C21.8702 4 21.6188 4.21433 21.5732 4.50591L19.8287 15.5641C19.7943 15.7829 19.9631 15.9802 20.1837 15.9802H22.7695L23.4187 11.8611L24.1171 7.43779Z" fill="#253B80"/>
</g>
</g>
</g>
</g>
<defs>
<clipPath id="clip0">
<rect width="50" height="32" fill="white"/>
</clipPath>
</defs>
</svg>
