<svg width="50" height="32" fill="none" xmlns="http://www.w3.org/2000/svg"><g clip-path="url(#clip0)"><rect width="50" height="32" rx="3" fill="#F9F9F9"/><path d="M14.874 20.9h-2.073a.288.288 0 00-.284.244l-.839 5.314c-.016.105.065.2.171.2h.99a.288.288 0 00.284-.244l.227-1.433a.288.288 0 01.284-.243h.656c1.365 0 2.153-.661 2.36-1.97.092-.573.003-1.023-.265-1.338-.295-.347-.817-.53-1.511-.53zm.24 1.942c-.114.743-.683.743-1.232.743h-.313l.22-1.389a.173.173 0 01.17-.146h.144c.374 0 .727 0 .91.214.108.127.142.316.1.578zm5.956-.025h-.993a.173.173 0 00-.17.146l-.045.277-.069-.1c-.215-.312-.694-.416-1.172-.416-1.097 0-2.034.83-2.216 1.996-.095.58.04 1.137.37 1.524.302.357.735.505 1.25.505.883 0 1.373-.568 1.373-.568l-.044.276c-.017.105.065.2.17.2h.895a.288.288 0 00.284-.244l.537-3.397a.172.172 0 00-.17-.199zm-1.384 1.932a1.106 1.106 0 01-1.12.947c-.288 0-.518-.092-.666-.267-.147-.174-.203-.422-.156-.697.09-.563.547-.956 1.112-.956.282 0 .511.094.662.27.151.179.211.428.168.703zm6.67-1.932h-.998a.289.289 0 00-.238.127l-1.376 2.026-.583-1.947a.289.289 0 00-.276-.206h-.98a.173.173 0 00-.164.229l1.098 3.224-1.032 1.458a.173.173 0 00.14.273h.997a.287.287 0 00.236-.124l3.318-4.788a.173.173 0 00-.142-.272z" fill="#253B80"/><path d="M29.658 20.9h-2.073a.288.288 0 00-.285.242l-.838 5.315c-.017.105.065.2.17.2h1.064a.202.202 0 00.2-.17l.237-1.507a.288.288 0 01.284-.243h.656c1.366 0 2.153-.661 2.36-1.97.093-.573.003-1.023-.265-1.338-.294-.346-.817-.53-1.51-.53zm.239 1.94c-.113.744-.681.744-1.231.744h-.313l.22-1.389a.172.172 0 01.17-.145h.144c.374 0 .727 0 .91.213.108.127.141.316.1.578zm5.956-.023h-.992a.172.172 0 00-.17.146l-.044.277-.07-.1c-.214-.312-.693-.416-1.171-.416-1.097 0-2.034.83-2.216 1.996-.095.58.04 1.137.37 1.524.302.357.735.505 1.25.505.883 0 1.373-.568 1.373-.568l-.044.276c-.017.105.064.2.17.2h.895a.288.288 0 00.284-.244l.537-3.397a.173.173 0 00-.172-.199zm-1.383 1.932a1.106 1.106 0 01-1.12.947c-.288 0-.519-.092-.666-.267-.147-.174-.202-.422-.156-.697.09-.563.547-.956 1.112-.956.282 0 .511.094.662.27.152.179.212.428.168.703zm2.554-3.703l-.85 5.412c-.018.105.064.2.17.2h.855a.287.287 0 00.284-.244l.84-5.315a.173.173 0 00-.171-.2h-.958a.173.173 0 00-.17.146z" fill="#179BD7"/><path d="M23.069 17.018l.233-1.484-.52-.012h-2.484l1.726-10.945a.141.141 0 01.14-.12h4.189c1.39 0 2.35.29 2.85.86.236.268.385.548.458.856.075.324.077.71.003 1.181l-.006.034v.302l.235.133c.198.105.355.225.476.363.2.229.33.52.386.865.056.355.038.778-.055 1.256-.107.55-.28 1.03-.515 1.421-.215.361-.49.661-.815.893-.31.22-.68.388-1.097.495a5.473 5.473 0 01-1.372.159h-.326a.988.988 0 00-.637.234.987.987 0 00-.332.593l-.025.134-.412 2.614-.02.096c-.004.03-.013.046-.025.056a.07.07 0 01-.043.016h-2.012z" fill="#253B80"/><path d="M30.116 7.424c-.013.08-.027.161-.043.245-.553 2.836-2.442 3.816-4.856 3.816h-1.229a.597.597 0 00-.59.505l-.629 3.99-.178 1.132a.314.314 0 00.31.363h2.18a.525.525 0 00.518-.442l.021-.11.41-2.605.027-.143a.524.524 0 01.518-.443h.326c2.112 0 3.765-.857 4.248-3.338.202-1.036.097-1.902-.437-2.51a2.083 2.083 0 00-.596-.46z" fill="#179BD7"/><path d="M29.538 7.193A4.364 4.364 0 0029 7.074a6.824 6.824 0 00-1.083-.079h-3.283a.521.521 0 00-.517.443l-.698 4.423-.02.13a.597.597 0 01.59-.506h1.228c2.414 0 4.303-.98 4.856-3.816a6.19 6.19 0 00.043-.245 2.945 2.945 0 00-.578-.23z" fill="#222D65"/><path d="M24.117 7.438a.522.522 0 01.518-.443h3.282c.39 0 .752.026 1.084.08a4.967 4.967 0 01.537.119l.124.038c.163.054.314.118.454.191.165-1.047-.001-1.761-.568-2.407C28.924 4.305 27.796 4 26.353 4h-4.188a.599.599 0 00-.592.506L19.83 15.564a.36.36 0 00.355.416h2.585l.65-4.119.698-4.423z" fill="#253B80"/></g><defs><clipPath id="clip0"><path fill="#fff" d="M0 0h50v32H0z"/></clipPath></defs></svg>