<svg width="50" height="50" viewBox="0 0 50 50" fill="none" xmlns="http://www.w3.org/2000/svg">
<path d="M3.33333 41.68H5V40.0133H3.33333C2.41271 40.0133 1.66667 39.2673 1.66667 38.3467V5.01333C1.66667 4.0927 2.41271 3.34666 3.33333 3.34666H40C40.9206 3.34666 41.6667 4.0927 41.6667 5.01333V6.67999H43.3333V5.01333C43.3333 3.17249 41.8408 1.67999 40 1.67999H3.33333C1.4925 1.67999 0 3.17249 0 5.01333V38.3467C0 40.1875 1.4925 41.68 3.33333 41.68Z" fill="black"/>
<path d="M3.33301 5.01331H4.99968V6.67997H3.33301V5.01331Z" fill="black"/>
<path d="M6.66602 5.01331H8.33269V6.67997H6.66602V5.01331Z" fill="black"/>
<path d="M10 5.01331H11.6667V6.67997H10V5.01331Z" fill="black"/>
<path d="M6.66602 45.0133C6.66602 46.8542 8.15852 48.3466 9.99935 48.3466H46.666C48.5068 48.3466 49.9993 46.8542 49.9993 45.0133V11.68C49.9993 9.83918 48.5068 8.34668 46.666 8.34668H9.99935C8.15852 8.34668 6.66602 9.83918 6.66602 11.68V45.0133ZM8.33268 11.68C8.33268 10.7594 9.07872 10.0133 9.99935 10.0133H46.666C47.5866 10.0133 48.3327 10.7594 48.3327 11.68V45.0133C48.3327 45.9339 47.5866 46.68 46.666 46.68H9.99935C9.07872 46.68 8.33268 45.9339 8.33268 45.0133V11.68Z" fill="black"/>
<path d="M10 11.68H11.6667V13.3467H10V11.68Z" fill="#0057FF"/>
<path d="M13.334 11.68H15.0006V13.3467H13.334V11.68Z" fill="#0057FF"/>
<path d="M16.667 11.68H18.3337V13.3467H16.667V11.68Z" fill="#0057FF"/>
<path d="M10 15.0133H46.6667V16.68H10V15.0133Z" fill="#0057FF"/>
<path d="M10 19.1799H16.6667V20.8466H10V19.1799Z" fill="#0057FF"/>
<path d="M10 22.5133H15V24.18H10V22.5133Z" fill="#0057FF"/>
<path d="M28.3333 25.8466C25.1115 25.8466 22.5 28.4581 22.5 31.6799C22.5 34.9018 25.1115 37.5133 28.3333 37.5133C31.5552 37.5133 34.1666 34.9018 34.1666 31.6799C34.1629 28.4599 31.5533 25.8504 28.3333 25.8466ZM28.3333 35.8466C26.0323 35.8466 24.1667 33.981 24.1667 31.6799C24.1667 29.3789 26.0323 27.5133 28.3333 27.5133C30.6344 27.5133 32.5 29.3789 32.5 31.6799C32.4971 33.9799 30.6333 35.8437 28.3333 35.8466Z" fill="#0057FF"/>
<path d="M41.6667 29.18C41.6667 28.7196 41.2937 28.3467 40.8333 28.3467H38.6308C38.4544 27.7992 38.2344 27.2665 37.9717 26.755L39.5292 25.1986C39.8542 24.8729 39.8542 24.3456 39.5292 24.02L35.9933 20.4842C35.6677 20.1592 35.1404 20.1592 34.8148 20.4842L33.2583 22.0408C32.746 21.7792 32.2137 21.5592 31.6667 21.3825V19.18C31.6667 18.7196 31.2937 18.3467 30.8333 18.3467H25.8333C25.3729 18.3467 25 18.7196 25 19.18V21.3825C24.4529 21.5592 23.9206 21.7792 23.4083 22.0408L21.8519 20.4842C21.5262 20.1592 20.999 20.1592 20.6733 20.4842L17.1375 24.02C16.8125 24.3456 16.8125 24.8729 17.1375 25.1986L18.6942 26.755C18.6246 26.8915 18.5575 27.0283 18.4942 27.1667C18.3183 27.5508 18.1654 27.9446 18.0358 28.3467H15.8333C15.3729 28.3467 15 28.7196 15 29.18V34.18C15 34.6404 15.3729 35.0133 15.8333 35.0133H18.0358C18.2123 35.5608 18.4323 36.0936 18.695 36.605L17.1375 38.1615C16.8125 38.4871 16.8125 39.0144 17.1375 39.34L20.6733 42.8758C20.999 43.2008 21.5262 43.2008 21.8519 42.8758L23.4083 41.3192C23.9206 41.5808 24.4529 41.8008 25 41.9775V44.18C25 44.6404 25.3729 45.0133 25.8333 45.0133H30.8333C31.2937 45.0133 31.6667 44.6404 31.6667 44.18V41.9775C32.2137 41.8008 32.746 41.5808 33.2583 41.3192L34.8148 42.8758C35.1404 43.2008 35.6677 43.2008 35.9933 42.8758L39.5292 39.34C39.8542 39.0144 39.8542 38.4871 39.5292 38.1615L37.9717 36.605C38.2344 36.0936 38.4544 35.5608 38.6308 35.0133H40.8333C41.2937 35.0133 41.6667 34.6404 41.6667 34.18V29.18ZM40 33.3467H38.005C37.625 33.3467 37.2933 33.604 37.1983 33.9717C36.9854 34.7988 36.6573 35.5925 36.2233 36.3283C36.0302 36.6554 36.0833 37.0721 36.3517 37.3408L37.7606 38.7506L35.404 41.1083L33.9942 39.6983C33.7252 39.4296 33.3085 39.3767 32.9812 39.57C32.2454 40.004 31.4521 40.3323 30.625 40.545C30.2573 40.64 30 40.9717 30 41.3517V43.3467H26.6667V41.3517C26.6667 40.9717 26.4094 40.64 26.0417 40.545C25.2146 40.3323 24.4212 40.004 23.6854 39.57C23.3581 39.3767 22.9415 39.4296 22.6725 39.6983L21.2627 41.1083L18.906 38.7506L20.315 37.3408C20.5833 37.0721 20.6365 36.6554 20.4433 36.3283C20.0094 35.5925 19.6812 34.7988 19.4683 33.9717C19.3733 33.604 19.0417 33.3467 18.6617 33.3467H16.6667V30.0133H18.6617C19.0417 30.0133 19.3733 29.7561 19.4683 29.3883C19.6029 28.8638 19.7844 28.3529 20.0102 27.8611C20.1404 27.5758 20.285 27.2977 20.4433 27.0277C20.6358 26.7004 20.5831 26.2844 20.315 26.0158L18.906 24.6061L21.2627 22.2483L22.6725 23.6588C22.9415 23.9275 23.3581 23.98 23.6854 23.7865C24.4212 23.3529 25.2146 23.0242 26.0417 22.8115C26.4094 22.7167 26.6667 22.3846 26.6667 22.0052V20.0133H30V22.0083C30 22.3883 30.2573 22.72 30.625 22.815C31.4521 23.0277 32.2454 23.3561 32.9812 23.79C33.3085 23.9833 33.7252 23.9304 33.9942 23.6617L35.404 22.2517L37.7606 24.6094L36.3517 26.0192C36.0833 26.2879 36.0302 26.7046 36.2233 27.0317C36.6573 27.7675 36.9854 28.5613 37.1983 29.3883C37.2933 29.7561 37.625 30.0133 38.005 30.0133H40V33.3467Z" fill="#0057FF"/>
<path d="M41.667 43.3467H46.667V45.0133H41.667V43.3467Z" fill="#0057FF"/>
</svg>
