<svg width="100" height="33" viewBox="0 0 100 33" fill="none" xmlns="http://www.w3.org/2000/svg">
<path d="M37.7411 8.15728H41.4823C42.3764 8.15728 43.1646 8.32983 43.847 8.67493C44.5372 9.01219 45.0705 9.49062 45.447 10.1102C45.8313 10.7298 46.0235 11.4514 46.0235 12.2749C46.0235 13.0985 45.8313 13.82 45.447 14.4396C45.0705 15.0592 44.5372 15.5416 43.847 15.8867C43.1646 16.224 42.3764 16.3926 41.4823 16.3926H37.7411V8.15728ZM41.3882 14.8279C42.2117 14.8279 42.8666 14.6004 43.3529 14.1455C43.847 13.6828 44.0941 13.0592 44.0941 12.2749C44.0941 11.4906 43.847 10.871 43.3529 10.4161C42.8666 9.95336 42.2117 9.72199 41.3882 9.72199H39.647V14.8279H41.3882ZM50.3431 16.4867C49.6765 16.4867 49.0765 16.3494 48.5431 16.0749C48.0177 15.7926 47.6059 15.4043 47.3078 14.9102C47.0098 14.4161 46.8608 13.8553 46.8608 13.2279C46.8608 12.6004 47.0098 12.0396 47.3078 11.5455C47.6059 11.0514 48.0177 10.6671 48.5431 10.3926C49.0765 10.1102 49.6765 9.96905 50.3431 9.96905C51.0098 9.96905 51.6059 10.1102 52.1314 10.3926C52.6569 10.6671 53.0686 11.0514 53.3667 11.5455C53.6647 12.0396 53.8137 12.6004 53.8137 13.2279C53.8137 13.8553 53.6647 14.4161 53.3667 14.9102C53.0686 15.4043 52.6569 15.7926 52.1314 16.0749C51.6059 16.3494 51.0098 16.4867 50.3431 16.4867ZM50.3431 14.9808C50.8137 14.9808 51.198 14.824 51.4961 14.5102C51.802 14.1887 51.9549 13.7612 51.9549 13.2279C51.9549 12.6945 51.802 12.271 51.4961 11.9573C51.198 11.6357 50.8137 11.4749 50.3431 11.4749C49.8726 11.4749 49.4843 11.6357 49.1784 11.9573C48.8726 12.271 48.7196 12.6945 48.7196 13.2279C48.7196 13.7612 48.8726 14.1887 49.1784 14.5102C49.4843 14.824 49.8726 14.9808 50.3431 14.9808ZM65.0328 10.0632L62.7387 16.3926H60.974L59.5505 12.4632L58.0799 16.3926H56.3152L54.0328 10.0632H55.7623L57.2564 14.3455L58.8093 10.0632H60.3623L61.8681 14.3455L63.4093 10.0632H65.0328ZM69.7331 9.96905C70.5174 9.96905 71.1488 10.2043 71.6272 10.6749C72.1135 11.1455 72.3567 11.8436 72.3567 12.769V16.3926H70.5214V13.0514C70.5214 12.5494 70.4116 12.1769 70.1919 11.9338C69.9723 11.6828 69.6547 11.5573 69.239 11.5573C68.7763 11.5573 68.4076 11.7024 68.1331 11.9926C67.8586 12.2749 67.7214 12.6985 67.7214 13.2632V16.3926H65.8861V10.0632H67.639V10.8043C67.8821 10.5377 68.1841 10.3338 68.5449 10.1926C68.9057 10.0436 69.3018 9.96905 69.7331 9.96905ZM74.0203 7.66317H75.8555V16.3926H74.0203V7.66317ZM80.5706 16.4867C79.904 16.4867 79.304 16.3494 78.7706 16.0749C78.2451 15.7926 77.8334 15.4043 77.5353 14.9102C77.2373 14.4161 77.0883 13.8553 77.0883 13.2279C77.0883 12.6004 77.2373 12.0396 77.5353 11.5455C77.8334 11.0514 78.2451 10.6671 78.7706 10.3926C79.304 10.1102 79.904 9.96905 80.5706 9.96905C81.2373 9.96905 81.8334 10.1102 82.3589 10.3926C82.8843 10.6671 83.2961 11.0514 83.5942 11.5455C83.8922 12.0396 84.0412 12.6004 84.0412 13.2279C84.0412 13.8553 83.8922 14.4161 83.5942 14.9102C83.2961 15.4043 82.8843 15.7926 82.3589 16.0749C81.8334 16.3494 81.2373 16.4867 80.5706 16.4867ZM80.5706 14.9808C81.0412 14.9808 81.4255 14.824 81.7236 14.5102C82.0294 14.1887 82.1824 13.7612 82.1824 13.2279C82.1824 12.6945 82.0294 12.271 81.7236 11.9573C81.4255 11.6357 81.0412 11.4749 80.5706 11.4749C80.1 11.4749 79.7118 11.6357 79.4059 11.9573C79.1 12.271 78.9471 12.6945 78.9471 13.2279C78.9471 13.7612 79.1 14.1887 79.4059 14.5102C79.7118 14.824 80.1 14.9808 80.5706 14.9808ZM87.7175 9.96905C88.6979 9.96905 89.4508 10.2043 89.9763 10.6749C90.5018 11.1377 90.7646 11.8396 90.7646 12.7808V16.3926H89.0469V15.6043C88.7018 16.1926 88.0587 16.4867 87.1175 16.4867C86.6312 16.4867 86.2077 16.4043 85.8469 16.2396C85.494 16.0749 85.2234 15.8475 85.0351 15.5573C84.8469 15.2671 84.7528 14.9377 84.7528 14.569C84.7528 13.9808 84.9724 13.5181 85.4116 13.1808C85.8587 12.8436 86.5449 12.6749 87.4704 12.6749H88.9293C88.9293 12.2749 88.8077 11.969 88.5646 11.7573C88.3214 11.5377 87.9567 11.4279 87.4704 11.4279C87.1332 11.4279 86.7999 11.4828 86.4704 11.5926C86.1489 11.6945 85.8744 11.8357 85.6469 12.0161L84.9881 10.7338C85.3332 10.4906 85.7449 10.3024 86.2234 10.169C86.7097 10.0357 87.2077 9.96905 87.7175 9.96905ZM87.5763 15.2514C87.89 15.2514 88.1685 15.1808 88.4116 15.0396C88.6548 14.8906 88.8273 14.6749 88.9293 14.3926V13.7455H87.6704C86.9175 13.7455 86.541 13.9926 86.541 14.4867C86.541 14.722 86.6312 14.9102 86.8116 15.0514C86.9999 15.1847 87.2548 15.2514 87.5763 15.2514ZM98.9416 7.66317V16.3926H97.1886V15.6632C96.7337 16.2122 96.0749 16.4867 95.2122 16.4867C94.6161 16.4867 94.0749 16.3534 93.5886 16.0867C93.1102 15.82 92.7337 15.4396 92.4592 14.9455C92.1847 14.4514 92.0475 13.8789 92.0475 13.2279C92.0475 12.5769 92.1847 12.0043 92.4592 11.5102C92.7337 11.0161 93.1102 10.6357 93.5886 10.369C94.0749 10.1024 94.6161 9.96905 95.2122 9.96905C96.02 9.96905 96.6514 10.224 97.1063 10.7338V7.66317H98.9416ZM95.5298 14.9808C95.9926 14.9808 96.3769 14.824 96.6828 14.5102C96.9886 14.1887 97.1416 13.7612 97.1416 13.2279C97.1416 12.6945 96.9886 12.271 96.6828 11.9573C96.3769 11.6357 95.9926 11.4749 95.5298 11.4749C95.0592 11.4749 94.671 11.6357 94.3651 11.9573C94.0592 12.271 93.9063 12.6945 93.9063 13.2279C93.9063 13.7612 94.0592 14.1887 94.3651 14.5102C94.671 14.824 95.0592 14.9808 95.5298 14.9808Z" fill="black"/>
<path d="M39.1735 21.5071C38.9029 21.5071 38.697 21.5806 38.5558 21.7277C38.4205 21.8747 38.3529 22.0924 38.3529 22.3806V22.9277H39.7823V23.4571H38.3705V27.5688H37.7441V23.4571H36.9146V22.9277H37.7441V22.3541C37.7441 21.9306 37.8646 21.5953 38.1058 21.3483C38.3529 21.1012 38.6999 20.9777 39.147 20.9777C39.3235 20.9777 39.4941 21.0041 39.6588 21.0571C39.8235 21.1041 39.9617 21.1747 40.0735 21.2688L39.8617 21.7365C39.6794 21.5836 39.4499 21.5071 39.1735 21.5071ZM42.4477 27.613C42.0006 27.613 41.5977 27.513 41.2389 27.313C40.88 27.1071 40.5977 26.8247 40.3918 26.4659C40.1859 26.1071 40.083 25.7012 40.083 25.2483C40.083 24.7953 40.1859 24.3894 40.3918 24.0306C40.5977 23.6718 40.88 23.3924 41.2389 23.1924C41.5977 22.9924 42.0006 22.8924 42.4477 22.8924C42.8947 22.8924 43.2977 22.9924 43.6565 23.1924C44.0153 23.3924 44.2947 23.6718 44.4947 24.0306C44.7006 24.3894 44.8036 24.7953 44.8036 25.2483C44.8036 25.7012 44.7006 26.1071 44.4947 26.4659C44.2947 26.8247 44.0153 27.1071 43.6565 27.313C43.2977 27.513 42.8947 27.613 42.4477 27.613ZM42.4477 27.0571C42.7771 27.0571 43.0712 26.9836 43.33 26.8365C43.5947 26.6836 43.8006 26.4688 43.9477 26.1924C44.0947 25.9159 44.1683 25.6012 44.1683 25.2483C44.1683 24.8953 44.0947 24.5806 43.9477 24.3041C43.8006 24.0277 43.5947 23.8159 43.33 23.6688C43.0712 23.5159 42.7771 23.4394 42.4477 23.4394C42.1183 23.4394 41.8212 23.5159 41.5565 23.6688C41.2977 23.8159 41.0918 24.0277 40.9389 24.3041C40.7918 24.5806 40.7183 24.8953 40.7183 25.2483C40.7183 25.6012 40.7918 25.9159 40.9389 26.1924C41.0918 26.4688 41.2977 26.6836 41.5565 26.8365C41.8212 26.9836 42.1183 27.0571 42.4477 27.0571ZM46.6826 23.8365C46.8296 23.5247 47.0473 23.2894 47.3355 23.1306C47.6296 22.9718 47.9914 22.8924 48.4208 22.8924V23.5012L48.2708 23.4924C47.7826 23.4924 47.4002 23.6424 47.1237 23.9424C46.8473 24.2424 46.709 24.663 46.709 25.2041V27.5688H46.0826V22.9277H46.6826V23.8365ZM55.9392 25.9188H52.498L51.7569 27.5688H51.0774L53.901 21.3924H54.5451L57.3686 27.5688H56.6804L55.9392 25.9188ZM55.701 25.3894L54.2186 22.0718L52.7363 25.3894H55.701ZM60.6227 22.8924C61.2051 22.8924 61.6668 23.063 62.008 23.4041C62.3551 23.7394 62.5286 24.2306 62.5286 24.8777V27.5688H61.9021V24.9394C61.9021 24.4571 61.7815 24.0894 61.5404 23.8365C61.2992 23.5836 60.9551 23.4571 60.508 23.4571C60.008 23.4571 59.6109 23.6071 59.3168 23.9071C59.0286 24.2012 58.8845 24.61 58.8845 25.1336V27.5688H58.258V22.9277H58.858V23.7836C59.0286 23.5012 59.2639 23.2836 59.5639 23.1306C59.8698 22.9718 60.2227 22.8924 60.6227 22.8924ZM68.4819 21.0218V27.5688H67.8819V26.6512C67.6937 26.963 67.4437 27.2012 67.1319 27.3659C66.826 27.5306 66.479 27.613 66.0908 27.613C65.6555 27.613 65.2613 27.513 64.9084 27.313C64.5555 27.113 64.279 26.8336 64.079 26.4747C63.879 26.1159 63.779 25.7071 63.779 25.2483C63.779 24.7894 63.879 24.3806 64.079 24.0218C64.279 23.663 64.5555 23.3865 64.9084 23.1924C65.2613 22.9924 65.6555 22.8924 66.0908 22.8924C66.4672 22.8924 66.8055 22.9718 67.1055 23.1306C67.4113 23.2836 67.6613 23.51 67.8555 23.81V21.0218H68.4819ZM66.1437 27.0571C66.4672 27.0571 66.7584 26.9836 67.0172 26.8365C67.2819 26.6836 67.4878 26.4688 67.6349 26.1924C67.7878 25.9159 67.8643 25.6012 67.8643 25.2483C67.8643 24.8953 67.7878 24.5806 67.6349 24.3041C67.4878 24.0277 67.2819 23.8159 67.0172 23.6688C66.7584 23.5159 66.4672 23.4394 66.1437 23.4394C65.8143 23.4394 65.5172 23.5159 65.2525 23.6688C64.9937 23.8159 64.7878 24.0277 64.6349 24.3041C64.4878 24.5806 64.4143 24.8953 64.4143 25.2483C64.4143 25.6012 64.4878 25.9159 64.6349 26.1924C64.7878 26.4688 64.9937 26.6836 65.2525 26.8365C65.5172 26.9836 65.8143 27.0571 66.1437 27.0571ZM70.8266 23.8365C70.9737 23.5247 71.1913 23.2894 71.4796 23.1306C71.7737 22.9718 72.1355 22.8924 72.5649 22.8924V23.5012L72.4149 23.4924C71.9266 23.4924 71.5443 23.6424 71.2678 23.9424C70.9913 24.2424 70.8531 24.663 70.8531 25.2041V27.5688H70.2266V22.9277H70.8266V23.8365ZM75.5532 27.613C75.1061 27.613 74.7032 27.513 74.3443 27.313C73.9855 27.1071 73.7032 26.8247 73.4973 26.4659C73.2914 26.1071 73.1885 25.7012 73.1885 25.2483C73.1885 24.7953 73.2914 24.3894 73.4973 24.0306C73.7032 23.6718 73.9855 23.3924 74.3443 23.1924C74.7032 22.9924 75.1061 22.8924 75.5532 22.8924C76.0002 22.8924 76.4032 22.9924 76.762 23.1924C77.1208 23.3924 77.4002 23.6718 77.6002 24.0306C77.8061 24.3894 77.909 24.7953 77.909 25.2483C77.909 25.7012 77.8061 26.1071 77.6002 26.4659C77.4002 26.8247 77.1208 27.1071 76.762 27.313C76.4032 27.513 76.0002 27.613 75.5532 27.613ZM75.5532 27.0571C75.8826 27.0571 76.1767 26.9836 76.4355 26.8365C76.7002 26.6836 76.9061 26.4688 77.0532 26.1924C77.2002 25.9159 77.2737 25.6012 77.2737 25.2483C77.2737 24.8953 77.2002 24.5806 77.0532 24.3041C76.9061 24.0277 76.7002 23.8159 76.4355 23.6688C76.1767 23.5159 75.8826 23.4394 75.5532 23.4394C75.2237 23.4394 74.9267 23.5159 74.662 23.6688C74.4032 23.8159 74.1973 24.0277 74.0443 24.3041C73.8973 24.5806 73.8237 24.8953 73.8237 25.2483C73.8237 25.6012 73.8973 25.9159 74.0443 26.1924C74.1973 26.4688 74.4032 26.6836 74.662 26.8365C74.9267 26.9836 75.2237 27.0571 75.5532 27.0571ZM79.188 22.9277H79.8145V27.5688H79.188V22.9277ZM79.5057 21.913C79.3763 21.913 79.2675 21.8688 79.1792 21.7806C79.091 21.6924 79.0469 21.5865 79.0469 21.463C79.0469 21.3453 79.091 21.2424 79.1792 21.1541C79.2675 21.0659 79.3763 21.0218 79.5057 21.0218C79.6351 21.0218 79.7439 21.0659 79.8322 21.1541C79.9204 21.2365 79.9645 21.3365 79.9645 21.4541C79.9645 21.5836 79.9204 21.6924 79.8322 21.7806C79.7439 21.8688 79.6351 21.913 79.5057 21.913ZM85.7929 21.0218V27.5688H85.1929V26.6512C85.0047 26.963 84.7547 27.2012 84.4429 27.3659C84.1371 27.5306 83.79 27.613 83.4018 27.613C82.9665 27.613 82.5723 27.513 82.2194 27.313C81.8665 27.113 81.59 26.8336 81.39 26.4747C81.19 26.1159 81.09 25.7071 81.09 25.2483C81.09 24.7894 81.19 24.3806 81.39 24.0218C81.59 23.663 81.8665 23.3865 82.2194 23.1924C82.5723 22.9924 82.9665 22.8924 83.4018 22.8924C83.7782 22.8924 84.1165 22.9718 84.4165 23.1306C84.7223 23.2836 84.9723 23.51 85.1665 23.81V21.0218H85.7929ZM83.4547 27.0571C83.7782 27.0571 84.0694 26.9836 84.3282 26.8365C84.5929 26.6836 84.7988 26.4688 84.9459 26.1924C85.0988 25.9159 85.1753 25.6012 85.1753 25.2483C85.1753 24.8953 85.0988 24.5806 84.9459 24.3041C84.7988 24.0277 84.5929 23.8159 84.3282 23.6688C84.0694 23.5159 83.7782 23.4394 83.4547 23.4394C83.1253 23.4394 82.8282 23.5159 82.5635 23.6688C82.3047 23.8159 82.0988 24.0277 81.9459 24.3041C81.7988 24.5806 81.7253 24.8953 81.7253 25.2483C81.7253 25.6012 81.7988 25.9159 81.9459 26.1924C82.0988 26.4688 82.3047 26.6836 82.5635 26.8365C82.8282 26.9836 83.1253 27.0571 83.4547 27.0571Z" fill="black"/>
<g clip-path="url(#clip0)">
<path d="M4.38896 10.5493H4.30609C3.24368 10.5493 2.37744 11.4183 2.37744 12.478V20.8749C2.37744 21.9388 3.24368 22.8049 4.30609 22.8049H4.39037C5.45278 22.8049 6.31902 21.9359 6.31902 20.8749V12.4779C6.31761 11.4183 5.45003 10.5493 4.38896 10.5493Z" fill="black"/>
<path d="M7.24121 24.1176C7.24121 25.0929 8.03834 25.8873 9.01371 25.8873H10.9078V30.4229C10.9078 31.4881 11.7768 32.3543 12.8365 32.3543H12.9193C13.9832 32.3543 14.8507 31.4867 14.8507 30.4229V25.8873H17.4978V30.4229C17.4978 31.4881 18.3695 32.3543 19.4292 32.3543H19.5107C20.5745 32.3543 21.4407 31.4867 21.4407 30.4229V25.8873H23.3362C24.3101 25.8873 25.1073 25.0929 25.1073 24.1176V10.8589H7.24121V24.1176Z" fill="black"/>
<path d="M20.6255 2.81695L22.1301 0.494617C22.2268 0.348142 22.1839 0.147868 22.0361 0.0525018C21.8897 -0.0442089 21.6894 -0.00411557 21.594 0.146459L20.0343 2.54898C18.8641 2.06959 17.5572 1.80021 16.177 1.80021C14.7954 1.80021 13.4912 2.06959 12.3183 2.54898L10.7613 0.146459C10.666 -0.00411557 10.4643 -0.0442089 10.3165 0.0525018C10.1687 0.147804 10.1258 0.348142 10.2225 0.494617L11.7284 2.81695C9.01363 4.1474 7.18311 6.6549 7.18311 9.53124C7.18311 9.70807 7.19419 9.88215 7.20936 10.0548H25.1459C25.1611 9.88215 25.1708 9.70807 25.1708 9.53124C25.1708 6.6549 23.3389 4.1474 20.6255 2.81695ZM12.0185 6.97539C11.5419 6.97539 11.155 6.5913 11.155 6.11332C11.155 5.63533 11.5419 5.25259 12.0185 5.25259C12.4979 5.25259 12.882 5.63527 12.882 6.11332C12.882 6.59136 12.4952 6.97539 12.0185 6.97539ZM20.3341 6.97539C19.8574 6.97539 19.4706 6.5913 19.4706 6.11332C19.4706 5.63533 19.8574 5.25259 20.3341 5.25259C20.812 5.25259 21.1961 5.63527 21.1961 6.11332C21.1961 6.5913 20.812 6.97539 20.3341 6.97539Z" fill="black"/>
<path d="M28.0442 10.5493H27.9641C26.9017 10.5493 26.0327 11.4183 26.0327 12.478V20.8749C26.0327 21.9388 26.9031 22.8049 27.9641 22.8049H28.0456C29.1094 22.8049 29.9743 21.9359 29.9743 20.8749V12.4779C29.9743 11.4183 29.1066 10.5493 28.0442 10.5493Z" fill="black"/>
</g>
<defs>
<clipPath id="clip0">
<rect width="32.3529" height="32.3529" fill="white"/>
</clipPath>
</defs>
</svg>
