<svg width="100" height="34" viewBox="0 0 100 34" fill="none" xmlns="http://www.w3.org/2000/svg">
<path d="M1.40744 12.2678C-1.41392 17.1638 0.379671 24.5936 3.49963 29.0986C5.05699 31.3509 6.63371 33.3726 8.79331 33.3726C8.83401 33.3726 8.87482 33.3719 8.91662 33.3702C9.93126 33.3297 10.6645 33.0173 11.3734 32.7155C12.1693 32.3763 12.9925 32.0256 14.2836 32.0256C15.5119 32.0256 16.2958 32.3649 17.0539 32.6929C17.801 33.0161 18.5705 33.3505 19.7076 33.3292C22.1402 33.2839 23.6338 31.1023 24.9515 29.1777C26.3266 27.1683 27.0163 25.2172 27.2491 24.4716L27.2585 24.442C27.3028 24.3095 27.2402 24.1648 27.1132 24.1065C27.1097 24.1049 27.0968 24.0995 27.0931 24.098C26.6648 23.9228 22.9071 22.2558 22.8676 17.7123C22.831 14.0209 25.6866 12.0662 26.2593 11.7119L26.286 11.6953C26.348 11.6553 26.3912 11.592 26.4059 11.5195C26.4205 11.4472 26.4052 11.3719 26.3636 11.3111C24.3926 8.42659 21.3715 7.99187 20.1552 7.93956C19.9787 7.92195 19.7966 7.91309 19.6136 7.91309C18.185 7.91309 16.8165 8.45263 15.7171 8.88615C14.9582 9.18541 14.3026 9.44385 13.8505 9.44385C13.3425 9.44385 12.6833 9.18223 11.9198 8.87936C10.899 8.47418 9.74186 8.01506 8.51692 8.01506C8.4877 8.01506 8.45893 8.01539 8.43059 8.01594C5.58242 8.05785 2.89116 9.68731 1.40744 12.2678Z" fill="black"/>
<path d="M20.1578 0.000210241C18.433 0.070457 16.364 1.13215 15.1274 2.58063C14.0764 3.79813 13.0498 5.82807 13.3202 7.8742C13.3372 8.00222 13.4414 8.10102 13.5701 8.11098C13.6866 8.12006 13.8054 8.12466 13.9238 8.12477C15.6103 8.12477 17.4296 7.19175 18.672 5.68943C19.9797 4.10308 20.6409 2.06724 20.4409 0.243667C20.4251 0.100766 20.2994 -0.00537011 20.1578 0.000210241Z" fill="black"/>
<path d="M35.8547 9.07084H39.7092C40.6304 9.07084 41.4426 9.24861 42.1456 9.60417C42.8567 9.95164 43.4062 10.4446 43.7941 11.083C44.19 11.7213 44.388 12.4648 44.388 13.3133C44.388 14.1617 44.19 14.9052 43.7941 15.5435C43.4062 16.1819 42.8567 16.6789 42.1456 17.0345C41.4426 17.3819 40.6304 17.5557 39.7092 17.5557H35.8547V9.07084ZM39.6123 15.9435C40.4607 15.9435 41.1355 15.7092 41.6365 15.2405C42.1456 14.7638 42.4001 14.1213 42.4001 13.3133C42.4001 12.5052 42.1456 11.8668 41.6365 11.3981C41.1355 10.9213 40.4607 10.683 39.6123 10.683H37.8183V15.9435H39.6123ZM48.8386 17.6526C48.1517 17.6526 47.5335 17.5112 46.984 17.2284C46.4426 16.9375 46.0184 16.5375 45.7113 16.0284C45.4042 15.5193 45.2507 14.9415 45.2507 14.2951C45.2507 13.6486 45.4042 13.0708 45.7113 12.5617C46.0184 12.0526 46.4426 11.6567 46.984 11.3739C47.5335 11.083 48.1517 10.9375 48.8386 10.9375C49.5254 10.9375 50.1396 11.083 50.681 11.3739C51.2224 11.6567 51.6466 12.0526 51.9537 12.5617C52.2608 13.0708 52.4143 13.6486 52.4143 14.2951C52.4143 14.9415 52.2608 15.5193 51.9537 16.0284C51.6466 16.5375 51.2224 16.9375 50.681 17.2284C50.1396 17.5112 49.5254 17.6526 48.8386 17.6526ZM48.8386 16.1011C49.3234 16.1011 49.7194 15.9395 50.0264 15.6163C50.3416 15.285 50.4992 14.8446 50.4992 14.2951C50.4992 13.7456 50.3416 13.3092 50.0264 12.986C49.7194 12.6547 49.3234 12.489 48.8386 12.489C48.3537 12.489 47.9537 12.6547 47.6386 12.986C47.3234 13.3092 47.1658 13.7456 47.1658 14.2951C47.1658 14.8446 47.3234 15.285 47.6386 15.6163C47.9537 15.9395 48.3537 16.1011 48.8386 16.1011ZM63.9734 11.0345L61.6097 17.5557H59.7916L58.3249 13.5072L56.8098 17.5557H54.9916L52.6401 11.0345H54.4219L55.9613 15.4466L57.5613 11.0345H59.1613L60.7128 15.4466L62.3006 11.0345H63.9734ZM68.8161 10.9375C69.6241 10.9375 70.2746 11.1799 70.7676 11.6648C71.2686 12.1496 71.5191 12.8688 71.5191 13.8223V17.5557H69.6282V14.1132C69.6282 13.5961 69.5151 13.2122 69.2888 12.9617C69.0625 12.7032 68.7353 12.5739 68.307 12.5739C67.8302 12.5739 67.4504 12.7234 67.1676 13.0223C66.8848 13.3133 66.7433 13.7496 66.7433 14.3314V17.5557H64.8524V11.0345H66.6585V11.7981C66.909 11.5234 67.2201 11.3133 67.5918 11.1678C67.9635 11.0143 68.3716 10.9375 68.8161 10.9375ZM73.2331 8.56175H75.124V17.5557H73.2331V8.56175ZM79.9819 17.6526C79.2951 17.6526 78.6769 17.5112 78.1274 17.2284C77.586 16.9375 77.1617 16.5375 76.8547 16.0284C76.5476 15.5193 76.3941 14.9415 76.3941 14.2951C76.3941 13.6486 76.5476 13.0708 76.8547 12.5617C77.1617 12.0526 77.586 11.6567 78.1274 11.3739C78.6769 11.083 79.2951 10.9375 79.9819 10.9375C80.6688 10.9375 81.2829 11.083 81.8244 11.3739C82.3658 11.6567 82.79 12.0526 83.0971 12.5617C83.4042 13.0708 83.5577 13.6486 83.5577 14.2951C83.5577 14.9415 83.4042 15.5193 83.0971 16.0284C82.79 16.5375 82.3658 16.9375 81.8244 17.2284C81.2829 17.5112 80.6688 17.6526 79.9819 17.6526ZM79.9819 16.1011C80.4668 16.1011 80.8627 15.9395 81.1698 15.6163C81.485 15.285 81.6425 14.8446 81.6425 14.2951C81.6425 13.7456 81.485 13.3092 81.1698 12.986C80.8627 12.6547 80.4668 12.489 79.9819 12.489C79.4971 12.489 79.0971 12.6547 78.7819 12.986C78.4668 13.3092 78.3092 13.7456 78.3092 14.2951C78.3092 14.8446 78.4668 15.285 78.7819 15.6163C79.0971 15.9395 79.4971 16.1011 79.9819 16.1011ZM87.3454 10.9375C88.3555 10.9375 89.1312 11.1799 89.6726 11.6648C90.2141 12.1415 90.4848 12.8648 90.4848 13.8345V17.5557H88.7151V16.7435C88.3595 17.3496 87.6969 17.6526 86.7272 17.6526C86.2262 17.6526 85.7898 17.5678 85.4181 17.3981C85.0545 17.2284 84.7757 16.994 84.5817 16.6951C84.3878 16.3961 84.2908 16.0567 84.2908 15.6769C84.2908 15.0708 84.5171 14.5941 84.9696 14.2466C85.4302 13.8991 86.1373 13.7254 87.0908 13.7254H88.5939C88.5939 13.3133 88.4686 12.9981 88.2181 12.7799C87.9676 12.5537 87.5918 12.4405 87.0908 12.4405C86.7434 12.4405 86.3999 12.4971 86.0605 12.6102C85.7292 12.7153 85.4464 12.8607 85.212 13.0466L84.5333 11.7254C84.8888 11.4749 85.3131 11.2809 85.806 11.1436C86.307 11.0062 86.8201 10.9375 87.3454 10.9375ZM87.1999 16.3799C87.5231 16.3799 87.81 16.3072 88.0605 16.1617C88.311 16.0082 88.4888 15.786 88.5939 15.4951V14.8284H87.2969C86.5211 14.8284 86.1333 15.0829 86.1333 15.592C86.1333 15.8345 86.2262 16.0284 86.412 16.1738C86.606 16.3112 86.8686 16.3799 87.1999 16.3799ZM98.9095 8.56175V17.5557H97.1035V16.8042C96.6348 17.3698 95.956 17.6526 95.0671 17.6526C94.453 17.6526 93.8954 17.5153 93.3944 17.2405C92.9015 16.9658 92.5136 16.5738 92.2308 16.0648C91.9479 15.5557 91.8065 14.9658 91.8065 14.2951C91.8065 13.6244 91.9479 13.0345 92.2308 12.5254C92.5136 12.0163 92.9015 11.6244 93.3944 11.3496C93.8954 11.0749 94.453 10.9375 95.0671 10.9375C95.8995 10.9375 96.55 11.2001 97.0186 11.7254V8.56175H98.9095ZM95.3944 16.1011C95.8712 16.1011 96.2671 15.9395 96.5823 15.6163C96.8974 15.285 97.055 14.8446 97.055 14.2951C97.055 13.7456 96.8974 13.3092 96.5823 12.986C96.2671 12.6547 95.8712 12.489 95.3944 12.489C94.9096 12.489 94.5096 12.6547 94.1944 12.986C93.8793 13.3092 93.7217 13.7456 93.7217 14.2951C93.7217 14.8446 93.8793 15.285 94.1944 15.6163C94.5096 15.9395 94.9096 16.1011 95.3944 16.1011Z" fill="black"/>
<path d="M37.3304 21.9772C37.0517 21.9772 36.8395 22.053 36.6941 22.2045C36.5547 22.356 36.485 22.5802 36.485 22.8772V23.4408H37.9577V23.9863H36.5032V28.2227H35.8577V23.9863H35.0032V23.4408H35.8577V22.8499C35.8577 22.4136 35.982 22.0681 36.2304 21.8136C36.485 21.559 36.8426 21.4318 37.3032 21.4318C37.485 21.4318 37.6607 21.459 37.8304 21.5136C38.0001 21.5621 38.1426 21.6348 38.2577 21.7318L38.0395 22.2136C37.8517 22.056 37.6153 21.9772 37.3304 21.9772ZM40.7039 28.2681C40.2433 28.2681 39.8281 28.1651 39.4584 27.959C39.0887 27.7469 38.7978 27.456 38.5857 27.0863C38.3736 26.7166 38.2675 26.2984 38.2675 25.8318C38.2675 25.3651 38.3736 24.9469 38.5857 24.5772C38.7978 24.2075 39.0887 23.9196 39.4584 23.7136C39.8281 23.5075 40.2433 23.4045 40.7039 23.4045C41.1645 23.4045 41.5796 23.5075 41.9493 23.7136C42.319 23.9196 42.6069 24.2075 42.813 24.5772C43.0251 24.9469 43.1311 25.3651 43.1311 25.8318C43.1311 26.2984 43.0251 26.7166 42.813 27.0863C42.6069 27.456 42.319 27.7469 41.9493 27.959C41.5796 28.1651 41.1645 28.2681 40.7039 28.2681ZM40.7039 27.6954C41.0433 27.6954 41.3463 27.6196 41.613 27.4681C41.8857 27.3105 42.0978 27.0893 42.2493 26.8045C42.4008 26.5196 42.4766 26.1954 42.4766 25.8318C42.4766 25.4681 42.4008 25.1439 42.2493 24.859C42.0978 24.5742 41.8857 24.356 41.613 24.2045C41.3463 24.0469 41.0433 23.9681 40.7039 23.9681C40.3645 23.9681 40.0584 24.0469 39.7857 24.2045C39.519 24.356 39.3069 24.5742 39.1493 24.859C38.9978 25.1439 38.9221 25.4681 38.9221 25.8318C38.9221 26.1954 38.9978 26.5196 39.1493 26.8045C39.3069 27.0893 39.519 27.3105 39.7857 27.4681C40.0584 27.6196 40.3645 27.6954 40.7039 27.6954ZM45.0671 24.3772C45.2186 24.056 45.4428 23.8136 45.7398 23.6499C46.0428 23.4863 46.4156 23.4045 46.858 23.4045V24.0318L46.7034 24.0227C46.2004 24.0227 45.8065 24.1772 45.5216 24.4863C45.2368 24.7954 45.0943 25.2287 45.0943 25.7863V28.2227H44.4489V23.4408H45.0671V24.3772ZM50.6133 21.859H51.286V28.2227H50.6133V21.859ZM56.1384 28.2772C55.508 28.2772 54.9353 28.1378 54.4202 27.859C53.9111 27.5742 53.5111 27.1863 53.2202 26.6954C52.9353 26.2045 52.7929 25.653 52.7929 25.0408C52.7929 24.4287 52.9353 23.8772 53.2202 23.3863C53.5111 22.8954 53.9111 22.5105 54.4202 22.2318C54.9353 21.9469 55.508 21.8045 56.1384 21.8045C56.7687 21.8045 57.3353 21.9439 57.8383 22.2227C58.3474 22.5015 58.7474 22.8893 59.0383 23.3863C59.3293 23.8772 59.4747 24.4287 59.4747 25.0408C59.4747 25.653 59.3293 26.2075 59.0383 26.7045C58.7474 27.1954 58.3474 27.5802 57.8383 27.859C57.3353 28.1378 56.7687 28.2772 56.1384 28.2772ZM56.1384 27.6772C56.6414 27.6772 57.0959 27.5651 57.502 27.3408C57.908 27.1105 58.2262 26.7954 58.4565 26.3954C58.6868 25.9893 58.802 25.5378 58.802 25.0408C58.802 24.5439 58.6868 24.0954 58.4565 23.6954C58.2262 23.2893 57.908 22.9742 57.502 22.7499C57.0959 22.5196 56.6414 22.4045 56.1384 22.4045C55.6353 22.4045 55.1777 22.5196 54.7656 22.7499C54.3596 22.9742 54.0384 23.2893 53.802 23.6954C53.5717 24.0954 53.4565 24.5439 53.4565 25.0408C53.4565 25.5378 53.5717 25.9893 53.802 26.3954C54.0384 26.7954 54.3596 27.1105 54.7656 27.3408C55.1777 27.5651 55.6353 27.6772 56.1384 27.6772ZM62.7371 28.2772C62.2644 28.2772 61.8099 28.2014 61.3735 28.0499C60.9432 27.8984 60.6099 27.6984 60.3735 27.4499L60.6371 26.9318C60.8674 27.1621 61.1735 27.3499 61.5553 27.4954C61.9371 27.6348 62.3311 27.7045 62.7371 27.7045C63.3068 27.7045 63.7341 27.6014 64.0189 27.3954C64.3038 27.1833 64.4462 26.9105 64.4462 26.5772C64.4462 26.3227 64.3674 26.1196 64.2099 25.9681C64.0583 25.8166 63.8705 25.7015 63.6462 25.6227C63.422 25.5378 63.1099 25.4469 62.7099 25.3499C62.2311 25.2287 61.8493 25.1136 61.5644 25.0045C61.2796 24.8893 61.0341 24.7166 60.828 24.4863C60.628 24.256 60.528 23.9439 60.528 23.5499C60.528 23.2287 60.6129 22.9378 60.7826 22.6772C60.9523 22.4105 61.2129 22.1984 61.5644 22.0409C61.9159 21.8833 62.3523 21.8045 62.8735 21.8045C63.2371 21.8045 63.5917 21.856 63.9371 21.959C64.2886 22.056 64.5917 22.1924 64.8462 22.3681L64.6189 22.9045C64.3523 22.7287 64.0674 22.5984 63.7644 22.5136C63.4614 22.4227 63.1644 22.3772 62.8735 22.3772C62.3159 22.3772 61.8947 22.4863 61.6099 22.7045C61.3311 22.9166 61.1917 23.1924 61.1917 23.5318C61.1917 23.7863 61.2674 23.9924 61.4189 24.1499C61.5765 24.3015 61.7705 24.4196 62.0008 24.5045C62.2371 24.5833 62.5523 24.6711 62.9462 24.7681C63.4129 24.8833 63.7886 24.9984 64.0735 25.1136C64.3644 25.2227 64.6099 25.3924 64.8099 25.6227C65.0098 25.8469 65.1098 26.153 65.1098 26.5408C65.1098 26.8621 65.022 27.156 64.8462 27.4227C64.6765 27.6833 64.4129 27.8924 64.0553 28.0499C63.6977 28.2014 63.2583 28.2772 62.7371 28.2772Z" fill="black"/>
</svg>
