<svg width="45" height="45" viewBox="0 0 45 45" fill="none" xmlns="http://www.w3.org/2000/svg">
<g clip-path="url(#clip0)">
<path d="M42.008 23.083C41.8269 22.7126 41.8269 22.2877 42.008 21.9173L43.6863 18.4839C44.6208 16.5722 43.8804 14.2936 42.0008 13.2964L38.6249 11.5052C38.2607 11.312 38.011 10.9681 37.9397 10.5622L37.2795 6.79794C36.9118 4.70211 34.9732 3.29376 32.8667 3.59179L29.0828 4.12705C28.6743 4.1847 28.2705 4.05339 27.9742 3.76678L25.2276 1.10969C23.6982 -0.369853 21.3023 -0.36994 19.773 1.10969L17.0263 3.76705C16.7299 4.05375 16.326 4.18479 15.9177 4.12731L12.1338 3.59206C10.0266 3.29385 8.08863 4.70237 7.72099 6.7982L7.06076 10.5623C6.98948 10.9683 6.73978 11.3121 6.37565 11.5053L2.99979 13.2965C1.12018 14.2937 0.379789 16.5725 1.31424 18.4842L2.9925 21.9175C3.17355 22.288 3.17355 22.7128 2.9925 23.0832L1.31415 26.5165C0.379701 28.4282 1.12009 30.7068 2.99971 31.7041L6.37557 33.4953C6.73978 33.6884 6.98948 34.0323 7.06076 34.4382L7.72099 38.2025C8.05567 40.1104 9.69166 41.4484 11.5719 41.4483C11.7571 41.4483 11.945 41.4353 12.1339 41.4085L15.9178 40.8733C16.3259 40.8154 16.73 40.9469 17.0264 41.2336L19.773 43.8906C20.5378 44.6305 21.5189 45.0003 22.5002 45.0003C23.4814 45.0002 24.463 44.6303 25.2275 43.8906L27.9742 41.2336C28.2706 40.9469 28.6745 40.816 29.0828 40.8733L32.8667 41.4085C34.9741 41.7067 36.9118 40.2982 37.2795 38.2024L37.9398 34.4383C38.0111 34.0323 38.2608 33.6885 38.6249 33.4953L42.0008 31.7041C43.8804 30.7069 44.6208 28.4281 43.6863 26.5164L42.008 23.083ZM40.7843 29.4113L37.4084 31.2025C36.3321 31.7737 35.5939 32.7895 35.3834 33.9897L34.7232 37.7539C34.5988 38.463 33.9433 38.9393 33.2302 38.8386L29.4463 38.3034C28.2395 38.1324 27.0455 38.5208 26.1696 39.368L23.4229 42.025C22.9056 42.5254 22.095 42.5254 21.5775 42.025L18.8308 39.3679C18.0906 38.6519 17.1229 38.2638 16.1127 38.2638C15.9276 38.2638 15.741 38.2768 15.5542 38.3033L11.7703 38.8385C11.0578 38.9393 10.4017 38.4629 10.2773 37.7538L9.61695 33.9896C9.40637 32.7893 8.66827 31.7734 7.59188 31.2024L4.21602 29.4112C3.58004 29.0738 3.32956 28.3029 3.6457 27.6561L5.32405 24.2227C5.85912 23.1279 5.85912 21.8723 5.32405 20.7776L3.6457 17.3441C3.32956 16.6974 3.58004 15.9265 4.21602 15.5891L7.59188 13.7979C8.66818 13.2267 9.40637 12.2108 9.61686 11.0106L10.2771 7.24644C10.4015 6.53734 11.057 6.06098 11.7701 6.1617L15.554 6.69695C16.7603 6.86772 17.9548 6.47951 18.8306 5.63234L21.5774 2.97525C22.0947 2.4748 22.9053 2.4748 23.4228 2.97525L26.1695 5.63234C27.0453 6.4796 28.2396 6.86772 29.4461 6.69695L33.23 6.1617C33.9426 6.06089 34.5987 6.53734 34.723 7.24644L35.3833 11.0107C35.5938 12.2109 36.3319 13.2268 37.4083 13.7979L40.7842 15.5891C41.4202 15.9265 41.6707 16.6974 41.3545 17.3441L39.6762 20.7775C39.1411 21.8721 39.1411 23.1279 39.6762 24.2226L41.3545 27.6559C41.6707 28.3029 41.4203 29.0739 40.7843 29.4113Z" fill="#0057FF"/>
<path d="M31.9818 13.0183C31.4752 12.5115 30.6534 12.5115 30.1466 13.0183L13.0178 30.1472C12.511 30.6539 12.511 31.4756 13.0178 31.9824C13.2712 32.2358 13.6033 32.3625 13.9354 32.3625C14.2674 32.3625 14.5996 32.2359 14.8529 31.9824L31.9818 14.8536C32.4887 14.3467 32.4887 13.5251 31.9818 13.0183Z" fill="#0057FF"/>
<path d="M17.3091 10.8203C14.6854 10.8203 12.5508 12.9549 12.5508 15.5786C12.5508 18.2023 14.6854 20.3369 17.3091 20.3369C19.9328 20.3369 22.0673 18.2023 22.0673 15.5786C22.0673 12.9549 19.9328 10.8203 17.3091 10.8203ZM17.3091 17.7414C16.1165 17.7414 15.1463 16.7712 15.1463 15.5785C15.1463 14.3859 16.1165 13.4157 17.3091 13.4157C18.5016 13.4157 19.472 14.3859 19.472 15.5785C19.4719 16.7712 18.5016 17.7414 17.3091 17.7414Z" fill="#0057FF"/>
<path d="M27.6909 24.6626C25.0672 24.6626 22.9326 26.7972 22.9326 29.4209C22.9326 32.0446 25.0672 34.1792 27.6909 34.1792C30.3146 34.1792 32.4492 32.0446 32.4492 29.4209C32.4492 26.7972 30.3146 24.6626 27.6909 24.6626ZM27.6909 31.5837C26.4983 31.5837 25.528 30.6135 25.528 29.4209C25.528 28.2283 26.4982 27.2581 27.6909 27.2581C28.8835 27.2581 29.8537 28.2283 29.8537 29.4209C29.8537 30.6135 28.8835 31.5837 27.6909 31.5837Z" fill="#0057FF"/>
</g>
<defs>
<clipPath id="clip0">
<rect width="45" height="45" fill="white"/>
</clipPath>
</defs>
</svg>
