<svg width="45" height="45" viewBox="0 0 45 45" fill="none" xmlns="http://www.w3.org/2000/svg">
<g clip-path="url(#clip0)">
<path d="M29.8971 44.9998C28.9146 44.9998 28.0202 44.3828 27.6714 43.4661L19.8453 22.9234C19.7495 22.7116 19.686 22.4023 19.686 22.0703C19.686 20.756 20.7545 19.6855 22.069 19.6855C22.4082 19.6855 22.7234 19.7511 23.0084 19.8806L43.4646 27.6709C44.3833 28.0197 45.0003 28.9141 45.0003 29.8984C45.0003 30.9335 44.3366 31.8447 43.352 32.1653L34.9258 34.9253L32.1641 43.3573C31.8414 44.3399 30.9302 44.9998 29.8971 44.9998ZM22.8134 22.8149L29.869 41.3303L32.4752 33.3749C32.6139 32.9491 32.9496 32.6154 33.3733 32.4767L41.3291 29.8706L22.8134 22.8149ZM42.4689 30.3035H42.4878H42.4689ZM21.9245 22.4754C21.9303 22.4792 21.9396 22.4829 21.9489 22.4847L21.9245 22.4754ZM22.4477 21.8529L22.4759 21.924C22.4666 21.9017 22.4591 21.8773 22.4477 21.8529Z" fill="#0057FF"/>
<path d="M20.6251 41.2499C9.25323 41.2499 0 31.997 0 20.6251C0 9.25323 9.25323 0 20.6251 0C31.997 0 41.2499 9.25323 41.2499 20.6251C41.2499 21.0223 41.2313 21.4405 41.2107 21.8364C41.173 22.6143 40.5207 23.2145 39.7369 23.1712C38.9627 23.1338 38.3643 22.4739 38.402 21.6977C38.4188 21.3488 38.4374 20.9774 38.4374 20.6251C38.4374 10.8037 30.4462 2.8125 20.6251 2.8125C10.8037 2.8125 2.8125 10.8037 2.8125 20.6251C2.8125 30.4462 10.8037 38.4374 20.6251 38.4374C20.9774 38.4374 21.3468 38.4206 21.6977 38.402C22.4176 38.3811 23.1338 38.9568 23.1733 39.7331C23.2124 40.5093 22.6164 41.1713 21.8401 41.2107C21.4426 41.2313 21.0244 41.2499 20.6251 41.2499Z" fill="#0057FF"/>
<path d="M18.094 31.5753C17.9759 31.5753 17.854 31.5602 17.7339 31.5282C12.801 30.2195 9.35645 25.7364 9.35645 20.6253C9.35645 14.4115 14.4115 9.35645 20.6253 9.35645C25.757 9.35645 30.2421 12.8027 31.5282 17.7376C31.7232 18.4895 31.2735 19.2582 30.5233 19.4532C29.7828 19.6482 29.0044 19.2023 28.8077 18.4483C27.844 14.7507 24.4784 12.1689 20.6253 12.1689C15.964 12.1689 12.1689 15.962 12.1689 20.6253C12.1689 24.4616 14.7545 27.8272 18.4559 28.8095C19.2057 29.0082 19.6541 29.779 19.4532 30.5288C19.2864 31.1588 18.7164 31.5753 18.094 31.5753Z" fill="#0057FF"/>
</g>
<defs>
<clipPath id="clip0">
<rect width="45" height="45" fill="white"/>
</clipPath>
</defs>
</svg>
