<svg width="41" height="45" viewBox="0 0 41 45" fill="none" xmlns="http://www.w3.org/2000/svg">
<path d="M40.0108 10.9331C39.2523 8.35557 37.6792 6.09312 35.527 4.48457C31.2958 1.16569 27.3401 -0.210131 22.7127 0.0263793C20.2726 0.194863 17.848 0.541236 15.4582 1.06277C12.0744 1.74391 9.61721 2.93332 7.94433 4.6992C6.61781 6.11176 5.5939 7.78051 4.93552 9.60299C4.65744 10.4016 4.43095 11.2173 4.25728 12.0448L4.19426 12.3162C4.03667 12.8994 3.82381 13.4662 3.55856 14.0088C3.40255 14.3567 3.24734 14.705 3.11401 15.0591C2.94078 15.4559 2.87126 15.8902 2.91187 16.3213C3.06409 16.9917 3.45247 17.5848 4.00609 17.9923C4.37373 18.3292 4.61543 18.5658 4.61762 18.7811C4.58853 18.8933 4.54441 19.0009 4.48649 19.1012C3.58826 20.9945 2.48762 22.7849 1.20382 24.4412C0.6655 25.0985 0.10081 25.8653 0.215066 26.6461C0.378453 27.2375 0.769209 27.7403 1.30199 28.0446C1.54993 28.217 1.81149 28.3688 2.08421 28.4984C2.40791 28.6632 2.94992 28.9397 2.98727 29.1371C3.03667 29.3904 3.00802 29.6527 2.90519 29.8893C2.79383 30.124 2.67817 30.3269 2.5785 30.503C2.30314 30.9901 1.84172 31.8053 2.53746 32.3886C2.69935 32.5318 2.9762 32.7494 3.22959 32.943C3.04194 33.2726 2.95774 33.651 2.98789 34.0291C3.02841 34.3226 3.18819 34.5863 3.42953 34.7583C3.59723 34.8773 3.7767 34.9809 3.95467 35.0827C4.39561 35.334 4.5677 35.4512 4.62703 35.6851C4.6664 35.9906 4.63872 36.3009 4.54573 36.5944C4.50249 36.7911 4.46004 36.9877 4.43367 37.184C4.35835 37.8661 4.44439 38.5565 4.68495 39.1992C5.07412 40.6233 6.50936 41.4942 7.95224 41.1818C10.0938 40.6654 12.206 40.0337 14.2795 39.2897C15.9655 40.2854 17.0304 43.2989 17.308 44.429C17.3908 44.7642 17.6914 44.9999 18.0368 45.0003H36.9989C37.2366 45.0002 37.4603 44.8874 37.6017 44.6963C37.7431 44.5051 37.7855 44.2582 37.716 44.0309C37.5157 43.5024 37.2305 43.01 36.8715 42.5735C36.6682 42.3143 36.4874 42.0382 36.3309 41.7484C35.993 41.0564 35.7097 40.3391 35.4835 39.6032C35.0547 38.1547 34.7589 36.6702 34.5995 35.1681C34.3344 32.9253 34.6729 30.6525 35.5802 28.5845C36.1354 27.4399 36.8184 26.3618 37.6163 25.371C38.0697 24.7612 38.5377 24.1307 38.9595 23.4656C40.1434 21.6265 40.78 19.4888 40.7949 17.3017C40.84 15.1522 40.5759 13.0075 40.0108 10.9331ZM39.2952 17.2805C39.2825 19.1906 38.7265 21.0576 37.6919 22.6634C37.3001 23.2808 36.849 23.8887 36.4124 24.4769C35.5464 25.5586 34.806 26.7354 34.2057 27.9844C33.1913 30.2977 32.8132 32.84 33.1107 35.3484C33.2804 36.9397 33.5949 38.512 34.0504 40.0461C34.299 40.8544 34.61 41.6422 34.9805 42.4023C35.1753 42.7742 35.403 43.1279 35.661 43.4591C35.6712 43.4727 35.6814 43.4866 35.6909 43.5005H18.6046C18.1051 41.7205 17.2001 40.0804 15.9606 38.7087C16.1569 38.6402 16.343 38.575 16.5158 38.5142C17.0775 38.3176 17.5009 38.1689 17.714 38.1018C20.9293 37.0926 22.5377 35.6314 22.4937 33.7586C22.4841 33.3444 22.1403 33.0165 21.7262 33.0262C21.312 33.036 20.984 33.3796 20.9938 33.7938C21.0121 34.5665 20.3801 35.6929 17.2636 36.6711C17.0424 36.741 16.6022 36.8945 16.02 37.0988C15.4823 37.2871 14.8203 37.5189 14.0959 37.7664L14.0915 37.7679C11.9804 38.5319 9.82955 39.1813 7.64849 39.7132C6.94599 39.8495 6.26195 39.4046 6.10164 38.7072C5.9393 38.286 5.87734 37.8327 5.92076 37.3833C5.94124 37.2281 5.97639 37.0728 6.01085 36.9175C6.16465 36.3972 6.18856 35.8471 6.08045 35.3154C5.86556 34.6266 5.36082 34.0659 4.69839 33.7799C4.64496 33.7495 4.59073 33.7187 4.538 33.6876C4.61806 33.5236 4.71421 33.3678 4.82513 33.2229C4.9502 33.0636 5.00539 32.8605 4.97823 32.6597C4.95108 32.4591 4.84376 32.2778 4.6809 32.1575C4.50073 32.0245 4.07227 31.7034 3.76395 31.4573C3.80201 31.3873 3.84525 31.3108 3.8848 31.2416C3.99976 31.038 4.13159 30.8033 4.25983 30.5341C4.49985 30.0095 4.57025 29.423 4.46127 28.8565C4.28619 27.937 3.4073 27.4891 2.76571 27.1617C2.54827 27.0588 2.33979 26.938 2.14239 26.8007C1.98657 26.6925 1.83891 26.5729 1.70075 26.4429C1.70295 26.3301 1.8201 26.0558 2.39727 25.3515C3.73767 23.6237 4.88665 21.7556 5.82426 19.7801C6.00478 19.4706 6.10568 19.1211 6.11798 18.7631C6.0417 18.0075 5.64074 17.3225 5.01937 16.8859C4.71615 16.6084 4.4298 16.3461 4.39755 16.1162C4.40036 15.934 4.44132 15.7544 4.51769 15.5889C4.64074 15.2618 4.78505 14.9418 4.92787 14.6214C5.23373 13.9917 5.47736 13.3335 5.65516 12.6563L5.71888 12.3828C5.8784 11.6169 6.08678 10.8621 6.34289 10.1229C6.93131 8.49092 7.84668 6.99627 9.03301 5.73058C10.4861 4.19691 12.6848 3.15102 15.7544 2.53325C18.072 2.02683 20.4234 1.68951 22.7899 1.52402C27.035 1.31053 30.6765 2.58493 34.603 5.66545C36.5108 7.07274 37.9039 9.06739 38.5683 11.3431C39.0932 13.2773 39.3382 15.2768 39.2952 17.2805Z" fill="#0057FF"/>
<path d="M36.0954 12.1302H34.5405C34.3678 11.5434 34.1328 10.9766 33.8396 10.4398L34.9397 9.3397C35.1967 9.08271 35.2326 8.67842 35.0247 8.38021C34.3036 7.34566 33.4049 6.44708 32.3704 5.72595C32.0725 5.5173 31.6677 5.55298 31.4109 5.8105L30.3108 6.91061C29.7737 6.61732 29.2067 6.38231 28.6196 6.20969V4.65449C28.6195 4.29124 28.359 3.98029 28.0015 3.91622C26.7596 3.6972 25.489 3.6972 24.2471 3.91622C23.8895 3.98029 23.6292 4.29124 23.629 4.65449V6.20978C23.0419 6.3824 22.4749 6.61741 21.9378 6.9107L20.8377 5.81059C20.5809 5.55307 20.1762 5.51739 19.8782 5.72604C18.8437 6.44708 17.945 7.34575 17.224 8.3803C17.016 8.67842 17.0518 9.0828 17.309 9.33979L18.4091 10.4399C18.1159 10.9767 17.8809 11.5434 17.7082 12.1303H16.1533C15.79 12.1302 15.4788 12.3907 15.415 12.7484C15.1943 13.9904 15.1943 15.2615 15.415 16.5035C15.4788 16.8612 15.79 17.1217 16.1533 17.1216H17.7082C17.8809 17.7084 18.116 18.2752 18.4092 18.812L17.309 19.9121C17.052 20.1691 17.0161 20.5734 17.2241 20.8716C17.9451 21.9061 18.8438 22.8048 19.8783 23.5258C20.1765 23.7334 20.5806 23.6978 20.8378 23.4413L21.9379 22.3412C22.475 22.6345 23.042 22.8695 23.6291 23.0421V24.5974C23.6293 24.9606 23.8897 25.2716 24.2472 25.3357C25.489 25.5559 26.7598 25.5559 28.0016 25.3357C28.3592 25.2716 28.6195 24.9606 28.6197 24.5974V23.0421C29.2068 22.8695 29.7738 22.6345 30.3109 22.3412L31.411 23.4413C31.6682 23.6979 32.0723 23.7336 32.3705 23.5258C33.405 22.8048 34.3037 21.9061 35.0247 20.8716C35.2327 20.5735 35.1969 20.1691 34.9398 19.9121L33.8396 18.812C34.1328 18.2751 34.3679 17.7084 34.5406 17.1216H36.0955C36.4588 17.1217 36.77 16.8612 36.8338 16.5035C37.0545 15.2615 37.0545 13.9904 36.8338 12.7484C36.7699 12.3907 36.4587 12.1302 36.0954 12.1302ZM35.4458 15.6217H33.9589C33.6067 15.6216 33.302 15.8666 33.2265 16.2105C33.0467 17.033 32.7218 17.8168 32.267 18.5254C32.0759 18.8219 32.1176 19.2118 32.3674 19.461L33.4199 20.5135C33.0029 21.0323 32.5309 21.5043 32.0122 21.9212L30.9597 20.8691C30.7104 20.6198 30.3212 20.5777 30.0244 20.7681C29.3156 21.2233 28.5314 21.5484 27.7085 21.7282C27.3646 21.8039 27.1196 22.1085 27.1196 22.4606V23.9475C26.458 24.0185 25.7906 24.0185 25.1289 23.9475V22.4606C25.1289 22.1085 24.884 21.8038 24.5401 21.7282C23.7172 21.5484 22.9329 21.2233 22.2242 20.7681C21.9276 20.5769 21.5378 20.6191 21.2889 20.8691L20.2364 21.9212C19.7176 21.5043 19.2456 21.0322 18.8287 20.5135L19.8811 19.461C20.1308 19.2118 20.1727 18.822 19.9815 18.5254C19.5268 17.8169 19.2018 17.033 19.022 16.2105C18.9465 15.8666 18.6417 15.6216 18.2896 15.6217H16.8029C16.7316 14.9598 16.7316 14.2922 16.8029 13.6303H18.2897C18.6419 13.6304 18.9466 13.3853 19.0221 13.0414C19.2019 12.219 19.5268 11.4352 19.9816 10.7266C20.1727 10.4301 20.131 10.0403 19.8812 9.79092L18.8287 8.73845C19.2457 8.21964 19.7177 7.74767 20.2365 7.33072L21.2889 8.38285C21.5378 8.63281 21.9276 8.67499 22.2243 8.48392C22.933 8.02865 23.7172 7.70355 24.5401 7.52373C24.8841 7.44806 25.129 7.14343 25.129 6.79135V5.30452C25.7906 5.23351 26.4581 5.23351 27.1197 5.30452V6.79135C27.1197 7.14343 27.3647 7.44814 27.7086 7.52373C28.5315 7.70355 29.3157 8.02865 30.0245 8.48392C30.3213 8.6742 30.7104 8.6321 30.9598 8.38285L32.0122 7.33072C32.5311 7.74767 33.003 8.21972 33.42 8.73845L32.3675 9.79092C32.1178 10.0402 32.076 10.43 32.2671 10.7266C32.7219 11.4351 33.0468 12.219 33.2266 13.0414C33.3021 13.3853 33.6069 13.6304 33.959 13.6303H35.4458C35.5171 14.2921 35.5171 14.9598 35.4458 15.6217Z" fill="#0057FF"/>
<path d="M15.9993 21.751H15.1428C15.0729 21.4825 14.9657 21.2251 14.8242 20.9865L15.431 20.3795C15.7238 20.0867 15.7238 19.6119 15.431 19.319C15.1381 19.0261 14.6633 19.0261 14.3704 19.319L13.7635 19.9259C13.5249 19.7846 13.2676 19.6774 12.9993 19.6074V18.7509C12.9993 18.3367 12.6635 18.001 12.2494 18.001C11.8352 18.001 11.4994 18.3368 11.4994 18.7509V19.6074C11.231 19.6774 10.9737 19.7846 10.7352 19.9259L10.1284 19.319C9.93901 19.1295 9.66286 19.0556 9.40403 19.1249C9.14519 19.1943 8.94314 19.3964 8.87379 19.6551C8.80445 19.9139 8.87845 20.19 9.06785 20.3795L9.67464 20.9865C9.53314 21.2251 9.42591 21.4825 9.35604 21.751H8.49947C8.08525 21.751 7.74951 22.0867 7.74951 22.5009C7.74951 22.9151 8.08525 23.2509 8.49947 23.2509H9.35604C9.42591 23.5194 9.53314 23.7767 9.67464 24.0153L9.06785 24.6223C8.87845 24.8118 8.80445 25.0878 8.87379 25.3467C8.94314 25.6054 9.14528 25.8076 9.40403 25.8769C9.66277 25.9463 9.93892 25.8723 10.1284 25.6829L10.7352 25.0759C10.9738 25.2172 11.2311 25.3244 11.4995 25.3944V26.2509C11.4995 26.6651 11.8352 27.0009 12.2494 27.0009C12.6637 27.0009 12.9994 26.6651 12.9994 26.2509V25.3944C13.2678 25.3244 13.5251 25.2172 13.7636 25.0759L14.3704 25.6829C14.6632 25.9757 15.138 25.9757 15.431 25.6829C15.7238 25.39 15.7238 24.9151 15.431 24.6223L14.8242 24.0153C14.9657 23.7767 15.0729 23.5194 15.1428 23.2509H15.9993C16.4136 23.2509 16.7493 22.9151 16.7493 22.5009C16.7493 22.0867 16.4136 21.751 15.9993 21.751ZM12.2494 24.0009C11.4209 24.0009 10.7493 23.3294 10.7493 22.5009C10.7493 21.6725 11.4209 21.0009 12.2494 21.0009C13.0778 21.0009 13.7494 21.6725 13.7494 22.5009C13.7484 23.3289 13.0774 24 12.2494 24.0009Z" fill="#0057FF"/>
<path d="M8.32348 14.2507C8.36971 14.4012 8.43009 14.547 8.50374 14.6861L8.09813 15.0919C7.90873 15.2814 7.83472 15.5575 7.90407 15.8163C7.97341 16.0751 8.17556 16.2772 8.43431 16.3466C8.69305 16.4159 8.9692 16.3419 9.15869 16.1525L9.56544 15.7456C9.70422 15.8189 9.8495 15.8791 9.99944 15.9254V16.5008C9.99944 16.915 10.3352 17.2508 10.7494 17.2508C11.1636 17.2508 11.4994 16.915 11.4994 16.5008V15.9254C11.6493 15.8792 11.7946 15.819 11.9334 15.7456L12.3402 16.1526C12.633 16.4454 13.1079 16.4454 13.4008 16.1526C13.6936 15.8597 13.6936 15.3849 13.4008 15.092L12.9951 14.6861C13.0688 14.547 13.1292 14.4013 13.1754 14.2508H13.7493C14.1635 14.2508 14.4993 13.915 14.4993 13.5009C14.4993 13.0866 14.1635 12.7509 13.7493 12.7509H13.1754C13.1292 12.6004 13.0688 12.4547 12.9951 12.3156L13.4008 11.9097C13.5902 11.7202 13.6642 11.4442 13.5948 11.1853C13.5255 10.9266 13.3233 10.7244 13.0646 10.6551C12.8058 10.5858 12.5297 10.6598 12.3402 10.8492L11.9334 11.2562C11.7946 11.1829 11.6493 11.1228 11.4994 11.0765V10.5009C11.4994 10.0867 11.1636 9.75098 10.7494 9.75098C10.3352 9.75098 9.99944 10.0867 9.99944 10.5009V11.0766C9.8495 11.1228 9.70422 11.183 9.56544 11.2563L9.1586 10.8492C8.86575 10.5563 8.39098 10.5563 8.09804 10.8492C7.80519 11.142 7.80519 11.6168 8.09804 11.9097L8.50374 12.3156C8.43 12.4547 8.36962 12.6004 8.32339 12.7509H7.74947C7.33525 12.7509 6.99951 13.0867 6.99951 13.5009C6.99951 13.9151 7.33534 14.2508 7.74947 14.2508H8.32348V14.2507ZM10.4775 12.4859C10.9366 12.3628 11.4213 12.5634 11.6591 12.9751C11.8968 13.3868 11.8284 13.9068 11.4922 14.243C11.192 14.5435 10.7402 14.6335 10.3477 14.471C9.95514 14.3085 9.69921 13.9255 9.69921 13.5007C9.69912 13.0253 10.0183 12.6091 10.4775 12.4859Z" fill="#0057FF"/>
<path d="M26.1245 9.75098C23.4322 9.75098 21.2495 11.9335 21.2495 14.6259C21.2526 17.317 23.4334 19.4977 26.1245 19.5009C28.8168 19.5009 30.9994 17.3184 30.9994 14.6259C30.9994 11.9335 28.8168 9.75098 26.1245 9.75098ZM26.1245 18.0008C24.2605 18.0008 22.7495 16.4898 22.7495 14.6259C22.7515 12.7628 24.2614 11.2529 26.1245 11.2509C27.9884 11.2509 29.4994 12.7619 29.4994 14.6259C29.4994 16.4898 27.9884 18.0008 26.1245 18.0008Z" fill="#0057FF"/>
</svg>
