<svg width="45" height="45" viewBox="0 0 45 45" fill="none" xmlns="http://www.w3.org/2000/svg">
<path d="M43.0589 30.5928C43.9811 29.4166 44.4234 28.1556 44.367 26.857C44.3105 25.4266 43.6706 24.3068 43.1436 23.6198C43.7553 22.0954 43.9905 19.6957 41.9485 17.8325C40.4523 16.468 37.9115 15.8563 34.392 16.0257C31.9171 16.1386 29.8469 16.5997 29.7622 16.6186H29.7528C29.2823 16.7033 28.7835 16.8068 28.2754 16.9197C28.2377 16.3174 28.3412 14.8212 29.4516 11.4523C30.7691 7.44354 30.6938 4.37578 29.207 2.32434C27.6449 0.169385 25.1511 0 24.4171 0C23.7114 0 23.0621 0.291719 22.601 0.828105C21.5564 2.04203 21.6787 4.28168 21.8105 5.31681C20.5683 8.64806 17.0865 16.8162 14.1411 19.0841C14.0846 19.1217 14.0376 19.1688 13.9905 19.2158C13.1248 20.1286 12.5414 21.1167 12.1461 21.9824C11.5909 21.6813 10.9604 21.5119 10.2829 21.5119H4.54261C2.37824 21.5119 0.62793 23.2716 0.62793 25.4266V40.7183C0.62793 42.8827 2.38765 44.633 4.54261 44.633H10.2829C11.1204 44.633 11.9015 44.3695 12.5414 43.9178L14.7528 44.1813C15.0915 44.2284 21.1141 44.9906 27.2967 44.8683C28.4165 44.9529 29.4705 45 30.4491 45C32.1336 45 33.6016 44.8683 34.8249 44.6048C37.7045 43.9931 39.6712 42.7698 40.6687 40.9724C41.4309 39.5985 41.4309 38.234 41.3086 37.3683C43.1813 35.6744 43.5106 33.8018 43.4447 32.4843C43.4071 31.7221 43.2377 31.0728 43.0589 30.5928ZM4.54261 42.0922C3.78038 42.0922 3.16871 41.4711 3.16871 40.7183V25.4172C3.16871 24.655 3.78979 24.0433 4.54261 24.0433H10.2829C11.0451 24.0433 11.6568 24.6644 11.6568 25.4172V40.7089C11.6568 41.4711 11.0357 42.0828 10.2829 42.0828H4.54261V42.0922ZM40.6499 29.4918C40.2547 29.9059 40.1794 30.5364 40.4805 31.0257C40.4805 31.0351 40.8663 31.6938 40.9134 32.5972C40.9792 33.83 40.3864 34.9216 39.1442 35.8532C38.702 36.192 38.5232 36.7754 38.7114 37.3024C38.7114 37.3118 39.116 38.554 38.4573 39.7302C37.8268 40.8595 36.4247 41.6688 34.2979 42.1204C32.5947 42.4875 30.2798 42.5533 27.4378 42.3275C27.4002 42.3275 27.3531 42.3275 27.3061 42.3275C21.2553 42.4592 15.1386 41.6688 15.0727 41.6593H15.0633L14.1129 41.5464C14.1693 41.2829 14.1976 41.0006 14.1976 40.7183V25.4172C14.1976 25.0125 14.1317 24.6173 14.0188 24.2503C14.1882 23.6198 14.6587 22.2177 15.7691 21.0226C19.9943 17.6725 24.1254 6.37077 24.3042 5.88143C24.3795 5.68381 24.3983 5.46738 24.3607 5.25094C24.2007 4.19699 24.2572 2.90778 24.483 2.52196C24.9818 2.53137 26.3274 2.67252 27.1367 3.79235C28.0966 5.1192 28.0589 7.49059 27.0238 10.6336C25.4429 15.4235 25.3111 17.9454 26.5627 19.0558C27.1838 19.611 28.0119 19.6393 28.6141 19.4228C29.1882 19.2911 29.734 19.1782 30.2515 19.0935C30.2892 19.0841 30.3362 19.0747 30.3739 19.0652C33.2628 18.4348 38.4385 18.0489 40.2358 19.6863C41.7603 21.079 40.6781 22.9235 40.5558 23.1211C40.2076 23.6481 40.3111 24.335 40.7816 24.7585C40.791 24.7679 41.7791 25.6995 41.8262 26.9511C41.8638 27.7886 41.4686 28.6449 40.6499 29.4918Z" fill="#0057FF"/>
</svg>
