<svg width="50" height="32" viewBox="0 0 50 32" fill="none" xmlns="http://www.w3.org/2000/svg">
<g id="MasterCard" clip-path="url(#clip0)">
<g id="MasterCard_2">
<rect id="Rectangle" width="50" height="32" rx="3" fill="#F9F9F9"/>
<g id="Group">
<g id="Group_2">
<path id="Vector" d="M29.3635 23.8644H20.6143V8.14062H29.3635V23.8644Z" fill="#FF5F00"/>
<g id="Group_3">
<path id="Vector_2" d="M21.1748 16.001C21.1748 12.8113 22.6682 9.97008 24.9938 8.13906C23.2931 6.80014 21.1468 6.00098 18.8142 6.00098C13.2919 6.00098 8.81543 10.4781 8.81543 16.001C8.81543 21.5239 13.2919 26.001 18.8142 26.001C21.1468 26.001 23.2931 25.2018 24.9938 23.8629C22.6682 22.0319 21.1748 19.1906 21.1748 16.001Z" fill="#EB001B"/>
</g>
<g id="Group_4">
<path id="Vector_3" d="M41.1634 16.001C41.1634 21.5239 36.687 26.001 31.1647 26.001C28.832 26.001 26.6857 25.2018 24.9844 23.8629C27.3107 22.0319 28.8041 19.1906 28.8041 16.001C28.8041 12.8113 27.3107 9.97008 24.9844 8.13906C26.6857 6.80014 28.832 6.00098 31.1647 6.00098C36.687 6.00098 41.1634 10.4781 41.1634 16.001Z" fill="#F79E1B"/>
</g>
</g>
<g id="Group_5">
<path id="Vector_4" d="M16.3393 16.0641C16.3393 15.6273 16.6256 15.2685 17.0933 15.2685C17.5402 15.2685 17.8419 15.6118 17.8419 16.0641C17.8419 16.5164 17.5402 16.8597 17.0933 16.8597C16.6256 16.8597 16.3393 16.5009 16.3393 16.0641ZM18.3513 16.0641V14.8216H17.811V15.1233C17.6396 14.8995 17.3796 14.7591 17.0261 14.7591C16.3292 14.7591 15.7829 15.3054 15.7829 16.0641C15.7829 16.8234 16.3292 17.3691 17.0261 17.3691C17.3796 17.3691 17.6396 17.2287 17.811 17.0049V17.3067H18.3513V16.0641ZM36.6111 16.0641C36.6111 15.6273 36.8974 15.2685 37.3651 15.2685C37.8126 15.2685 38.1137 15.6118 38.1137 16.0641C38.1137 16.5164 37.8126 16.8597 37.3651 16.8597C36.8974 16.8597 36.6111 16.5009 36.6111 16.0641ZM38.6237 16.0641V13.8236H38.0828V15.1233C37.9114 14.8995 37.6513 14.7591 37.2979 14.7591C36.601 14.7591 36.0547 15.3054 36.0547 16.0641C36.0547 16.8234 36.601 17.3691 37.2979 17.3691C37.6513 17.3691 37.9114 17.2287 38.0828 17.0049V17.3067H38.6237V16.0641ZM25.0586 15.2429C25.4067 15.2429 25.6305 15.4613 25.6876 15.8457H24.3981C24.4558 15.4869 24.6736 15.2429 25.0586 15.2429ZM25.0693 14.7591C24.3409 14.7591 23.8315 15.2893 23.8315 16.0641C23.8315 16.8544 24.3618 17.3691 25.1056 17.3691C25.4799 17.3691 25.8227 17.2757 26.1244 17.021L25.8596 16.6205C25.6513 16.7865 25.3859 16.8806 25.1366 16.8806C24.7884 16.8806 24.4713 16.7193 24.3933 16.2718H26.2387C26.244 16.2045 26.2494 16.1367 26.2494 16.0641C26.244 15.2893 25.7656 14.7591 25.0693 14.7591ZM31.5939 16.0641C31.5939 15.6273 31.8802 15.2685 32.3479 15.2685C32.7948 15.2685 33.0965 15.6118 33.0965 16.0641C33.0965 16.5164 32.7948 16.8597 32.3479 16.8597C31.8802 16.8597 31.5939 16.5009 31.5939 16.0641ZM33.6059 16.0641V14.8216H33.0656V15.1233C32.8936 14.8995 32.6341 14.7591 32.2806 14.7591C31.5838 14.7591 31.0375 15.3054 31.0375 16.0641C31.0375 16.8234 31.5838 17.3691 32.2806 17.3691C32.6341 17.3691 32.8936 17.2287 33.0656 17.0049V17.3067H33.6059V16.0641ZM28.5423 16.0641C28.5423 16.8181 29.0672 17.3691 29.8681 17.3691C30.2425 17.3691 30.4918 17.2858 30.762 17.0728L30.5025 16.636C30.2996 16.7818 30.0865 16.8597 29.8521 16.8597C29.4206 16.8544 29.1035 16.5426 29.1035 16.0641C29.1035 15.5857 29.4206 15.2738 29.8521 15.2685C30.0865 15.2685 30.2996 15.3464 30.5025 15.4922L30.762 15.0554C30.4918 14.8424 30.2425 14.7591 29.8681 14.7591C29.0672 14.7591 28.5423 15.3101 28.5423 16.0641ZM35.509 14.7591C35.1972 14.7591 34.9943 14.9049 34.8538 15.1233V14.8216H34.3182V17.3067H34.8592V15.9135C34.8592 15.5023 35.0359 15.2738 35.3894 15.2738C35.4989 15.2738 35.6132 15.2893 35.7274 15.3363L35.894 14.8269C35.7744 14.7799 35.6185 14.7591 35.509 14.7591ZM21.0239 15.0191C20.7638 14.8477 20.4056 14.7591 20.0105 14.7591C19.3808 14.7591 18.9756 15.0608 18.9756 15.5547C18.9756 15.96 19.2773 16.2099 19.8331 16.2879L20.0884 16.3242C20.3848 16.3658 20.5246 16.4438 20.5246 16.5842C20.5246 16.7764 20.327 16.8859 19.9581 16.8859C19.5838 16.8859 19.3136 16.7663 19.1315 16.6259L18.8768 17.0466C19.1732 17.265 19.5475 17.3691 19.9527 17.3691C20.6704 17.3691 21.0864 17.0311 21.0864 16.558C21.0864 16.1212 20.7591 15.8927 20.2181 15.8148L19.9634 15.7779C19.7296 15.7469 19.5421 15.7005 19.5421 15.5339C19.5421 15.3518 19.7189 15.2429 20.0152 15.2429C20.3324 15.2429 20.6395 15.3625 20.79 15.4559L21.0239 15.0191ZM27.996 14.7591C27.6842 14.7591 27.4812 14.9049 27.3414 15.1233V14.8216H26.8058V17.3067H27.3461V15.9135C27.3461 15.5023 27.5229 15.2738 27.8764 15.2738C27.9859 15.2738 28.1001 15.2893 28.2144 15.3363L28.381 14.8269C28.2614 14.7799 28.1055 14.7591 27.996 14.7591ZM23.3846 14.8216H22.5009V14.0676H21.9546V14.8216H21.4506V15.3155H21.9546V16.4491C21.9546 17.0258 22.1784 17.3691 22.8175 17.3691C23.052 17.3691 23.3221 17.2965 23.4935 17.1769L23.3376 16.7139C23.1763 16.8074 22.9996 16.8544 22.8592 16.8544C22.589 16.8544 22.5009 16.6878 22.5009 16.4384V15.3155H23.3846V14.8216ZM15.3051 17.3067V15.7469C15.3051 15.1596 14.9307 14.7644 14.3273 14.7591C14.0101 14.7537 13.6828 14.8525 13.4537 15.2012C13.2823 14.9257 13.0122 14.7591 12.6325 14.7591C12.3671 14.7591 12.1076 14.837 11.9047 15.128V14.8216H11.3638V17.3067H11.9095V15.929C11.9095 15.4976 12.1487 15.2685 12.5182 15.2685C12.8771 15.2685 13.0586 15.5023 13.0586 15.9237V17.3067H13.6049V15.929C13.6049 15.4976 13.8542 15.2685 14.2131 15.2685C14.582 15.2685 14.7588 15.5023 14.7588 15.9237V17.3067H15.3051Z" fill="white"/>
</g>
</g>
</g>
</g>
<defs>
<clipPath id="clip0">
<rect width="50" height="32" fill="white"/>
</clipPath>
</defs>
</svg>
