<svg width="45" height="45" viewBox="0 0 45 45" fill="none" xmlns="http://www.w3.org/2000/svg">
<path d="M42.75 22.5H42V6.75C41.9976 4.68 40.32 3.00244 38.25 3H6.75C4.68 3.00244 3.00244 4.68 3 6.75V18H2.25C1.00734 18 0 19.0073 0 20.25V39.75C0 40.9927 1.00734 42 2.25 42H30.75C31.1642 42 31.5 41.6642 31.5 41.25C31.4976 39.18 29.82 37.5024 27.75 37.5H25.5V33H34.5V39.75C34.5 40.9927 35.5073 42 36.75 42H42.75C43.9927 42 45 40.9927 45 39.75V24.75C45 23.5073 43.9927 22.5 42.75 22.5ZM16.5 39.75C16.5 40.1642 16.1642 40.5 15.75 40.5H2.25C1.83581 40.5 1.5 40.1642 1.5 39.75V39H16.5V39.75ZM16.5 37.5H1.5V20.25C1.5 19.8358 1.83581 19.5 2.25 19.5H15.75C16.1642 19.5 16.5 19.8358 16.5 20.25V37.5ZM27.75 39C28.7033 39.0011 29.5527 39.6017 29.8717 40.5H17.862C17.9509 40.2598 17.9975 40.0061 18 39.75V39H27.75ZM18 37.5V33H19.5V37.5H18ZM21 37.5V33H24V37.5H21ZM34.5 31.5H18V27H34.5V31.5ZM34.5 24.75V25.5H18V20.25C17.9975 19.8941 17.9094 19.5441 17.7435 19.2292C17.7548 19.2188 17.7698 19.2157 17.7803 19.2045L25.2052 11.7795C25.4931 11.4816 25.4848 11.0067 25.1869 10.719C24.8962 10.4383 24.4355 10.4383 24.1448 10.719L16.7197 18.144C16.7017 18.1627 16.6943 18.1867 16.6785 18.2062C16.3875 18.0712 16.0707 18.0009 15.75 18H4.5V6.75C4.5 5.50734 5.50734 4.5 6.75 4.5H38.25C39.4927 4.5 40.5 5.50734 40.5 6.75V22.5H36.75C35.5073 22.5 34.5 23.5073 34.5 24.75ZM43.5 39.75C43.5 40.1642 43.1642 40.5 42.75 40.5H36.75C36.3358 40.5 36 40.1642 36 39.75V39H43.5V39.75ZM43.5 37.5H36V24.75C36 24.3358 36.3358 24 36.75 24H42.75C43.1642 24 43.5 24.3358 43.5 24.75V37.5Z" fill="#2864FF"/>
<path d="M8.96168 27.1288C8.6688 26.836 8.19405 26.836 7.90118 27.1288L4.71968 30.3103C4.42174 30.5981 4.41349 31.0728 4.7013 31.3708C4.98912 31.6687 5.46387 31.677 5.7618 31.3891C5.76809 31.3831 5.77418 31.377 5.78018 31.3708L8.96168 28.1893C9.09555 27.9572 8.82649 27.5161 8.96168 27.1288Z" fill="white"/>
<path d="M13.4433 27.129C13.1527 26.8483 12.6919 26.8483 12.4012 27.129L9.21968 30.3105C8.92174 30.5982 8.91349 31.073 9.2013 31.371C9.48902 31.6689 9.96387 31.6772 10.2618 31.3893C10.2681 31.3833 10.2742 31.3772 10.2802 31.371L13.4617 28.1895C13.7494 27.8915 13.7412 27.4167 13.4433 27.129Z" fill="white"/>
<path d="M29.762 10.7198C29.4714 10.4391 29.0106 10.4391 28.7199 10.7198L21.2949 18.1448C20.9969 18.4325 20.9887 18.9074 21.2764 19.2053C21.5641 19.5032 22.039 19.5115 22.3369 19.2238C22.3432 19.2178 22.3493 19.2116 22.3554 19.2053L29.7804 11.7803C30.0682 11.4824 30.0599 11.0075 29.762 10.7198Z" fill="white"/>
<path d="M41.3223 29.1593C41.0316 28.8785 40.5708 28.8785 40.2801 29.1593L38.1591 31.2803C37.8612 31.5681 37.8529 32.0429 38.1408 32.3408C38.4286 32.6387 38.9033 32.647 39.2013 32.3592C39.2074 32.3532 39.2136 32.347 39.2196 32.3408L41.3406 30.2198C41.6284 29.9219 41.6202 29.4471 41.3223 29.1593Z" fill="white"/>
<path d="M22.515 28.5H22.5075C22.0933 28.5021 21.7592 28.8396 21.7612 29.2538C21.7633 29.6679 22.1008 30.0021 22.515 30C22.9292 30 23.265 29.6642 23.265 29.25C23.265 28.8358 22.9292 28.5 22.515 28.5Z" fill="white"/>
<path d="M24 6H21C20.5858 6 20.25 6.33581 20.25 6.75C20.25 7.16419 20.5858 7.5 21 7.5H24C24.4142 7.5 24.75 7.16419 24.75 6.75C24.75 6.33581 24.4142 6 24 6Z" fill="white"/>
</svg>
