<svg width="45" height="45" viewBox="0 0 45 45" fill="none" xmlns="http://www.w3.org/2000/svg">
<path d="M17.7546 31.5351C17.5847 31.5351 17.4134 31.4767 17.2737 31.3577L12.4663 27.2641C12.3004 27.1228 12.2051 26.9163 12.2051 26.6982C12.2051 26.4806 12.3008 26.2741 12.4663 26.1328L17.2737 22.0392C17.5859 21.773 18.0548 21.8108 18.3209 22.123C18.5867 22.4355 18.5494 22.9044 18.2368 23.1702L14.0939 26.6982L18.2368 30.2263C18.5494 30.4925 18.5867 30.9614 18.3209 31.2735C18.1738 31.4464 17.9648 31.5351 17.7546 31.5351Z" fill="white"/>
<path d="M27.2452 31.5351C27.0351 31.5351 26.8261 31.4464 26.6793 31.2735C26.4132 30.9614 26.4509 30.4925 26.7631 30.2263L30.906 26.6982L26.7631 23.1702C26.4509 22.9044 26.4132 22.4355 26.6793 22.123C26.9451 21.8108 27.4144 21.773 27.7262 22.0392L32.5336 26.1328C32.6994 26.2741 32.7948 26.4806 32.7948 26.6982C32.7948 26.9163 32.6994 27.1228 32.5336 27.2641L27.7262 31.3577C27.5864 31.4767 27.4152 31.5351 27.2452 31.5351Z" fill="white"/>
<path d="M20.7983 34.6057C20.7473 34.6057 20.6959 34.6003 20.6441 34.5895C20.2428 34.5049 19.9857 34.1106 20.0703 33.7093L23.0665 19.4839C23.151 19.0826 23.5449 18.8256 23.9466 18.9101C24.3479 18.9947 24.605 19.3886 24.5204 19.7903L21.5242 34.0157C21.4504 34.3656 21.142 34.6057 20.7983 34.6057Z" fill="white"/>
<path d="M40.0118 42.3558H4.98821C2.23789 42.3558 0 40.1184 0 37.3676V7.64153C0 4.89121 2.23789 2.65332 4.98821 2.65332H40.0118C42.7621 2.65332 45 4.89121 45 7.64153V37.3676C45 40.1184 42.7621 42.3558 40.0118 42.3558ZM4.98821 4.13917C3.0571 4.13917 1.48585 5.71042 1.48585 7.64153V37.3676C1.48585 39.2987 3.0571 40.87 4.98821 40.87H40.0118C41.9429 40.87 43.5142 39.2987 43.5142 37.3676V7.64153C43.5142 5.71042 41.9429 4.13917 40.0118 4.13917H4.98821Z" fill="#2864FF"/>
<path d="M44.2571 14.5498H0.742925C0.332492 14.5498 0 14.2173 0 13.8069C0 13.3969 0.332492 13.064 0.742925 13.064H44.2571C44.6675 13.064 45 13.3969 45 13.8069C45 14.2173 44.6675 14.5498 44.2571 14.5498Z" fill="#2864FF"/>
<path d="M12.6934 10.9946C11.3974 10.9946 10.3423 9.93953 10.3423 8.64355C10.3423 7.34717 11.3974 6.29248 12.6934 6.29248C13.9897 6.29248 15.0444 7.34717 15.0444 8.64355C15.0444 9.93953 13.9897 10.9946 12.6934 10.9946ZM12.6934 7.77833C12.2166 7.77833 11.8281 8.16637 11.8281 8.64355C11.8281 9.12073 12.2166 9.50878 12.6934 9.50878C13.1705 9.50878 13.5586 9.12073 13.5586 8.64355C13.5586 8.16637 13.1705 7.77833 12.6934 7.77833Z" fill="white"/>
<path d="M5.46973 10.9717C4.17334 10.9717 3.11865 9.91699 3.11865 8.62061C3.11865 7.32422 4.17334 6.26953 5.46973 6.26953C6.76611 6.26953 7.8208 7.32422 7.8208 8.62061C7.8208 9.91699 6.76611 10.9717 5.46973 10.9717ZM5.46973 7.75538C4.99296 7.75538 4.6045 8.14384 4.6045 8.62061C4.6045 9.09779 4.99296 9.48583 5.46973 9.48583C5.94691 9.48583 6.33495 9.09779 6.33495 8.62061C6.33495 8.14384 5.94691 7.75538 5.46973 7.75538Z" fill="white"/>
<path d="M19.9171 11.0172C18.6211 11.0172 17.5664 9.96248 17.5664 8.66609C17.5664 7.37012 18.6211 6.31543 19.9171 6.31543C21.2135 6.31543 22.2681 7.37012 22.2681 8.66609C22.2681 9.96248 21.2135 11.0172 19.9171 11.0172ZM19.9171 7.80086C19.4403 7.80086 19.0523 8.18891 19.0523 8.66609C19.0523 9.14327 19.4403 9.53131 19.9171 9.53131C20.3942 9.53131 20.7823 9.14327 20.7823 8.66609C20.7823 8.18891 20.3942 7.80086 19.9171 7.80086Z" fill="white"/>
</svg>
