<svg width="45" height="45" fill="none" xmlns="http://www.w3.org/2000/svg"><path d="M42.75 22.5H42V6.75A3.754 3.754 0 0038.25 3H6.75A3.755 3.755 0 003 6.75V18h-.75A2.25 2.25 0 000 20.25v19.5A2.25 2.25 0 002.25 42h28.5a.75.75 0 00.75-.75 3.754 3.754 0 00-3.75-3.75H25.5V33h9v6.75A2.25 2.25 0 0036.75 42h6A2.25 2.25 0 0045 39.75v-15a2.25 2.25 0 00-2.25-2.25zM16.5 39.75a.75.75 0 01-.75.75H2.25a.75.75 0 01-.75-.75V39h15v.75zm0-2.25h-15V20.25a.75.75 0 01.75-.75h13.5a.75.75 0 01.75.75V37.5zM27.75 39a2.254 2.254 0 012.122 1.5h-12.01c.089-.24.136-.494.138-.75V39h9.75zM18 37.5V33h1.5v4.5H18zm3 0V33h3v4.5h-3zm13.5-6H18V27h16.5v4.5zm0-6.75v.75H18v-5.25a2.224 2.224 0 00-.256-1.02c.01-.011.026-.014.036-.026l7.425-7.425a.75.75 0 00-1.06-1.06l-7.425 7.425c-.018.019-.026.043-.041.062A2.221 2.221 0 0015.75 18H4.5V6.75A2.25 2.25 0 016.75 4.5h31.5a2.25 2.25 0 012.25 2.25V22.5h-3.75a2.25 2.25 0 00-2.25 2.25zm9 15a.75.75 0 01-.75.75h-6a.75.75 0 01-.75-.75V39h7.5v.75zm0-2.25H36V24.75a.75.75 0 01.75-.75h6a.75.75 0 01.75.75V37.5z" fill="#2864FF"/><path d="M8.962 27.129a.75.75 0 00-1.06 0L4.72 30.31a.75.75 0 101.06 1.06l3.182-3.18c.134-.233-.136-.674 0-1.061zm4.481 0a.75.75 0 00-1.042 0L9.22 30.31a.75.75 0 101.06 1.061l3.182-3.181a.75.75 0 00-.019-1.061zM29.762 10.72a.75.75 0 00-1.042 0l-7.425 7.425a.75.75 0 101.06 1.06l7.425-7.425a.75.75 0 00-.018-1.06zm11.56 18.44a.75.75 0 00-1.042 0l-2.12 2.12a.75.75 0 101.06 1.06l2.12-2.12a.75.75 0 00-.018-1.06zm-18.807-.66h-.008a.75.75 0 00.008 1.5.75.75 0 000-1.5zM24 6h-3a.75.75 0 000 1.5h3A.75.75 0 0024 6z" fill="#fff"/></svg>