<svg width="50" height="50" fill="none" xmlns="http://www.w3.org/2000/svg"><path d="M3.333 41.68H5v-1.667H3.333c-.92 0-1.666-.746-1.666-1.666V5.013c0-.92.746-1.666 1.666-1.666H40c.92 0 1.667.746 1.667 1.666V6.68h1.666V5.013A3.333 3.333 0 0040 1.68H3.333A3.333 3.333 0 000 5.013v33.334a3.333 3.333 0 003.333 3.333z" fill="#000"/><path d="M3.333 5.013H5V6.68H3.333V5.013zm3.333 0h1.667V6.68H6.666V5.013zm3.334 0h1.667V6.68H10V5.013zm-3.334 40a3.333 3.333 0 003.333 3.334h36.667a3.333 3.333 0 003.333-3.334V11.68a3.333 3.333 0 00-3.333-3.333H9.999a3.333 3.333 0 00-3.333 3.333v33.333zM8.333 11.68c0-.92.746-1.667 1.666-1.667h36.667c.92 0 1.667.746 1.667 1.667v33.333c0 .92-.746 1.667-1.667 1.667H9.999c-.92 0-1.666-.746-1.666-1.667V11.68z" fill="#000"/><path d="M10 11.68h1.667v1.667H10V11.68zm3.334 0h1.667v1.667h-1.667V11.68zm3.333 0h1.667v1.667h-1.667V11.68zM10 15.013h36.667v1.667H10v-1.667zm0 4.167h6.667v1.667H10V19.18zm0 3.333h5v1.667h-5v-1.667zm18.333 3.334a5.833 5.833 0 105.834 5.833 5.84 5.84 0 00-5.834-5.833zm0 10a4.167 4.167 0 110-8.334 4.167 4.167 0 010 8.334z" fill="#0057FF"/><path d="M41.667 29.18a.833.833 0 00-.834-.833h-2.202a10.598 10.598 0 00-.66-1.592l1.558-1.556a.834.834 0 000-1.179l-3.536-3.536a.834.834 0 00-1.178 0l-1.557 1.557a10.799 10.799 0 00-1.591-.659V19.18a.833.833 0 00-.834-.833h-5a.833.833 0 00-.833.833v2.203a10.67 10.67 0 00-1.592.658l-1.556-1.557a.834.834 0 00-1.179 0l-3.535 3.536a.834.834 0 000 1.179l1.556 1.556a10.75 10.75 0 00-.658 1.592h-2.203a.833.833 0 00-.833.833v5c0 .46.373.833.833.833h2.203c.176.548.396 1.08.659 1.592l-1.558 1.556a.834.834 0 000 1.179l3.536 3.536a.834.834 0 001.179 0l1.556-1.557c.513.262 1.045.482 1.592.658v2.203c0 .46.373.833.833.833h5c.46 0 .834-.373.834-.833v-2.203a10.66 10.66 0 001.591-.658l1.557 1.557a.834.834 0 001.178 0l3.536-3.536a.834.834 0 000-1.179l-1.557-1.556c.262-.511.482-1.044.659-1.592h2.202c.46 0 .834-.373.834-.833v-5zM40 33.347h-1.995a.833.833 0 00-.807.625 9.108 9.108 0 01-.975 2.356.834.834 0 00.129 1.013l1.409 1.41-2.357 2.357-1.41-1.41a.834.834 0 00-1.013-.128 9.099 9.099 0 01-2.356.975.833.833 0 00-.625.807v1.995h-3.333v-1.995a.833.833 0 00-.625-.807 9.1 9.1 0 01-2.357-.975.834.834 0 00-1.012.128l-1.41 1.41-2.357-2.357 1.409-1.41a.834.834 0 00.128-1.013 9.112 9.112 0 01-.975-2.356.833.833 0 00-.806-.625h-1.995v-3.334h1.995c.38 0 .711-.257.806-.625a9.198 9.198 0 01.975-2.36.834.834 0 00-.128-1.012l-1.409-1.41 2.357-2.358 1.41 1.41a.833.833 0 001.012.128 9.113 9.113 0 012.357-.975.833.833 0 00.625-.806v-1.992H30v1.995c0 .38.257.712.625.807.827.213 1.62.541 2.356.975a.834.834 0 001.013-.128l1.41-1.41 2.357 2.357-1.41 1.41a.834.834 0 00-.128 1.013 9.11 9.11 0 01.975 2.356.833.833 0 00.807.625H40v3.334zm1.667 10h5v1.666h-5v-1.666z" fill="#0057FF"/></svg>