<svg width="45" height="45" fill="none" xmlns="http://www.w3.org/2000/svg"><g clip-path="url(#clip0)" fill="#0057FF"><path d="M42.008 23.083a1.318 1.318 0 010-1.166l1.678-3.433a3.906 3.906 0 00-1.685-5.188l-3.376-1.79a1.32 1.32 0 01-.685-.944l-.66-3.764a3.907 3.907 0 00-4.413-3.206l-3.784.535a1.319 1.319 0 01-1.109-.36L25.228 1.11a3.906 3.906 0 00-5.455 0l-2.747 2.657a1.32 1.32 0 01-1.108.36l-3.784-.535A3.906 3.906 0 007.72 6.798l-.66 3.764a1.32 1.32 0 01-.685.943L3 13.296a3.907 3.907 0 00-1.686 5.188l1.679 3.433c.18.371.18.796 0 1.166l-1.679 3.434A3.907 3.907 0 003 31.704l3.376 1.791c.364.193.613.537.685.943l.66 3.764a3.904 3.904 0 004.413 3.206l3.784-.535c.408-.058.812.074 1.108.36l2.747 2.658a3.91 3.91 0 005.454 0l2.747-2.657a1.32 1.32 0 011.109-.36l3.784.534a3.906 3.906 0 004.413-3.206l.66-3.764c.071-.406.32-.75.685-.943L42 31.705a3.907 3.907 0 001.685-5.189l-1.678-3.433zm-1.224 6.328l-3.376 1.791a3.898 3.898 0 00-2.025 2.788l-.66 3.764a1.322 1.322 0 01-1.493 1.085l-3.784-.536a3.896 3.896 0 00-3.276 1.065l-2.747 2.657c-.517.5-1.328.5-1.845 0l-2.747-2.657a3.894 3.894 0 00-3.277-1.065l-3.784.536a1.322 1.322 0 01-1.493-1.085l-.66-3.764a3.897 3.897 0 00-2.025-2.788l-3.376-1.79a1.322 1.322 0 01-.57-1.756l1.678-3.433a3.898 3.898 0 000-3.445l-1.678-3.434a1.322 1.322 0 01.57-1.755l3.376-1.791a3.898 3.898 0 002.025-2.787l.66-3.765a1.321 1.321 0 011.493-1.084l3.784.535a3.9 3.9 0 003.277-1.065l2.746-2.657c.518-.5 1.328-.5 1.846 0l2.747 2.657a3.897 3.897 0 003.276 1.065l3.784-.535a1.32 1.32 0 011.493 1.084l.66 3.765c.21 1.2.949 2.216 2.025 2.787l3.376 1.791a1.32 1.32 0 01.57 1.755l-1.678 3.433a3.897 3.897 0 000 3.446l1.678 3.433a1.322 1.322 0 01-.57 1.755z"/><path d="M31.982 13.018a1.298 1.298 0 00-1.835 0l-17.13 17.13a1.298 1.298 0 101.836 1.834l17.129-17.128a1.298 1.298 0 000-1.836zM17.31 10.82a4.764 4.764 0 00-4.76 4.759 4.764 4.764 0 004.76 4.758 4.764 4.764 0 004.757-4.758 4.764 4.764 0 00-4.758-4.759zm0 6.921a2.165 2.165 0 01-2.164-2.162c0-1.193.97-2.163 2.163-2.163 1.193 0 2.163.97 2.163 2.162 0 1.193-.97 2.163-2.163 2.163zm10.38 6.922a4.764 4.764 0 00-4.757 4.758 4.764 4.764 0 004.758 4.758 4.764 4.764 0 004.758-4.758 4.764 4.764 0 00-4.758-4.758zm0 6.92a2.165 2.165 0 01-2.162-2.162c0-1.193.97-2.163 2.163-2.163 1.193 0 2.163.97 2.163 2.163 0 1.192-.97 2.163-2.163 2.163z"/></g><defs><clipPath id="clip0"><path fill="#fff" d="M0 0h45v45H0z"/></clipPath></defs></svg>