<svg width="44" height="35" fill="none" xmlns="http://www.w3.org/2000/svg"><g clip-path="url(#clip0)"><path d="M42.258 7.515L22.28.05a.816.816 0 00-.56 0L1.742 7.515c-.223.083-.364.258-.364.45v18.13c0 .191.141.366.364.449L21.72 34.01a.806.806 0 00.56 0l19.978-7.466c.223-.083.364-.258.364-.45V7.965c0-.191-.141-.366-.364-.449zM22 1.053l18.495 6.911-5.361 2.004a.687.687 0 00-.11-.053L16.656 3.05 22 1.053zm-6.8 2.561l18.468 6.902-3.782 1.413-18.461-6.898L15.2 3.614zm18.9 7.848v5.225l-3.533 1.32v-5.225l3.533-1.32zm7.233 14.32l-18.688 6.983V15.743l4.457-1.666c.321-.12.456-.418.3-.666-.154-.248-.54-.352-.86-.232L22 14.875l-1.787-.668c-.32-.12-.706-.016-.86.232-.155.248-.021.547.3.667l1.703.636v17.022L2.667 25.782V8.759l14.231 5.318a.8.8 0 00.28.05c.24 0 .47-.104.58-.282.156-.248.021-.546-.3-.666L3.506 7.964l6.403-2.392 19.36 7.235.01.009v5.986c0 .172.114.332.302.423a.803.803 0 00.623.027l4.822-1.802c.223-.084.364-.258.364-.45v-6.02l5.944-2.22v17.022z" fill="#2864FF"/><path d="M7.986 23.846l-2.932-1.095c-.32-.12-.706-.016-.86.232-.156.248-.021.547.3.666l2.931 1.096a.8.8 0 00.28.05c.24 0 .47-.104.58-.282.156-.248.021-.547-.3-.667zm2.698-1.359l-5.626-2.102c-.32-.12-.706-.016-.86.232-.155.248-.02.546.3.666l5.626 2.103c.09.033.185.05.28.05.239 0 .47-.105.58-.283.155-.248.02-.546-.3-.666z" fill="#fff"/></g><defs><clipPath id="clip0"><path fill="#fff" d="M0 0h44v34.059H0z"/></clipPath></defs></svg>