<svg width="100" height="33" fill="none" xmlns="http://www.w3.org/2000/svg"><path d="M37.741 8.157h3.741c.894 0 1.683.173 2.365.518.69.337 1.224.816 1.6 1.435.384.62.576 1.341.576 2.165 0 .823-.192 1.545-.576 2.165-.377.62-.91 1.102-1.6 1.447-.682.337-1.47.506-2.365.506h-3.74V8.157zm3.647 6.67c.824 0 1.479-.227 1.965-.681.494-.463.741-1.087.741-1.871s-.247-1.404-.741-1.859c-.486-.463-1.141-.694-1.965-.694h-1.741v5.106h1.741zm8.955 1.66c-.667 0-1.267-.138-1.8-.412a3.157 3.157 0 01-1.235-1.165 3.193 3.193 0 01-.447-1.682c0-.628.149-1.188.447-1.682.298-.495.71-.879 1.235-1.153.534-.283 1.133-.424 1.8-.424s1.263.141 1.788.424c.526.274.938.658 1.236 1.152.298.495.447 1.055.447 1.683 0 .627-.15 1.188-.447 1.682-.298.494-.71.883-1.236 1.165-.525.274-1.121.412-1.788.412zm0-1.506c.47 0 .855-.157 1.153-.47.306-.322.459-.75.459-1.283 0-.534-.153-.957-.459-1.27-.298-.322-.682-.483-1.153-.483-.47 0-.859.16-1.165.482-.305.314-.458.737-.458 1.27 0 .534.153.962.458 1.283.306.314.695.47 1.165.47zm14.69-4.918l-2.294 6.33h-1.765l-1.423-3.93-1.471 3.93h-1.765l-2.282-6.33h1.73l1.493 4.282 1.553-4.282h1.553l1.506 4.282 1.541-4.282h1.624zm4.7-.094c.784 0 1.416.235 1.894.706.487.47.73 1.169.73 2.094v3.624H70.52V13.05c0-.502-.11-.874-.33-1.117-.219-.251-.536-.377-.952-.377-.463 0-.831.145-1.106.436-.274.282-.412.705-.412 1.27v3.13h-1.835v-6.33h1.753v.741c.243-.266.545-.47.906-.611.36-.15.757-.224 1.188-.224zm4.287-2.306h1.836v8.73H74.02v-8.73zm6.55 8.824a3.886 3.886 0 01-1.8-.412 3.156 3.156 0 01-1.235-1.165 3.193 3.193 0 01-.447-1.682 3.2 3.2 0 01.447-1.682c.298-.495.71-.879 1.236-1.153.533-.283 1.133-.424 1.8-.424.666 0 1.262.141 1.788.424a3.07 3.07 0 011.235 1.152c.298.495.447 1.055.447 1.683 0 .627-.149 1.188-.447 1.682-.298.494-.71.883-1.235 1.165-.526.274-1.122.412-1.788.412zm0-1.506c.471 0 .856-.157 1.154-.47.305-.322.458-.75.458-1.283 0-.534-.153-.957-.458-1.27-.299-.322-.683-.483-1.153-.483-.471 0-.86.16-1.165.482-.306.314-.459.737-.459 1.27 0 .534.153.962.459 1.283.306.314.694.47 1.165.47zm7.148-5.012c.98 0 1.733.235 2.258.706.526.463.789 1.165.789 2.106v3.612h-1.718v-.789c-.345.589-.988.883-1.93.883-.486 0-.91-.083-1.27-.247a1.892 1.892 0 01-.812-.683 1.776 1.776 0 01-.282-.988c0-.588.22-1.05.659-1.388.447-.337 1.133-.506 2.058-.506h1.46c0-.4-.122-.706-.365-.918-.244-.22-.608-.33-1.095-.33-.337 0-.67.056-1 .166a2.551 2.551 0 00-.823.423l-.659-1.282a3.982 3.982 0 011.235-.565c.487-.133.985-.2 1.495-.2zm-.142 5.282c.314 0 .593-.07.836-.211.243-.15.415-.365.517-.647v-.648H87.67c-.752 0-1.129.248-1.129.742 0 .235.09.423.27.564.189.134.444.2.765.2zm11.366-7.588v8.73h-1.753v-.73c-.455.55-1.114.824-1.977.824a3.32 3.32 0 01-1.623-.4 2.875 2.875 0 01-1.13-1.142c-.274-.494-.412-1.066-.412-1.717s.138-1.224.412-1.718a2.875 2.875 0 011.13-1.141 3.321 3.321 0 011.623-.4c.808 0 1.44.255 1.894.765v-3.07h1.836zm-3.412 7.318c.463 0 .847-.157 1.153-.47.306-.322.459-.75.459-1.283 0-.534-.153-.957-.46-1.27a1.524 1.524 0 00-1.152-.483c-.47 0-.859.16-1.165.482-.306.314-.459.737-.459 1.27 0 .534.153.962.46 1.283.305.314.693.47 1.164.47zm-56.357 6.526c-.27 0-.476.074-.617.22-.136.148-.203.365-.203.654v.547h1.43v.53H38.37v4.11h-.626v-4.11h-.83v-.53h.83v-.574c0-.423.12-.759.362-1.006.247-.247.594-.37 1.041-.37.177 0 .347.026.512.08.165.046.303.117.415.21l-.212.468a1.035 1.035 0 00-.689-.229zm3.275 6.106c-.447 0-.85-.1-1.21-.3a2.252 2.252 0 01-.846-.847 2.402 2.402 0 01-.309-1.218c0-.453.103-.859.309-1.217.206-.36.488-.639.847-.839.359-.2.762-.3 1.209-.3.447 0 .85.1 1.209.3.358.2.638.48.838.839.206.358.309.764.309 1.217 0 .453-.103.86-.31 1.218a2.19 2.19 0 01-.837.847c-.36.2-.762.3-1.21.3zm0-.556c.33 0 .623-.073.882-.22a1.59 1.59 0 00.618-.645 1.98 1.98 0 00.22-.944 1.98 1.98 0 00-.22-.944 1.533 1.533 0 00-.618-.635 1.701 1.701 0 00-.882-.23c-.33 0-.627.077-.892.23a1.607 1.607 0 00-.617.635c-.147.277-.22.591-.22.944s.073.668.22.944c.153.277.359.492.617.645.265.147.562.22.892.22zm4.235-3.22c.147-.312.364-.548.653-.706.294-.16.655-.239 1.085-.239v.61l-.15-.01c-.488 0-.87.15-1.147.45-.277.3-.415.721-.415 1.262v2.365h-.626v-4.641h.6v.909zm9.256 2.082h-3.441l-.741 1.65h-.68l2.824-6.177h.644l2.824 6.177h-.689l-.74-1.65zm-.238-.53l-1.482-3.317-1.483 3.317h2.965zm4.922-2.497c.582 0 1.044.171 1.385.512.347.335.52.827.52 1.474v2.69h-.626V24.94c0-.482-.12-.85-.362-1.102-.24-.253-.585-.38-1.032-.38-.5 0-.897.15-1.191.45-.288.294-.432.703-.432 1.227v2.435h-.627v-4.641h.6v.856c.17-.283.406-.5.706-.653a2.266 2.266 0 011.059-.239zm7.859-1.87v6.547h-.6v-.918a1.9 1.9 0 01-.75.715 2.16 2.16 0 01-1.041.247c-.435 0-.83-.1-1.183-.3-.353-.2-.629-.48-.829-.838-.2-.36-.3-.768-.3-1.227 0-.459.1-.867.3-1.226.2-.359.477-.635.83-.83.352-.2.746-.3 1.182-.3.376 0 .715.08 1.015.239a1.9 1.9 0 01.75.679v-2.788h.626zm-2.338 6.035c.323 0 .614-.073.873-.22a1.59 1.59 0 00.618-.645c.153-.276.23-.59.23-.944 0-.353-.077-.667-.23-.944a1.533 1.533 0 00-.618-.635 1.685 1.685 0 00-.873-.23c-.33 0-.627.077-.892.23a1.607 1.607 0 00-.617.635c-.147.277-.22.591-.22.944s.073.668.22.944c.153.277.359.492.617.645.265.147.562.22.892.22zm4.683-3.22c.147-.312.364-.548.653-.706.294-.16.655-.239 1.085-.239v.61l-.15-.01c-.488 0-.87.15-1.147.45-.277.3-.415.721-.415 1.262v2.365h-.626v-4.641h.6v.909zm4.726 3.776c-.447 0-.85-.1-1.209-.3a2.253 2.253 0 01-.847-.847 2.402 2.402 0 01-.308-1.218c0-.453.102-.859.308-1.217.206-.36.489-.639.847-.839.36-.2.762-.3 1.21-.3.446 0 .85.1 1.208.3.359.2.638.48.838.839.206.358.309.764.309 1.217a2.4 2.4 0 01-.309 1.218c-.2.359-.48.641-.838.847-.359.2-.762.3-1.209.3zm0-.556c.33 0 .624-.073.883-.22a1.59 1.59 0 00.617-.645 1.98 1.98 0 00.22-.944 1.98 1.98 0 00-.22-.944 1.533 1.533 0 00-.617-.635 1.701 1.701 0 00-.883-.23c-.33 0-.626.077-.891.23a1.607 1.607 0 00-.618.635 1.98 1.98 0 00-.22.944c0 .353.073.668.22.944.153.277.36.492.618.645.265.147.562.22.891.22zm3.635-4.13h.626v4.642h-.626v-4.641zm.318-1.014a.444.444 0 01-.327-.132.433.433 0 01-.132-.318c0-.118.044-.22.132-.309a.444.444 0 01.327-.132c.13 0 .238.044.326.132a.395.395 0 01.133.3c0 .13-.045.238-.133.327a.444.444 0 01-.326.132zm6.287-.891v6.547h-.6v-.918a1.9 1.9 0 01-.75.715 2.16 2.16 0 01-1.041.247c-.436 0-.83-.1-1.183-.3-.352-.2-.629-.48-.829-.838-.2-.36-.3-.768-.3-1.227 0-.459.1-.867.3-1.226.2-.359.477-.635.83-.83.352-.2.746-.3 1.182-.3.376 0 .715.08 1.014.239.306.153.556.379.75.679v-2.788h.627zm-2.338 6.035c.323 0 .614-.073.873-.22a1.59 1.59 0 00.618-.645c.153-.276.23-.59.23-.944 0-.353-.077-.667-.23-.944a1.533 1.533 0 00-.618-.635 1.685 1.685 0 00-.873-.23c-.33 0-.627.077-.891.23a1.607 1.607 0 00-.618.635c-.147.277-.22.591-.22.944s.073.668.22.944c.153.277.359.492.618.645.264.147.561.22.89.22z" fill="#000"/><g clip-path="url(#clip0)" fill="#000"><path d="M4.389 10.55h-.083a1.934 1.934 0 00-1.929 1.928v8.397c0 1.064.867 1.93 1.93 1.93h.083a1.934 1.934 0 001.929-1.93v-8.397a1.937 1.937 0 00-1.93-1.929zm2.852 13.568c0 .975.797 1.77 1.773 1.77h1.894v4.535c0 1.065.869 1.931 1.928 1.931h.083a1.935 1.935 0 001.932-1.931v-4.536h2.647v4.536c0 1.065.871 1.931 1.931 1.931h.082c1.064 0 1.93-.867 1.93-1.931v-4.536h1.895c.974 0 1.771-.794 1.771-1.77V10.86H7.241v13.259zM20.625 2.817L22.13.495a.32.32 0 10-.536-.349l-1.56 2.403a10.17 10.17 0 00-3.857-.749c-1.382 0-2.686.27-3.859.749L10.761.146a.32.32 0 00-.444-.093.32.32 0 00-.095.442l1.506 2.322c-2.714 1.33-4.545 3.838-4.545 6.714 0 .177.011.351.026.524h17.937c.015-.173.025-.347.025-.524 0-2.876-1.832-5.384-4.546-6.714zm-8.607 4.158a.862.862 0 110-1.722.862.862 0 110 1.723zm8.316 0a.862.862 0 110-1.722c.478 0 .862.382.862.86a.86.86 0 01-.862.862zm7.71 3.575h-.08a1.936 1.936 0 00-1.931 1.928v8.397c0 1.064.87 1.93 1.931 1.93h.082a1.933 1.933 0 001.928-1.93v-8.397c0-1.06-.867-1.929-1.93-1.929z"/></g><defs><clipPath id="clip0"><path fill="#fff" d="M0 0h32.353v32.353H0z"/></clipPath></defs></svg>