<svg width="200" height="70" viewBox="0 0 200 70" fill="none" xmlns="http://www.w3.org/2000/svg">
<path d="M130.854 59.7044L130.845 59.6955L130.287 60.2545C130.845 59.6955 130.845 59.6954 130.845 59.6952L130.844 59.6943L130.84 59.6908L130.826 59.6766L130.77 59.6203L130.548 59.3989L129.689 58.5422L126.484 55.3453C123.753 52.6206 119.919 48.7968 115.511 44.4002C106.694 35.607 95.5786 24.5225 86.3818 15.3575L85.8381 14.8157L85.2812 15.3438C85.0276 15.5842 84.7696 15.833 84.5135 16.0909C83.8619 16.7404 83.2161 17.4324 82.5903 18.1496L82.5896 18.1504C81.8019 19.0556 81.0422 20.0191 80.3245 21.0206L79.9342 21.5652L80.408 22.0389L124.848 66.4792L124.982 66.613L125.162 66.6716C125.17 66.6744 125.182 66.6793 125.197 66.689C126.977 67.8515 129.355 67.605 130.86 66.1001L130.86 66.0999C132.346 64.6136 132.593 62.1687 131.442 60.4221C131.428 60.4006 131.419 60.382 131.414 60.3686L131.354 60.2082L131.233 60.0869L130.882 59.7349C130.877 59.7294 130.871 59.722 130.863 59.7136L130.854 59.7044Z" fill="#C4C4C4" stroke="#C4C4C4" stroke-width="1.57923"/>
<path d="M85.9467 12.894C85.4742 13.2819 85.0456 13.6504 84.6339 14.0208L84.386 14.2388C84.2598 14.3486 84.1335 14.458 84.0063 14.5779C83.6915 14.8762 83.3769 15.1777 83.0689 15.4861C82.401 16.1529 81.7336 16.8676 81.0872 17.61C80.0802 18.7675 79.1165 20.0165 78.2241 21.321C74.5591 26.6844 72.5405 32.5247 72.5405 37.7663C72.5405 40.0345 72.9137 42.1262 73.6519 43.9997C67.1748 45.3009 59.4763 42.5453 53.6975 36.7667C48.9062 31.9747 46.1592 25.884 46.1592 20.0561C46.1592 19.4748 46.1873 18.8965 46.2447 18.3313C50.8777 17.7805 57.7514 13.9353 64.9072 7.85219C65.4016 7.43365 65.8946 7.00503 66.3905 6.56322C67.7613 5.34446 69.1054 4.0778 70.3825 2.80144C70.7494 2.43468 71.0987 2.06715 71.448 1.69846L71.8216 1.3065C72.2386 0.8707 72.6472 0.435092 73.0504 -0.000508232L85.9467 12.894Z" fill="#C4C4C4"/>
<path d="M69.8315 59.7044L69.8404 59.6955L70.3981 60.2545C69.8404 59.6955 69.8405 59.6954 69.8407 59.6952L69.8416 59.6943L69.8452 59.6908L69.8594 59.6766L69.9158 59.6203L70.1377 59.3989L70.9965 58.5422L74.2012 55.3453C76.9327 52.6206 80.7662 48.7968 85.1745 44.4002C93.9911 35.607 105.107 24.5225 114.304 15.3575L114.847 14.8157L115.404 15.3438C115.658 15.5842 115.916 15.833 116.172 16.0909C116.824 16.7404 117.469 17.4324 118.095 18.1496L118.096 18.1504C118.884 19.0556 119.643 20.0191 120.361 21.0206L120.751 21.5652L120.278 22.0389L75.8375 66.4792L75.7037 66.613L75.5237 66.6716C75.5152 66.6744 75.5036 66.6793 75.4884 66.689C73.709 67.8515 71.331 67.605 69.8258 66.1001L69.8257 66.0999C68.3398 64.6136 68.093 62.1687 69.2437 60.4221C69.2576 60.4006 69.2665 60.382 69.2715 60.3686L69.3314 60.2082L69.4523 60.0869L69.8033 59.7349C69.8082 59.7294 69.8149 59.722 69.8228 59.7136L69.8315 59.7044Z" fill="#C4C4C4" stroke="#C4C4C4" stroke-width="1.57923"/>
<path d="M114.739 12.894C115.211 13.2819 115.64 13.6504 116.052 14.0208L116.3 14.2388C116.426 14.3486 116.552 14.458 116.679 14.5779C116.994 14.8762 117.309 15.1777 117.617 15.4861C118.285 16.1529 118.952 16.8676 119.598 17.61C120.605 18.7675 121.569 20.0165 122.461 21.321C126.126 26.6844 128.145 32.5247 128.145 37.7663C128.145 40.0345 127.772 42.1262 127.034 43.9997C133.511 45.3009 141.209 42.5453 146.988 36.7667C151.779 31.9747 154.526 25.884 154.526 20.0561C154.526 19.4748 154.498 18.8965 154.441 18.3313C149.808 17.7805 142.934 13.9353 135.778 7.85219C135.284 7.43365 134.791 7.00503 134.295 6.56322C132.924 5.34446 131.58 4.0778 130.303 2.80144C129.936 2.43468 129.587 2.06715 129.238 1.69846L128.864 1.3065C128.447 0.8707 128.038 0.435092 127.635 -0.000508232L114.739 12.894Z" fill="#C4C4C4"/>
<path fill-rule="evenodd" clip-rule="evenodd" d="M32.1597 11.4434V11.4563L32.2063 11.4438L46.8491 66.0914L32.9274 69.8217L31.0607 62.8548H15.7883L13.9216 69.8212L0 66.0909L14.6278 11.4991V11.4434H14.6428H32.1597ZM19.6502 48.442H27.1988L23.4245 34.3561L19.6502 48.442Z" fill="#C4C4C4"/>
<rect x="161.363" y="11.45" width="14.3829" height="58.3779" fill="#C4C4C4"/>
<path d="M175.746 25.8329L175.746 11.4499L200 11.4499L191.608 25.8329L175.746 25.8329Z" fill="#C4C4C4"/>
<path d="M175.746 55.4439L175.746 69.8268L200 69.8268L191.608 55.4438L175.746 55.4439Z" fill="#C4C4C4"/>
<rect x="175.746" y="47.6893" width="14.3829" height="11.4218" transform="rotate(-90 175.746 47.6893)" fill="#C4C4C4"/>
</svg>
